<?xml version="1.0" standalone="no"?>
<!DOCTYPE svg PUBLIC "-//W3C//DTD SVG 1.1//EN" "http://www.w3.org/Graphics/SVG/1.1/DTD/svg11.dtd" >
<svg xmlns="http://www.w3.org/2000/svg">
<metadata>Generated by IcoMoon</metadata>
<defs>
<font id="td-original-icons" horiz-adv-x="512">
<font-face units-per-em="512" ascent="409.6" descent="-102.4" />
<missing-glyph horiz-adv-x="512" />
<glyph unicode="&#x20;" horiz-adv-x="256" d="" />
<glyph unicode="&#xe600;" glyph-name="icon-number-one" d="M256 352c105.6 0 192-86.4 192-192s-86.4-192-192-192-192 86.4-192 192 86.4 192 192 192zM256 373.334c-118.4 0-213.333-94.933-213.333-213.333s94.934-213.333 213.333-213.333 213.333 94.933 213.333 213.334-94.933 213.334-213.333 213.334v0zM279.466 51.2c0-6.4-5.334-11.734-12.8-11.734s-12.8 4.267-12.8 11.734v192l-21.334-27.733c-2.133-3.2-5.333-4.267-10.666-4.267-6.4 0-11.733 5.333-11.733 12.8 0 2.133 1.066 5.333 2.133 7.466l32 41.6c3.2 4.267 6.4 7.466 14.934 7.466h6.4c6.4 0 11.733-4.267 11.733-11.733v-217.6z" />
<glyph unicode="&#xe601;" glyph-name="icon-4g-double-coverage" d="M388.267 316.8l-41.6 49.067-13.866-76.8-55.466 41.6 7.466 35.2h-55.466c-12.8-26.666-76.8-55.467-76.8-55.467s-81.067-53.333-102.4-73.6c-21.334-20.267 9.6-60.8 18.133-72.534s-7.466-69.334-7.466-69.334l41.6-13.866c9.6 14.933 89.6 45.866 146.133 41.6s97.067-97.067 97.067-97.067l83.2 13.866 40.534 145.067-81.067 132.267zM408.534 62.933l-45.866-7.466c-17.067 32-56.534 90.667-110.933 94.933-4.267 0-8.534 0-12.8 0-43.733 0-107.733-17.067-140.8-38.4l-3.2 1.067c9.6 49.067 0 61.867-3.2 67.2l-2.133 1.066c-18.133 25.6-18.133 32-19.2 36.267 16 13.867 64 49.067 93.866 67.2 16 7.466 55.466 27.733 77.867 52.266h7.466l-4.267-19.2 105.6-78.933 11.733 62.934 2.134-3.2 72.534-120.533-28.8-115.2zM353.067 10.667c-1.067 2.134 35.2-55.466 35.2-55.466l21.334 62.933c-1.067-1.067-56.534-9.6-56.534-7.466zM217.6 190.934h-29.867c-3.2 0-5.333 2.133-5.333 4.267v1.066c0 1.066 0 2.133 1.066 3.2l27.733 65.066c1.066 2.134 2.133 3.2 4.267 3.2 3.2 0 5.333-2.134 5.333-5.334 0-1.066 0-2.133-1.066-2.133l-26.666-60.8h22.4v13.867c0 3.2 2.133 4.267 5.333 4.267s5.333-2.133 5.333-4.267v-12.8h7.466c3.2 0 4.267-2.133 4.267-5.333s-2.133-5.333-4.267-5.333h-7.466v-18.133c0-3.2-2.133-4.267-5.333-4.267s-5.333 2.133-5.333 4.267v19.2zM307.2 224c3.2 0 5.334-2.133 5.334-5.333v-23.466c0-14.934-11.733-27.733-27.733-27.733h-1.067c-16 0-27.733 11.733-27.733 27.733v45.867c0 14.934 11.733 27.734 27.733 27.734h1.067c13.866 0 25.6-9.6 27.733-23.467 1.067-3.2-2.134-5.333-4.267-5.333-3.2 0-4.267 1.066-4.267 3.2-1.067 8.534-7.466 14.933-18.134 14.933h-1.067c-9.6 0-17.067-7.466-17.067-17.066v-44.8c0-9.6 7.466-17.066 17.067-17.066h1.067c10.666 0 17.067 7.466 17.067 17.066v19.2h-14.933c-3.2 0-4.267 2.133-4.267 5.333s2.134 5.333 4.267 5.333l19.2-2.133z" />
<glyph unicode="&#xe602;" glyph-name="icon-4g-network-speed" d="M256 316.8c-117.334 0-213.333-97.066-213.333-216.533 0-18.134 1.066-32 5.334-45.867 3.2-11.733 9.6-22.4 18.133-29.866 12.8-11.733 27.734-22.4 49.067-22.4h273.067c22.4 0 49.067 13.866 58.666 24.534 9.6 8.534 14.933 20.267 18.134 35.2 2.134 10.666 3.2 22.4 3.2 39.466 1.067 119.466-94.933 215.466-212.267 215.466zM437.334 68.267c-2.134-8.534-5.334-14.933-9.6-20.267-5.334-5.333-25.6-16-38.4-16h-273.067c-10.666 0-19.2 5.334-29.867 14.933-4.266 4.267-7.466 9.6-9.6 16-3.2 9.6-3.2 21.334-3.2 37.334 0 102.4 82.133 185.6 183.466 185.6s183.466-83.2 183.466-185.6c-1.067-13.866-2.134-23.466-3.2-32zM101.334 104.534h21.334c0 8.534 1.067 18.134 2.133 26.667l-20.267 4.266c-2.133-9.6-3.2-20.266-3.2-30.933zM115.2 169.6l19.2-8.534c3.2 8.534 7.466 16 12.8 22.4l-17.066 11.733c-6.4-7.466-10.666-17.066-14.933-25.6zM153.6 221.867l13.867-16c6.4 5.333 13.867 10.667 21.334 16l-10.666 18.133c-9.6-5.333-17.066-10.666-24.534-18.133zM238.934 261.334c-9.6-1.066-20.267-3.2-29.867-6.4l6.4-20.267c8.534 2.133 17.066 4.267 25.6 5.333l-2.133 21.333zM304 254.934c-9.6 3.2-19.2 5.334-29.866 6.4l-2.134-21.334c8.534-1.066 17.067-3.2 25.6-5.333l6.4 20.267zM365.866 183.467c5.334-7.466 9.6-14.934 12.8-22.4l19.2 8.534c-4.267 9.6-9.6 18.133-14.933 26.667l-17.067-12.8zM390.4 104.534h21.334c0 10.667-1.067 20.267-3.2 29.866l-20.267-4.266c1.067-7.466 2.134-16 2.134-25.6zM362.666 222.934l-13.866-16c-6.4 5.333-13.866 10.667-21.334 16l10.666 18.133c8.534-5.333 17.067-10.666 24.534-18.133zM314.666 178.134l17.067 35.2-28.8-25.6c-11.733 8.534-26.666 12.8-42.666 12.8-41.6 0-75.733-33.066-75.733-73.6s34.133-73.6 75.733-73.6c41.6 0 75.733 33.067 75.733 73.6-1.067 20.267-9.6 37.334-21.334 51.2zM245.333 105.6h-6.4v-13.866c0-2.134-2.133-4.266-4.267-4.266s-4.267 1.067-4.267 4.266v13.866h-23.466c-2.133 0-4.267 1.067-4.267 3.2v1.067c0 1.067 0 1.067 0 2.134l22.4 52.266c1.066 2.133 2.133 2.133 3.2 2.133 2.133 0 4.267-1.066 4.267-4.267 0-1.066 0-1.066 0-2.133l-21.333-48h18.133v10.666c0 2.134 2.133 4.267 4.267 4.267s4.267-1.067 4.267-4.267v-10.666h7.466c2.133 0 4.267-2.134 4.267-4.267 0 0-2.133-2.134-4.267-2.134zM307.2 109.866c0-12.8-9.6-22.4-22.4-22.4h-1.067c-12.8 0-22.4 9.6-22.4 21.334v36.266c0 12.8 9.6 22.4 22.4 22.4h1.067c11.733 0 21.334-7.466 22.4-18.133 0-3.2-2.134-4.267-4.267-4.267s-3.2 1.067-4.267 3.2c-1.067 7.466-6.4 12.8-14.933 12.8h-1.067c-8.534 0-13.866-6.4-13.866-13.867v-36.266c0-8.534 5.334-13.866 13.866-13.866h1.067c8.534 0 13.866 6.4 13.866 13.866v14.933h-10.666c-2.134 0-4.267 2.134-4.267 4.266s1.067 4.267 4.267 4.267h14.933c2.134 0 4.267-2.134 4.267-4.267v-20.266z" />
<glyph unicode="&#xe603;" glyph-name="icon-add-ons" d="M365.866 138.667h-55.466v57.6c0 9.6-8.534 18.133-18.134 18.133s-18.134-8.534-18.134-18.133v-57.6h-55.466c-9.6 0-18.133-7.466-18.133-18.134s8.534-18.134 18.133-18.134h55.466v-53.334c0-9.6 8.534-18.134 18.134-18.134s18.134 7.466 18.134 18.134v53.334h55.466c9.6 0 18.134 7.466 18.134 18.134s-8.534 18.134-18.134 18.134zM417.067 288h-21.334v21.334c0 28.8-23.466 52.267-52.267 52.267h-248.534c-28.8-1.067-52.267-23.466-52.267-52.267v-225.066c0-28.8 23.467-52.267 52.267-52.267h21.334v-21.333c0-28.8 23.467-52.267 52.266-52.267h249.6c28.8 0 52.267 23.466 52.267 52.267v225.066c-1.067 28.8-24.534 52.267-53.334 52.267zM116.266 235.734v-169.6h-21.334c-9.6 0-18.133 7.466-18.133 18.134v225.067c0 9.6 8.534 18.134 18.133 18.134h249.6c9.6 0 18.134-8.534 18.134-18.134v-21.334h-195.2c-28.8 0-51.2-23.466-51.2-52.266zM435.2 10.667c0-9.6-8.534-18.134-18.134-18.134h-249.6c-9.6 0-18.133 8.534-18.133 18.134v225.066c0 9.6 8.534 18.133 18.133 18.133h249.6c9.6 0 18.134-7.466 18.134-18.133v-225.066z" />
<glyph unicode="&#xe604;" glyph-name="icon-alerts-reminders" d="M149.333 224h-1.066c-16 0-30.933-8.534-30.933-27.733 0-6.4 5.334-9.6 10.666-9.6s10.666 2.133 10.666 8.534c0 6.4 5.333 8.534 10.666 8.534v0c5.333 0 10.666-3.2 10.666-9.6v-4.267c0-12.8-6.4-12.8-16-12.8-7.466 0-10.666-5.333-10.666-9.6 0-5.333 3.2-9.6 10.666-9.6 10.666 0 16-1.067 16-13.866v-11.734c0-5.333-4.267-9.6-10.666-9.6h-3.2c-5.333 0-10.666 4.267-10.666 9.6 0 6.4-5.333 8.534-10.666 8.534s-10.666-2.134-10.666-8.534c0-18.134 13.867-28.8 30.934-28.8h4.267c17.066 0 30.934 10.666 30.934 28.8v11.734c0 10.666-2.133 18.133-7.466 24.533 4.267 5.333 7.466 11.733 7.466 23.466v4.267c0 20.267-14.934 27.733-30.934 27.733zM232.534 224h-6.4c-2.133 0-4.267 0-7.466-4.267 0 0-13.867-18.133-16-22.4-2.133-3.2-2.133-5.333-2.133-7.466 0-5.333 4.267-9.6 10.666-9.6 5.333 0 7.466 3.2 8.534 4.267l3.2 4.267v-76.8c0-6.4 5.333-9.6 10.666-9.6s10.666 3.2 10.666 9.6v101.334c-1.066 6.4-6.4 10.666-11.733 10.666zM366.933 152.534c-13.866 0-27.733-3.2-39.466-7.466v145.067c0 19.2-16 35.2-36.267 35.2h-10.666v13.867c0 19.2-16 34.133-35.2 34.133s-36.267-14.933-36.267-34.133v-12.8h-46.934v12.8c0 19.2-17.066 34.133-36.267 34.133-20.267 0-36.267-14.933-36.267-34.133v-12.8h-10.666c-20.267 0-36.267-16-36.267-36.267v-204.8c0-19.2 16-35.2 36.267-35.2h184.534c0-56.534 45.866-102.4 102.4-102.4s102.4 45.866 102.4 102.4c1.067 55.466-44.8 102.4-101.334 102.4zM232.534 339.2c0 4.266 7.466 10.666 11.733 10.666s11.733-5.334 11.733-10.666v-12.8h-24.534v12.8zM114.133 339.2c0 4.266 7.466 10.666 11.733 10.666s11.733-5.334 11.733-10.666v-12.8h-23.466v12.8zM66.133 292.267c0 5.334 4.266 9.6 9.6 9.6h214.4c5.334 0 12.8-3.2 12.8-8.534v-14.934h-236.8v13.867zM75.734 73.6c-5.334 0-9.6 4.267-9.6 9.6v171.734h236.8v-124.8c-18.134-13.866-30.933-34.134-36.267-57.6h-190.934zM366.933-29.866c-43.733 0-78.933 35.2-78.933 78.933s35.2 78.933 78.933 78.933c43.733 0 78.933-35.2 78.933-78.933s-35.2-78.933-78.933-78.933zM382.933 52.267v37.333c0 8.534-7.466 16-16 16s-16-7.466-16-16v-39.466c0-3.2 1.067-5.333 2.134-7.466 0-3.2 2.134-6.4 4.267-9.6l20.267-20.266c6.4-6.4 16-6.4 22.4 0s6.4 16 0 22.4l-17.067 17.067z" />
<glyph unicode="&#xe605;" glyph-name="icon-anti-spam" d="M466.134 325.334c-5.334 6.4-14.933 7.466-21.334 2.134l-36.267-28.8c-6.4 4.267-13.866 6.4-22.4 6.4h-215.466c-12.8 0-23.466-5.333-32-13.866 0 0 0 0-1.066-1.067 0 0 0 0 0 0-6.4-7.466-10.666-17.067-10.666-27.733v-29.867h-41.6c-12.8 0-23.466-5.333-32-13.867 0 0 0 0-1.066-1.066 0 0 0 0 0 0-6.4-7.466-10.666-17.066-10.666-27.733v-112c0-20.267 13.867-37.334 33.066-41.6l-26.666-21.334c-6.4-5.333-7.466-14.933-2.133-21.333 3.2-4.267 7.466-5.334 11.733-5.334 3.2 0 6.4 1.067 9.6 3.2l55.467 43.733h178.133c23.466 0 42.666 19.2 42.666 42.667v29.866h42.666c23.466 0 42.666 19.2 42.666 42.666v112c0 4.267-1.067 8.534-2.134 11.734l36.267 28.8c7.466 6.4 8.534 16 3.2 22.4zM378.666 277.334l-59.733-48c-5.334 2.133-11.733 4.267-18.134 4.267h-66.133l-55.466 43.733h199.466zM156.8 259.2l32-25.6h-32v25.6zM293.334 204.8l-92.8-73.6c-4.267-3.2-9.6-3.2-13.867 0l-93.867 74.667h200.534zM314.666 113.067v-34.134c0-7.466-6.4-13.866-13.866-13.866h-215.466c-7.466 0-13.867 6.4-13.867 13.866v107.734l99.2-78.933c7.466-5.334 14.934-7.466 23.466-7.466s17.066 3.2 24.534 8.534l97.067 77.866v-73.6zM400 185.6v-34.134c0-7.466-6.4-13.866-13.866-13.866h-42.666v54.4c0 6.4-2.134 12.8-4.267 19.2l60.8 49.067v-74.667z" />
<glyph unicode="&#xe606;" glyph-name="icon-anti-virus" d="M453.334 176h-22.4c-7.466 83.2-74.666 150.4-157.867 157.867v23.466c-1.067 8.534-8.534 16-17.067 16s-16-7.466-16-16v-22.4c-83.2-7.466-150.4-74.666-157.867-157.866h-23.466c-8.534-1.066-16-8.534-16-17.066s7.466-16 16-16h23.466c7.466-83.2 74.667-150.4 157.867-157.866v-22.4c0-8.534 7.466-16 16-16s16 7.466 16 16v22.4c83.2 7.466 150.4 74.667 157.866 157.866h22.4c8.534 0 16 7.466 16 16 1.067 8.534-6.4 16-14.933 16zM272 14.933v105.6c0 8.534-7.466 16-16 16s-16-7.466-16-16v-105.6c-67.2 7.466-120.534 60.8-128 128h105.6c8.534 0 16 7.466 16 16s-7.466 16-16 16h-105.6c7.466 67.2 60.8 120.533 128 128v-106.666c0-8.534 7.466-16 16-16s16 7.466 16 16v106.667c67.2-7.466 120.534-60.8 128-128h-105.6c-8.534 0-16-7.466-16-16s7.466-16 16-16h106.666c-7.466-66.134-61.867-120.534-129.066-128z" />
<glyph unicode="&#xe607;" glyph-name="icon-application-ngdr" d="M423.466 361.6h-334.933c-25.6 0-45.867-20.267-45.867-44.8v-312.534c0-25.6 20.267-45.867 45.867-45.867h336c25.6 0 45.866 20.267 45.866 45.866v312.534c-1.067 24.534-21.334 44.8-46.933 44.8zM434.134 3.2c0-6.4-5.334-10.667-10.666-10.667h-289.067l73.6 73.6 37.333-37.333c3.2-3.2 7.466-4.267 11.733-4.267s8.534 2.134 11.733 4.267l85.334 85.333v-24.534c0-8.534 7.466-16 16-16 0 0 0 0 0 0 8.534 0 16 7.466 16 16v64c0 8.534-7.466 16-16 16h-64c0 0 0 0 0 0-8.534 0-16-7.466-16-16s7.466-16 16-16h24.534l-74.666-74.666-37.334 37.333c-3.2 3.2-7.466 4.267-11.733 4.267s-8.534-2.134-11.733-4.267l-106.666-106.666c-6.4 0-10.666 5.333-10.666 10.666v214.4h357.333v-215.467zM434.134 252.8h-356.267v64c0 6.4 5.334 10.666 10.666 10.666h336c6.4 0 10.666-5.334 10.666-10.666v-64zM387.2 304c-3.2-3.2-5.334-8.534-5.334-12.8s2.134-9.6 5.334-12.8c3.2-3.2 8.534-5.334 12.8-5.334s9.6 2.134 12.8 5.334c3.2 3.2 5.334 7.466 5.334 12.8 0 4.266-2.134 9.6-5.334 12.8-6.4 6.4-19.2 6.4-25.6 0z" />
<glyph unicode="&#xe608;" glyph-name="icon-application-site-minder" d="M423.466 361.6h-334.933c-25.6 0-45.867-20.267-45.867-44.8v-312.534c0-25.6 20.267-45.867 45.867-45.867h336c25.6 0 45.866 20.267 45.866 45.866v312.534c-1.067 24.534-21.334 44.8-46.933 44.8zM434.134 3.2c0-6.4-5.334-10.667-10.666-10.667h-334.933c-6.4 0-10.666 5.334-10.666 10.667v215.466h357.334v-215.466zM434.134 252.8h-356.267v64c0 6.4 5.334 10.666 10.666 10.666h336c6.4 0 10.666-5.334 10.666-10.666v-64zM387.2 304c-3.2-3.2-5.334-8.534-5.334-12.8s2.134-9.6 5.334-12.8c3.2-3.2 8.534-5.334 12.8-5.334s9.6 2.134 12.8 5.334c3.2 3.2 5.334 7.466 5.334 12.8 0 4.266-2.134 9.6-5.334 12.8-6.4 6.4-19.2 6.4-25.6 0zM193.066 54.4h-2.133c-11.733 0-19.2 6.4-19.2 19.2 0 8.534-6.4 12.8-12.8 12.8s-12.8-4.266-12.8-12.8c0-27.734 20.267-44.8 44.8-44.8h2.133c25.6 0 45.867 17.067 45.867 42.667 0 45.866-65.067 53.333-65.067 71.466v3.2c0 8.534 7.466 13.867 17.066 13.867h2.133c10.666 0 18.133-4.267 18.133-10.666 0-8.534 6.4-11.734 12.8-11.734s12.8 4.267 12.8 12.8c0 21.333-20.267 36.266-43.733 36.266h-2.133c-19.2 0-43.733-13.867-43.733-38.4v-4.266c0-40.534 65.067-43.734 65.067-71.466 0-12.8-8.534-18.134-19.2-18.134zM262.4 28.8c6.4 0 12.8 4.266 12.8 12.8v82.134l19.2-43.733c3.2-7.466 8.534-8.534 12.8-8.534s9.6 1.067 12.8 8.534l19.2 43.733v-82.134c0-8.534 6.4-12.8 12.8-12.8s12.8 4.266 12.8 12.8v131.2c0 6.4-6.4 12.8-12.8 12.8h-3.2c-8.534 0-11.733-5.333-13.866-10.666l-27.733-62.933-27.733 62.933c-3.2 6.4-5.334 10.667-13.866 11.733h-3.2c-6.4 0-12.8-6.4-12.8-12.8v-131.2c0-9.6 6.4-13.866 12.8-13.866z" />
<glyph unicode="&#xe609;" glyph-name="icon-application-uc" d="M423.466 361.6h-334.933c-25.6 0-45.867-20.267-45.867-44.8v-312.534c0-25.6 20.267-45.867 45.867-45.867h336c25.6 0 45.866 20.267 45.866 45.866v312.534c-1.067 24.534-21.334 44.8-46.933 44.8zM88.534 327.466h336c6.4 0 10.666-5.333 10.666-10.666v-62.933h-357.334v62.934c0 5.333 4.266 10.666 10.666 10.666zM423.466-7.466h-334.933c-6.4 0-10.666 5.334-10.666 10.667v215.466h357.334v-214.4c-1.067-6.4-5.334-11.733-11.733-11.733zM400 273.067c4.267 0 9.6 2.134 12.8 5.333s5.334 8.534 5.334 12.8c0 5.334-2.134 9.6-5.334 12.8-6.4 6.4-19.2 6.4-25.6 0-3.2-3.2-5.334-8.534-5.334-12.8s2.134-9.6 5.334-12.8c3.2-4.266 7.466-5.333 12.8-5.333zM236.8 185.6c-6.4 0-12.8-4.267-12.8-12.8v-99.2c0-10.667-8.534-19.2-19.2-19.2h-2.133c-10.667 0-19.2 8.534-19.2 19.2v99.2c0 8.534-6.4 12.8-12.8 12.8s-12.8-4.267-12.8-12.8v-99.2c0-24.534 20.267-44.8 44.8-44.8h2.133c24.534 0 44.8 20.267 44.8 44.8v99.2c0 8.534-6.4 12.8-12.8 12.8zM310.4 160h2.134c9.6 0 17.067-6.4 19.2-14.934 1.067-7.466 6.4-11.733 12.8-11.733s12.8 4.266 12.8 12.8c0 1.067 0 2.134 0 2.134-3.2 22.4-21.334 37.334-43.733 37.334h-2.134c-24.534 0-44.8-19.2-44.8-43.734v-69.333c0-24.534 20.267-43.734 44.8-43.734h2.134c22.4 0 40.534 14.933 44.8 37.334v2.134c0 8.534-6.4 12.8-12.8 12.8-5.334 0-10.666-3.2-12.8-10.666-1.067-9.6-9.6-14.933-19.2-14.933h-2.134c-10.666 0-19.2 7.466-19.2 18.134v69.333c-1.067 9.6 7.466 17.067 18.134 17.067z" />
<glyph unicode="&#xe60a;" glyph-name="icon-application-vistabridge" d="M423.466 361.6h-334.933c-25.6 0-45.867-20.267-45.867-44.8v-312.534c0-25.6 20.267-45.867 45.867-45.867h336c25.6 0 45.866 20.267 45.866 45.866v312.534c-1.067 24.534-21.334 44.8-46.933 44.8zM434.134 3.2c0-6.4-5.334-10.667-10.666-10.667h-334.933c-6.4 0-10.666 5.334-10.666 10.667v215.466h357.334v-215.466zM434.134 252.8h-356.267v64c0 6.4 5.334 10.666 10.666 10.666h336c6.4 0 10.666-5.334 10.666-10.666v-64zM387.2 304c-3.2-3.2-5.334-8.534-5.334-12.8s2.134-9.6 5.334-12.8c3.2-3.2 8.534-5.334 12.8-5.334s9.6 2.134 12.8 5.334c3.2 3.2 5.334 7.466 5.334 12.8 0 4.266-2.134 9.6-5.334 12.8-6.4 6.4-19.2 6.4-25.6 0zM187.733 39.466c1.066-6.4 6.4-10.666 14.934-10.666 7.466 0 12.8 4.266 14.934 10.666l32 131.2c0 1.066 0 2.133 0 3.2 0 7.466-6.4 12.8-12.8 12.8-5.333 0-10.666-3.2-12.8-9.6l-21.334-89.6-21.334 89.6c-1.066 7.466-6.4 9.6-11.733 9.6-7.466 0-13.867-4.267-13.867-12.8 0-1.066 0-2.133 0-3.2l32-131.2zM270.933 29.866h32c24.534 0 44.8 19.2 44.8 44.8v2.134c0 14.933-7.466 24.534-16 33.067 8.534 8.534 13.866 17.067 13.866 32 0 24.533-18.134 42.666-43.733 42.666h-32c-6.4 0-12.8-6.4-12.8-12.8v-129.066c1.067-6.4 7.466-12.8 13.866-12.8zM284.8 158.934h19.2c9.6 0 17.067-6.4 17.067-17.067 0-11.733-7.466-19.2-17.067-19.2h-19.2v36.266zM283.733 96h19.2c9.6 0 19.2-8.534 19.2-20.266v-1.067c0-10.667-8.534-19.2-19.2-19.2h-19.2v40.534z" />
<glyph unicode="&#xe60b;" glyph-name="icon-application-vistacockpit" d="M423.466 361.6h-334.933c-25.6 0-45.867-20.267-45.867-44.8v-312.534c0-25.6 20.267-45.867 45.867-45.867h336c25.6 0 45.866 20.267 45.866 45.866v312.534c-1.067 24.534-21.334 44.8-46.933 44.8zM434.134 3.2c0-6.4-5.334-10.667-10.666-10.667h-334.933c-6.4 0-10.666 5.334-10.666 10.667v215.466h357.334v-215.466zM434.134 252.8h-356.267v64c0 6.4 5.334 10.666 10.666 10.666h336c6.4 0 10.666-5.334 10.666-10.666v-64zM387.2 304c-3.2-3.2-5.334-8.534-5.334-12.8s2.134-9.6 5.334-12.8c3.2-3.2 8.534-5.334 12.8-5.334s9.6 2.134 12.8 5.334c3.2 3.2 5.334 7.466 5.334 12.8 0 4.266-2.134 9.6-5.334 12.8-6.4 6.4-19.2 6.4-25.6 0zM188.8 39.466c1.066-6.4 6.4-10.666 14.934-10.666 7.466 0 12.8 4.266 14.934 10.666l32 131.2c0 1.066 0 2.133 0 3.2 0 7.466-6.4 12.8-12.8 12.8-5.333 0-10.666-3.2-12.8-9.6l-21.334-89.6-21.334 89.6c-1.066 7.466-6.4 9.6-11.733 9.6-6.4 0-13.867-4.267-13.867-12.8 0-1.066 0-2.133 0-3.2l32-131.2zM301.866 28.8h2.134c22.4 0 40.534 14.933 44.8 37.333v2.134c0 8.534-6.4 12.8-12.8 12.8-5.334 0-10.666-3.2-12.8-10.667-1.067-9.6-9.6-14.933-19.2-14.933h-2.134c-10.666 0-19.2 7.466-19.2 18.134v69.334c0 10.666 8.534 18.133 19.2 18.133h2.134c9.6 0 17.067-6.4 19.2-14.934 1.067-7.466 6.4-10.666 12.8-10.666s12.8 4.266 12.8 12.8c0 1.067 0 2.134 0 2.134-3.2 22.4-21.334 37.334-43.733 37.334h-2.134c-24.534 0-44.8-19.2-44.8-43.734v-69.333c0-27.734 20.267-45.867 43.733-45.867z" />
<glyph unicode="&#xe60c;" glyph-name="icon-application-vistamart" d="M423.466 361.6h-334.933c-25.6 0-45.867-20.267-45.867-44.8v-312.534c0-25.6 20.267-45.867 45.867-45.867h336c25.6 0 45.866 20.267 45.866 45.866v312.534c-1.067 24.534-21.334 44.8-46.933 44.8zM434.134 3.2c0-6.4-5.334-10.667-10.666-10.667h-334.933c-6.4 0-10.666 5.334-10.666 10.667v215.466h357.334v-215.466zM434.134 252.8h-356.267v64c0 6.4 5.334 10.666 10.666 10.666h336c6.4 0 10.666-5.334 10.666-10.666v-64zM387.2 304c-3.2-3.2-5.334-8.534-5.334-12.8s2.134-9.6 5.334-12.8c3.2-3.2 8.534-5.334 12.8-5.334s9.6 2.134 12.8 5.334c3.2 3.2 5.334 7.466 5.334 12.8 0 4.266-2.134 9.6-5.334 12.8-6.4 6.4-19.2 6.4-25.6 0zM174.934 39.466c1.066-6.4 6.4-10.666 14.934-10.666 7.466 0 12.8 4.266 14.934 10.666l32 131.2c0 1.066 0 2.133 0 3.2 0 7.466-6.4 12.8-12.8 12.8-5.333 0-10.667-3.2-12.8-9.6l-21.333-89.6-21.334 89.6c-1.066 6.4-7.466 9.6-11.733 9.6-6.4 0-13.867-4.267-13.867-12.8 0-1.066 0-2.133 0-3.2l32-131.2zM258.134 28.8c6.4 0 12.8 4.266 12.8 12.8v82.134l19.2-43.733c3.2-7.466 8.534-8.534 12.8-8.534s9.6 1.067 12.8 8.534l19.2 43.733v-82.134c0-8.534 6.4-12.8 12.8-12.8s12.8 4.266 12.8 12.8v131.2c0 7.466-6.4 12.8-12.8 12.8h-3.2c-8.534 0-11.733-5.333-13.866-10.666l-27.733-62.933-27.733 62.933c-3.2 6.4-5.334 10.667-13.866 11.733h-3.2c-7.466 0-12.8-6.4-12.8-12.8v-131.2c0-9.6 6.4-13.866 12.8-13.866z" />
<glyph unicode="&#xe60d;" glyph-name="icon-apps-24x7" d="M349.866 373.334h-187.733c-27.733 0-50.133-22.4-50.133-50.133v-327.466c0-27.734 22.4-50.134 50.133-50.134h186.666c27.733 0 50.134 22.4 50.134 50.134v327.466c0 27.734-22.4 50.134-49.067 50.134zM365.866-3.2c0-8.534-7.466-16-16-16h-187.733c-8.534 0-16 7.466-16 16v326.4c0 8.534 7.466 16 16 16h186.666c8.534 0 16-7.466 16-16v-326.4zM177.066 35.2c-3.2-3.2-5.333-7.466-5.333-11.734s2.133-8.534 5.333-11.733c3.2-3.2 7.466-5.334 11.733-5.334s8.534 2.134 11.733 5.334c3.2 3.2 5.333 7.466 5.333 11.733s-2.133 8.534-5.333 11.734c-5.333 5.333-17.066 5.333-23.466 0zM244.267 35.2c-3.2-3.2-5.333-7.466-5.333-11.734s2.133-8.534 5.333-11.733c3.2-3.2 7.466-5.334 11.733-5.334s8.534 2.134 11.733 5.334c3.2 3.2 5.334 7.466 5.334 11.733s-2.134 8.534-5.334 11.734c-6.4 5.333-17.066 5.333-23.466 0zM310.4 35.2c-3.2-3.2-5.334-7.466-5.334-11.734s2.134-8.534 5.334-11.733c3.2-3.2 7.466-5.334 11.733-5.334s8.534 2.134 11.733 5.334c3.2 3.2 5.334 7.466 5.334 11.733s-2.134 8.534-5.334 11.734c-6.4 5.333-17.067 5.333-23.466 0zM333.866 314.667h-155.733c-3.2 0-6.4-3.2-6.4-6.4v-185.6c0-3.2 3.2-6.4 6.4-6.4h14.934v124.8h25.6v-125.867h25.6v162.134h23.467v-161.067h25.6v81.067h23.466v-81.067h16c3.2 0 6.4 3.2 6.4 6.4v185.6c1.067 3.2-2.134 6.4-5.334 6.4z" />
<glyph unicode="&#xe60e;" glyph-name="icon-audio-web" d="M380.8 77.866c10.666 11.734 16 26.667 16 42.667 0 35.2-28.8 64-64 64s-62.933-28.8-62.933-64c0-16 6.4-30.933 16-42.667-9.6-5.333-21.334-14.933-30.934-28.8-10.667 13.866-22.4 23.466-30.934 28.8 10.666 11.734 16 26.667 16 42.667 0 35.2-28.8 64-64 64s-64-28.8-64-64c0-16 6.4-30.933 16-42.667-20.267-12.8-54.4-42.666-54.4-105.6 0-14.933 11.733-26.666 26.666-26.666h150.4c1.066 0 2.133 0 3.2 0s2.133 0 3.2 0h150.4c14.933 0 26.666 11.733 26.666 26.666 1.067 62.933-32 92.8-53.334 105.6zM256-30.933c-1.066-1.067-2.133-1.067-3.2-1.067h-150.4c-3.2 0-5.334 2.134-5.334 5.334 0 73.6 53.334 92.8 55.467 92.8 4.267 1.067 6.4 4.267 7.466 8.534 0 4.267-1.066 7.466-4.267 9.6-12.8 7.466-20.267 21.334-20.267 36.267 0 23.466 19.2 42.666 42.666 42.666s42.666-19.2 42.666-42.666c0-14.933-7.466-28.8-20.267-36.267-3.2-2.134-5.333-6.4-4.267-9.6 0-4.266 3.2-7.466 7.466-8.534 1.066 0 25.6-9.6 41.6-36.266 5.333-8.534 9.6-19.2 11.734-32 1.067-7.466 2.134-16 2.134-24.534-1.067-2.134-2.134-3.2-3.2-4.267zM409.6-32h-131.2c0 2.134 1.067 3.2 1.067 5.334 0 22.4-4.267 41.6-11.733 56.534 16 27.733 39.466 36.266 41.6 36.266 4.267 1.067 6.4 4.267 7.466 8.534 0 4.267-1.067 7.466-4.267 9.6-12.8 7.466-20.267 21.334-20.267 36.267 0 23.466 19.2 42.666 42.666 42.666s42.666-19.2 42.666-42.666c0-14.933-7.466-28.8-20.267-36.267-3.2-1.067-5.334-5.333-5.334-9.6s3.2-7.466 7.466-8.534c2.134-1.067 55.466-20.266 55.466-92.8 0-3.2-3.2-5.334-5.334-5.334zM126.933 211.2c1.067 0 2.134-1.066 4.266-1.066s5.333 1.066 6.4 3.2l21.333 21.333h83.2c12.8 0 22.4 8.534 26.666 19.2 0 0 0 0 1.067 0h82.134l21.334-21.334c2.134-2.133 4.267-3.2 6.4-3.2 1.067 0 2.134 0 4.267 1.066 3.2 1.066 6.4 5.333 6.4 8.534v106.666c0 14.934-12.8 27.733-28.8 27.733h-91.733c-18.133 0-25.6-8.534-27.733-19.2 0 0-1.066 0-1.066 0h-91.734c-16 0-28.8-12.8-28.8-27.733v-105.6c0-4.267 3.2-7.466 6.4-9.6zM269.866 354.134h91.733c5.334 0 8.534-4.267 8.534-8.534v-83.2l-7.466 7.466c-2.134 2.134-4.267 3.2-6.4 3.2h-85.334c0 0 0 0-1.067 0v53.333c0 8.534-2.134 17.067-7.466 21.334 0 4.267 3.2 6.4 7.466 6.4zM140.8 326.4c0 4.267 4.267 8.534 8.534 8.534h91.733c0 0 0 0 1.066 0 4.267 0 8.534-4.267 8.534-8.534v-64c0-4.267-4.267-8.534-8.534-8.534h-85.333c-2.133 0-5.333-1.066-6.4-3.2l-8.534-7.466v83.2z" />
<glyph unicode="&#xe60f;" glyph-name="icon-backup" d="M396.8 54.4c-2.134-2.134-4.267-6.4-4.267-9.6 0-4.266 1.067-7.466 4.267-9.6 3.2-3.2 6.4-4.266 10.666-4.266s7.466 1.067 10.666 4.266c2.134 2.134 4.267 6.4 4.267 9.6s-1.067 7.466-4.267 9.6c-6.4 5.334-16 5.334-21.334 0zM429.866 151.466h-347.733c-21.334 0-39.467-18.134-39.467-39.466v-92.8c0-21.334 18.134-39.466 39.467-39.466h347.733c21.334 0 39.466 18.134 39.466 39.466v92.8c0 21.334-18.134 39.466-39.466 39.466zM440.534 18.134c0-6.4-5.334-10.666-10.666-10.666h-347.733c-6.4 0-10.666 5.333-10.666 10.666v92.8c0 6.4 5.334 10.666 10.666 10.666h347.733c6.4 0 10.666-5.333 10.666-10.666v-92.8zM274.134 58.667h-169.6c-7.466 0-13.867-6.4-13.867-13.866s6.4-13.866 13.867-13.866h168.533c7.466 0 13.866 6.4 13.866 13.866 1.067 7.466-5.334 13.866-12.8 13.866zM274.134 100.267h-169.6c-7.466 0-13.867-6.4-13.867-13.866s6.4-13.866 13.867-13.866h168.533c7.466 0 13.866 6.4 13.866 13.866 1.067 7.466-5.334 13.866-12.8 13.866zM245.333 182.4c2.133-3.2 6.4-4.267 9.6-4.267 0 0 0 0 0 0 4.267 0 7.466 1.066 9.6 4.267l55.466 54.4c5.334 5.333 5.334 14.934 0 20.266s-14.933 5.334-20.267 0l-30.933-30.933v100.267c1.067 8.534-5.334 14.933-12.8 14.933s-13.867-6.4-13.867-13.867v-99.2l-29.867 29.867c-5.333 5.333-14.934 5.333-20.267 0s-5.333-14.934 0-20.267l53.334-55.466z" />
<glyph unicode="&#xe610;" glyph-name="icon-backup-safe" d="M395.733 373.334h-279.466c-27.733 0-50.133-22.4-50.133-50.133v-295.466c0-22.4 14.933-41.6 35.2-48v-17.067c0-8.534 7.466-16 16-16s16 7.466 16 16v16h244.267v-14.933c0-8.534 7.466-16 16-16s16 7.466 16 16v17.067c20.267 6.4 35.2 25.6 35.2 48v294.4c1.067 27.733-21.334 50.133-49.067 50.133zM412.8 28.8c0-9.6-7.466-17.067-17.067-17.067h-279.466c-9.6 0-17.067 7.466-17.067 17.067v294.4c0 9.6 7.466 17.066 17.067 17.066h280.534c9.6 0 17.067-7.466 17.067-17.066v-294.4zM170.667 220.8c-14.934 0-26.667-11.733-26.667-26.666 0-8.534 4.267-16 9.6-20.267v-46.933c0-8.534 7.466-16 16-16 9.6 0 16 7.466 16 16v46.933c6.4 5.333 9.6 11.733 9.6 20.267 1.066 14.934-10.666 26.667-24.534 26.667zM299.733 262.4c-9.6 0-19.2-2.133-28.8-5.334-38.4-16-57.6-60.8-41.6-99.2 11.733-28.8 39.467-46.933 70.4-46.933 9.6 0 19.2 2.134 28.8 5.333 19.2 7.466 33.067 22.4 41.6 40.534 7.466 19.2 7.466 39.466 0 58.666-11.733 28.8-39.466 46.934-70.4 46.934zM341.334 169.6c-4.267-10.667-12.8-19.2-24.534-24.534-5.334-2.134-10.666-3.2-17.067-3.2-18.134 0-34.133 10.666-41.6 27.733-9.6 22.4 2.134 49.066 24.534 58.666 5.334 2.133 10.666 3.2 17.067 3.2 18.134 0 34.133-10.666 41.6-27.733 4.267-10.666 4.267-23.466 0-34.133z" />
<glyph unicode="&#xe611;" glyph-name="icon-bill-date" d="M232.534 248.534h71.466c8.534 0 16 7.466 16 16s-7.466 16-16 16h-70.4c-8.534 0-16-7.466-16-16 0-9.6 6.4-16 14.934-16zM147.2 178.134h155.733c8.534 0 16 7.466 16 16s-6.4 16-16 16h-155.733c-8.534 0-16-7.466-16-16 1.066-9.6 7.466-16 16-16zM302.933 147.2h-155.733c-8.534 0-16-7.466-16-16s7.466-16 16-16h151.466c4.267 4.266 9.6 6.4 16 6.4h1.067c2.134 2.134 3.2 5.333 3.2 9.6 0 8.534-7.466 16-16 16zM358.4 56.534v0c-10.666 0-19.2-5.333-19.2-17.067 0-4.266 3.2-6.4 6.4-6.4s6.4 2.134 6.4 5.334c0 4.266 3.2 5.333 6.4 5.333v0c3.2 0 6.4-2.134 6.4-6.4v-2.134c0-3.2 0-4.266-1.067-5.333-2.134-2.134-4.267-2.134-8.534-2.134s-6.4-3.2-6.4-6.4 2.134-6.4 6.4-6.4c6.4 0 9.6-1.067 9.6-8.534v-7.466c0-3.2-3.2-6.4-6.4-6.4h-2.134c-3.2 0-6.4 2.134-6.4 5.333 0 4.267-3.2 5.334-6.4 5.334s-6.4-1.067-6.4-5.334c0-11.733 8.534-18.134 19.2-18.134h2.134c10.666 0 19.2 6.4 19.2 18.134v7.466c0 6.4-1.067 11.734-4.267 14.933 2.134 2.134 4.267 6.4 4.267 11.734 0 1.067 0 1.067 0 2.134v2.134c-1.067 14.933-9.6 20.266-19.2 20.266zM408.534 56.534h-3.2c0 0 0 0-1.067 0s-3.2 0-4.267-3.2c0 0-8.534-11.734-9.6-13.866s-1.067-3.2-1.067-4.267c0-3.2 3.2-6.4 6.4-6.4s4.267 2.134 5.334 3.2l2.134 2.134v-48c0-4.267 3.2-6.4 6.4-6.4s6.4 2.134 6.4 6.4v64c-1.067 3.2-3.2 6.4-7.466 6.4zM444.8 121.6h-4.267v6.4c0 11.734-9.6 21.334-21.334 21.334-5.334 0-9.6-2.134-12.8-4.267v181.334c-1.067 25.6-22.4 46.933-48 46.933h-196.267l-117.334-116.267v-181.333c0-25.6 21.334-46.933 46.933-46.933h200.533v-59.733c0-11.734 9.6-22.4 22.4-22.4h130.134c12.8 0 22.4 9.6 22.4 22.4v131.2c0 11.734-10.666 21.334-22.4 21.334zM413.866 128c0 3.2 2.134 5.334 5.334 5.334s5.334-2.134 5.334-5.334v-6.4h-10.666v6.4zM292.267 100.267v-40.534h-200.534c-8.534 0-16 7.466-16 16v149.333h85.334c17.066 0 32 13.867 32 32v85.334h165.333c8.534 0 16-7.466 16-16v-204.8h-11.733v6.4c0 11.733-9.6 21.333-21.334 21.333s-21.334-9.6-21.334-21.333v-6.4h-5.334c-6.4 0-11.733-2.134-16-6.4-3.2-3.2-6.4-9.6-6.4-14.933zM345.6 128v-6.4h-10.666v6.4c0 3.2 2.134 5.334 5.334 5.334s5.334-2.134 5.334-5.334zM451.2-30.933c0-3.2-3.2-6.4-6.4-6.4h-130.133c-3.2 0-6.4 3.2-6.4 6.4v105.6h142.933v-105.6zM451.2 90.667h-141.867v9.6c0 3.2 2.134 6.4 6.4 6.4h129.067c3.2 0 6.4-2.134 6.4-6.4v-9.6z" />
<glyph unicode="&#xe612;" glyph-name="icon-bill-edit-details" d="M230.4 246.4h71.466c8.534 0 16 7.466 16 16s-7.466 16-16 16h-70.4c-8.534 0-16-7.466-16-16s6.4-16 14.934-16zM145.066 176h155.733c8.534 0 16 7.466 16 16s-6.4 16-16 16h-155.733c-8.534 0-16-7.466-16-16 0-9.6 7.466-16 16-16zM346.666 30.933c-2.134 2.134-4.267 1.067-5.334-1.067l-5.334-11.733c-1.067-3.2 0-4.267 2.134-3.2l12.8 5.334c2.134 1.067 3.2 4.266 1.067 5.333l-5.334 5.334zM455.466 105.6c0 0 0 0 0 0l7.466 7.466c7.466 7.466 7.466 21.334 0 28.8s-20.267 7.466-28.8 0l-10.666-10.667c-6.4 5.334-13.866 9.6-21.334 12.8v181.333c0 25.6-21.334 46.933-46.933 46.933h-195.2l-117.334-117.333v-181.334c0-25.6 21.334-46.933 46.933-46.933h176c10.666-44.8 51.2-77.866 99.2-77.866 56.534 0 101.334 45.866 101.334 101.334 0 19.2-5.334 36.266-13.866 51.2l3.2 4.267zM262.4 57.6h-172.8c-8.534 0-16 7.466-16 16v149.334h85.334c17.066 0 32 13.867 32 32v85.334h165.333c8.534 0 16-7.466 16-16v-172.8c-2.134 0-5.334 0-8.534 0-20.267 0-38.4-5.333-54.4-16h-165.333c-8.534 0-16-7.466-16-16s7.466-16 16-16h133.333c-8.534-11.733-13.866-27.733-14.933-45.866zM363.733-27.733c-42.666 0-77.867 35.2-77.867 77.866s35.2 77.866 77.866 77.866c16 0 30.933-5.333 43.733-13.866l-45.867-45.866c-1.067-1.067-3.2-4.266-4.267-5.333l-10.666-25.6c-1.067-2.134 0-4.267 1.067-5.334l5.334-5.333c1.067-1.067 4.267-2.134 5.334-1.067l25.6 11.733c2.134 1.067 4.267 2.134 5.334 4.267v0l43.733 43.733c5.334-10.666 7.466-22.4 7.466-34.134 2.134-43.733-33.067-78.933-76.8-78.933z" />
<glyph unicode="&#xe613;" glyph-name="icon-billing" d="M327.466 108.8h49.067c8.534 0 16 7.466 16 16s-7.466 16-16 16h-49.067c-8.534 0-16-7.466-16-16s7.466-16 16-16zM327.466 184.534h49.067c8.534 0 16 7.466 16 16s-7.466 16-16 16h-49.067c-8.534 0-16-7.466-16-16s7.466-16 16-16zM377.6 65.067h-50.134c-8.534 0-16-7.466-16-16s7.466-16 16-16h50.134c8.534 0 16 7.466 16 16s-6.4 16-16 16zM417.067 299.734h-19.2v19.2c0 28.8-23.466 52.267-52.267 52.267h-250.667c-28.8 0-52.267-23.466-52.267-52.267v-246.4c0-28.8 23.467-52.266 52.267-52.266h19.2v-19.2c0-28.8 23.467-52.266 52.266-52.266h251.734c28.8 0 52.267 23.466 52.267 52.266v246.4c-1.067 28.8-24.534 52.267-53.334 52.267zM114.133 247.467v-194.134h-19.2c-9.6 0-18.133 8.534-18.133 18.134v247.466c0 9.6 8.534 18.134 18.133 18.134h251.733c9.6 0 18.134-8.534 18.134-18.134v-19.2h-199.466c-28.8 0-51.2-23.466-51.2-52.266zM435.2 1.067c0-9.6-8.534-18.134-18.134-18.134h-251.733c-9.6 0-18.133 8.534-18.133 18.134v246.4c0 9.6 8.534 18.133 18.133 18.133h251.733c9.6 0 18.134-8.534 18.134-18.133v-246.4zM258.134 129.067c-4.267 4.267-9.6 7.466-14.934 10.667s-10.667 6.4-14.934 8.534c-4.267 2.134-8.534 5.333-11.733 7.466s-4.267 5.333-4.267 8.534v3.2c0 4.267 1.066 7.466 4.267 9.6s7.466 3.2 11.733 3.2h2.133c5.333 0 9.6-1.066 11.733-3.2 3.2-2.133 4.267-4.267 4.267-7.466 0-4.267 1.066-6.4 3.2-8.534s5.333-3.2 8.533-3.2c3.2 0 6.4 1.067 8.534 3.2s4.267 5.333 4.267 9.6c0 4.267-1.067 8.534-2.134 11.733s-3.2 6.4-6.4 9.6c-3.2 3.2-5.334 5.333-9.6 7.466-3.2 2.133-7.466 3.2-11.733 4.267v9.6c0 4.267-1.066 7.466-4.267 9.6-2.133 2.133-5.333 3.2-8.534 3.2s-5.333-1.066-8.534-3.2c-2.133-2.133-4.267-5.333-4.267-9.6v-8.534c-4.267-1.066-7.466-2.133-10.667-4.267s-6.4-4.267-9.6-7.466c-3.2-3.2-5.333-6.4-6.4-10.667-2.133-4.267-2.133-8.534-2.133-12.8v-4.267c0-6.4 1.066-12.8 4.267-17.066s6.4-8.534 11.733-12.8c4.267-3.2 9.6-7.466 14.934-9.6 5.333-3.2 10.666-5.333 14.934-8.534s8.534-6.4 11.733-9.6c3.2-3.2 4.267-7.466 4.267-11.733 0-5.334-2.133-9.6-5.333-12.8s-7.466-4.266-12.8-4.266h-2.133c-5.333 0-9.6 1.067-12.8 4.266s-5.333 7.466-5.333 13.866c0 4.267-1.066 7.466-4.267 9.6-2.133 2.134-5.333 3.2-8.534 3.2s-6.4-1.067-8.534-3.2c-2.133-2.134-4.267-5.333-4.267-9.6 0-11.733 3.2-20.266 8.534-27.733 6.4-7.466 13.867-11.734 22.4-14.933v-6.4c0-4.267 1.066-7.466 4.267-9.6 2.133-2.134 5.333-3.2 8.534-3.2s5.333 1.067 8.534 3.2c2.133 2.134 4.267 5.333 4.267 9.6v6.4c9.6 2.134 17.066 7.466 22.4 13.866 6.4 6.4 8.534 16 8.534 26.666 0 7.466-1.067 13.866-4.267 19.2-1.067 5.333-5.334 10.666-9.6 14.933z" />
<glyph unicode="&#xe614;" glyph-name="icon-bill-manage" d="M423.466 289.067h-30.933v30.933c0 24.534-20.267 44.8-45.866 45.867h-189.867l-114.133-113.066v-176c0-24.534 20.267-45.867 45.867-45.867h30.933v-30.933c0-24.534 20.266-44.8 45.866-45.866h259.2c24.534 0 44.8 20.267 45.866 45.866v244.267c-1.067 24.534-21.334 44.8-46.933 44.8zM186.667 336h161.066c8.534 0 14.933-7.466 14.933-16v-30.933h-130.133l-48-48c1.066 3.2 2.133 6.4 2.133 10.666v84.266zM88.534 60.8c-8.534 0-14.933 6.4-14.933 14.933v146.133h83.2c3.2 0 7.466 1.066 10.666 2.133l-48-46.934v-115.2h-30.933zM439.466 0c0-8.534-6.4-14.933-14.933-14.933h-260.267c-8.534 0-14.934 7.466-14.934 14.933v145.067h83.2c17.066 0 30.933 13.867 30.933 30.934v83.2h161.067c8.534 0 14.933-7.466 14.933-14.933v-244.267z" />
<glyph unicode="&#xe615;" glyph-name="icon-bill-paper" d="M177.066 254.934h166.4c8.534 0 16 7.466 16 16s-7.466 16-16 16h-166.4c-8.534 0-16-7.466-16-16s7.466-16 16-16zM358.4 199.467c0 8.534-7.466 16-16 16h-165.333c-8.534 0-16-7.466-16-16s7.466-16 16-16h166.4c8.534 0 14.933 7.466 14.933 16zM459.733 208c-7.466 9.6-19.2 16-33.067 16h-12.8v85.333c0 26.666-21.334 49.067-48 49.067h-219.733c-26.666 0-48-22.4-48-49.067v-85.333h-12.8c-23.466 0-42.666-19.2-42.666-42.666v-176c0-23.466 19.2-42.667 42.666-42.667h341.334c23.466 0 42.666 19.2 42.666 42.667v176c0 9.6-4.267 19.2-9.6 26.666zM129.066 311.466c0 8.534 6.4 14.934 14.934 14.934h222.933c8.534 0 14.933-6.4 14.933-14.934v-146.133l-121.6-76.8-1.067-1.067c-2.134-2.134-4.267-2.134-5.333-2.134s-3.2 0-5.333 2.134l-1.066 1.067-117.333 80v142.934zM437.334 2.134c0-4.266-3.2-7.466-8.534-7.466h-346.666c-4.266 0-8.534 3.2-8.534 8.534v164.267l150.4-106.667c7.466-7.466 18.133-11.733 28.8-11.733s21.333 4.266 28.8 11.733l155.733 105.6v-164.267z" />
<glyph unicode="&#xe616;" glyph-name="icon-bill-paperless" d="M294.4 262.4h-68.267c-8.534 0-14.934-6.4-14.934-14.934s6.4-14.934 14.934-14.934h69.334c8.534 0 14.933 7.466 14.933 14.934-1.067 8.533-7.466 14.934-16 14.934zM393.6 200.534v108.8c0 25.6-20.267 44.8-45.866 45.867h-190.934l-114.133-114.133v-177.067c0-25.6 20.267-45.866 45.867-45.866h158.934c21.334-32 58.666-53.333 100.267-53.333v0c4.267 0 7.466 0 11.733 1.067 8.534 1.067 16 8.534 14.933 18.134s-8.534 16-18.134 14.933c-3.2 0-6.4 0-9.6 0-49.067 0-89.6 40.534-89.6 89.6s40.534 89.6 89.6 89.6c49.067 0 89.6-40.534 89.6-89.6 0-7.466-2.134-30.933-12.8-41.6-3.2-3.2-7.466-5.333-12.8-5.333-8.534 0-12.8 2.134-13.866 6.4v76.8c0 8.534-7.466 16-16 16-5.334 0-9.6-2.134-12.8-6.4-7.466 4.267-16 6.4-24.534 6.4-29.866 0-53.334-23.466-53.334-53.333s24.534-53.334 53.334-53.334c7.466 0 14.933 2.134 22.4 5.334 3.2-14.933 17.067-30.933 44.8-30.933 13.866 0 26.666 5.333 36.267 14.933 20.267 21.333 22.4 56.534 22.4 64v1.067c0 51.2-32 93.866-75.733 112zM348.8 209.067h-1.067c-21.334 0-41.6-5.333-58.666-14.934h-147.2c-8.534 0-14.933-6.4-14.933-14.934s6.4-14.934 14.933-14.934h109.867c-9.6-11.733-16-24.534-21.333-38.4h-89.6c-8.534 0-14.933-6.4-14.933-14.933s6.4-14.933 14.933-14.933h84.266c0-2.134 0-5.333 0-7.466 0-13.866 2.133-26.666 6.4-38.4h-142.934c-8.534 0-14.933 6.4-14.933 14.933v145.067h83.2c17.066 0 30.934 13.867 30.934 30.934v83.2h161.066c8.534 0 14.933-7.466 14.933-14.933v-100.267c-2.134 0-4.267 1.066-6.4 1.066-3.2-1.066-6.4-1.066-8.534-1.066zM343.466 67.2c-11.733 0-20.267 9.6-20.267 20.266 0 11.734 9.6 20.267 20.267 20.267 11.733 0 20.267-9.6 20.267-20.267s-8.534-20.266-20.267-20.266z" />
<glyph unicode="&#xe617;" glyph-name="icon-bill-payment" d="M231.466 246.4h72.534c8.534 0 16 7.466 16 16s-7.466 16-16 16h-71.466c-8.534 0-16-7.466-16-16s6.4-16 14.934-16zM146.133 176h156.8c8.534 0 16 7.466 16 16s-6.4 16-16 16h-156.8c-8.534 0-16-7.466-16-16s7.466-16 16-16zM406.4 144v182.4c0 25.6-21.334 46.933-46.933 46.933h-198.4l-118.4-117.334v-182.4c0-25.6 21.334-46.933 46.934-46.933h177.066c10.666-44.8 51.2-78.933 100.267-78.933 56.534 0 102.4 45.866 102.4 102.4 0 41.6-25.6 78.933-62.933 93.866zM73.6 72.534v151.467h86.4c17.066 0 32 13.867 32 32v86.4h167.466c8.534 0 16-7.466 16-16v-174.934c-3.2 0-5.334 0-8.534 0-20.267 0-38.4-5.333-54.4-16h-167.466c-8.534 0-16-7.466-16-16s7.466-16 16-16h134.4c-8.534-13.866-14.933-29.866-16-48h-173.867c-8.534 1.067-16 8.534-16 17.067zM366.933-29.866c-43.733 0-78.933 35.2-78.933 78.933s35.2 78.933 78.933 78.933c43.733 0 78.933-35.2 78.933-78.933s-35.2-78.933-78.933-78.933zM397.866 81.067l-46.933-46.933-14.933 14.933c-4.267 4.267-11.733 4.267-17.067 0-4.267-4.266-4.267-11.733 0-17.067l23.466-23.466c2.134-2.134 5.334-3.2 8.534-3.2s6.4 1.067 8.534 3.2l55.466 55.466c4.267 4.267 4.267 11.734 0 17.067-5.334 5.334-12.8 5.334-17.067 0z" />
<glyph unicode="&#xe618;" glyph-name="icon-bill-payment-extension" d="M384 52.267v37.333c0 8.534-7.466 16-16 16s-16-7.466-16-16v-39.466c0-3.2 1.067-5.333 2.134-7.466 0-3.2 2.134-6.4 4.267-9.6l20.267-20.266c6.4-6.4 16-6.4 22.4 0s6.4 16 0 22.4l-17.067 17.067zM231.466 246.4h72.534c8.534 0 16 7.466 16 16s-7.466 16-16 16h-71.466c-8.534 0-16-7.466-16-16s6.4-16 14.934-16zM146.133 176h156.8c8.534 0 16 7.466 16 16s-6.4 16-16 16h-156.8c-8.534 0-16-7.466-16-16s7.466-16 16-16zM406.4 144v182.4c0 25.6-21.334 46.933-46.933 46.933h-198.4l-118.4-117.334v-182.4c0-25.6 21.334-46.933 46.934-46.933h177.066c10.666-44.8 51.2-78.933 100.267-78.933 56.534 0 102.4 45.866 102.4 102.4 0 41.6-25.6 78.933-62.933 93.866zM264.534 56.534h-174.934c-8.534 0-16 7.466-16 16v151.467h86.4c17.066 0 32 13.867 32 32v86.4h167.466c8.534 0 16-7.466 16-16v-174.934c-3.2 0-5.334 0-8.534 0-20.267 0-38.4-5.333-54.4-16h-167.466c-8.534 0-16-7.466-16-16s7.466-16 16-16h134.4c-8.534-12.8-13.866-28.8-14.933-46.933zM366.933-29.866c-43.733 0-78.933 35.2-78.933 78.933s35.2 78.933 78.933 78.933c43.733 0 78.933-35.2 78.933-78.933s-35.2-78.933-78.933-78.933z" />
<glyph unicode="&#xe619;" glyph-name="icon-bluetooth" d="M256-53.333c-2.133 0-5.333 0-7.466 2.134-6.4 3.2-10.666 9.6-10.666 16v157.866l-86.4-72.534c-7.466-6.4-18.133-5.333-24.534 2.134s-5.334 18.134 2.133 24.534l99.2 83.2-99.2 83.2c-7.466 6.4-8.534 17.066-2.133 24.533s17.066 8.534 24.534 2.134l86.4-72.534v157.866c0 6.4 4.267 12.8 10.666 16 5.333 3.2 12.8 2.134 18.134-2.133l116.267-98.133c4.267-3.2 6.4-8.534 6.4-13.867s-2.134-10.667-6.4-13.867l-100.267-83.2 100.267-84.267c4.267-3.2 6.4-8.534 6.4-13.866s-2.134-10.666-6.4-13.866l-116.267-97.067c-3.2-3.2-7.466-4.266-10.666-4.266zM273.067 122.667v-120.534l71.466 60.8-71.466 59.734zM273.067 317.867v-120.534l71.466 59.733-71.466 60.8z" />
<glyph unicode="&#xe61a;" glyph-name="icon-bundle" d="M375.466 278.4h-40.534c10.666 7.466 19.2 16 23.466 27.733 3.2 11.733 4.267 28.8-17.067 50.134-12.8 10.666-24.534 17.066-37.334 17.066-22.4 0-38.4-20.267-49.066-42.666-10.667 22.4-25.6 42.666-49.066 42.666-12.8 0-24.534-6.4-36.267-18.133-20.267-20.267-20.267-38.4-17.066-50.134 3.2-10.666 12.8-20.266 23.466-27.733h-39.466c-25.6 0-46.934-21.333-46.934-46.934v-237.867c0-25.6 21.334-46.933 46.934-46.933h237.867c25.6 0 46.933 21.334 46.933 46.933v238.934c1.067 25.6-20.267 46.934-45.866 46.934zM375.466 245.334c7.466 0 13.866-6.4 13.866-13.867v-102.4h-117.334v116.267h103.466zM304 340.267c1.067 0 5.334-1.066 12.8-8.534 3.2-3.2 10.666-10.666 8.534-16-3.2-9.6-25.6-20.267-51.2-26.666 8.534 26.666 20.267 51.2 29.866 51.2zM193.066 332.8c7.466 7.466 11.733 8.534 12.8 8.534 8.534 0 21.333-22.4 28.8-51.2-24.534 6.4-48 17.067-51.2 26.666 0 4.267 6.4 12.8 9.6 16zM136.534 245.334h102.4v-116.267h-116.266v102.4c0 7.466 6.4 13.867 13.866 13.867zM122.666-6.4v102.4h116.266v-116.266h-102.4c-7.466 0-13.867 6.4-13.867 13.866zM375.466-20.266h-103.466v116.266h117.334v-102.4c0-7.466-6.4-13.866-13.866-13.866z" />
<glyph unicode="&#xe61b;" glyph-name="icon-business-centers" d="M469.334 237.867c0 2.133-1.067 5.333-2.134 7.466 0 0 0 1.066 0 1.066s0 1.066 0 1.066c-4.267 9.6-12.8 21.333-32 21.333h-90.666v20.267c0 26.666-22.4 49.066-49.067 49.066h-87.466c-26.666 0-49.066-22.4-49.066-49.066v-20.267h-81.067c-13.867 0-27.733-11.733-33.066-24.533 0-1.066-1.066-1.066-1.066-2.133s0-1.066 0-2.133c-1.066-2.133-1.066-3.2-1.066-5.333v-217.6c0-17.067 13.867-35.2 32-35.2h362.666c18.134 0 32 17.067 32 35.2v217.6c0 0 0 1.066 0 3.2zM193.066 289.067c0 7.466 6.4 13.867 14.934 13.867h87.466c8.534 0 14.933-6.4 14.933-13.867v-20.266h-117.334v20.266zM433.067 234.667c0 0 1.067-1.066 1.067-1.066s0 0 0 0v-36.267c-30.933-11.733-98.134-32-184.534-32-85.334 0-144 19.2-171.733 30.934v36.267c1.067 1.066 4.266 2.133 5.334 3.2h349.866zM225.066 130.134c7.466 0 16 0 24.534 0 9.6 0 18.133 0 27.734 1.067v-7.466c0-7.466-6.4-13.866-14.933-13.866h-23.466c-8.534 0-14.934 6.4-14.934 13.866v6.4zM434.134 17.067h-356.267c0 0 0 0 0 0v140.8c24.534-9.6 62.934-20.267 113.067-24.533v-9.6c0-26.667 22.4-49.067 49.066-49.067h23.467c26.666 0 49.067 22.4 49.067 49.067v9.6c53.334 5.333 94.933 17.067 122.666 26.666v-142.934z" />
<glyph unicode="&#xe61c;" glyph-name="icon-business-resources" d="M370.134 316.8h-56.534c0 11.733-9.6 21.334-21.334 21.334-1.067 19.2-17.067 35.2-36.267 35.2s-35.2-16-35.2-35.2c-11.733 0-21.334-9.6-21.334-21.334h-56.534c-16 0-28.8-12.8-28.8-28.8v-312.534c0-16 12.8-28.8 28.8-28.8h227.2c16 0 28.8 12.8 28.8 28.8v312.534c-1.067 16-13.866 28.8-28.8 28.8zM256 359.467c11.733 0 21.334-9.6 21.334-21.334s-9.6-21.334-21.334-21.334c-11.733 0-21.334 9.6-21.334 21.334s9.6 21.334 21.334 21.334zM306.134-24.534h-149.333c-7.466 0-13.867 6.4-13.867 13.866v284.8c0 7.466 6.4 13.866 13.867 13.866h21.333v-21.333h156.8v21.333h21.334c7.466 0 13.866-6.4 13.866-13.866v-234.667h-64v-64zM327.466-32v50.134h50.134l-50.134-50.134z" />
<glyph unicode="&#xe61d;" glyph-name="icon-business-building" d="M379.733 373.334h-247.466c-18.133 0-34.133-14.933-34.133-34.133v-359.466c0-18.134 14.933-34.134 34.133-34.134h247.466c18.134 0 34.133 14.933 34.133 34.134v359.466c0 19.2-16 34.134-34.134 34.134zM389.334-19.2c0-5.334-4.267-9.6-9.6-9.6h-94.933c0 0 0 0 0 0v49.067c0 2.134-2.134 4.266-4.267 4.266h-49.066c-2.133 0-4.267-2.134-4.267-4.266v-49.067c0 0 0 0 0 0h-94.934c-5.334 0-9.6 4.266-9.6 9.6v358.4c0 5.333 4.266 9.6 9.6 9.6h247.466c5.334 0 9.6-4.267 9.6-9.6v-358.4zM188.8 316.8v-34.133c0-2.134-1.066-3.2-3.2-3.2h-34.133c-2.133 0-3.2 1.067-3.2 3.2v34.133c1.066 2.133 2.133 3.2 4.267 3.2h34.133c1.066 0 2.133-1.067 2.133-3.2zM246.4 316.8v-34.133c0-2.134-1.066-3.2-3.2-3.2h-34.133c-2.133 0-3.2 1.067-3.2 3.2v34.133c0 2.133 1.066 3.2 3.2 3.2h34.133c2.133 0 3.2-1.067 3.2-3.2zM305.067 316.8v-34.133c0-2.134-1.067-3.2-3.2-3.2h-34.133c-2.134 0-3.2 1.067-3.2 3.2v34.133c1.067 2.133 2.134 3.2 3.2 3.2h34.134c1.067 0 3.2-1.067 3.2-3.2zM362.666 316.8v-34.133c0-2.134-1.067-3.2-3.2-3.2h-34.134c-2.134 0-3.2 1.067-3.2 3.2v34.133c0 2.133 1.067 3.2 3.2 3.2h34.134c2.134 0 3.2-1.067 3.2-3.2zM188.8 260.267v-34.134c0-2.133-1.066-3.2-3.2-3.2h-34.133c-2.133 0-3.2 1.066-3.2 3.2v34.134c0 2.133 1.066 3.2 3.2 3.2h34.133c2.133 0 3.2-1.066 3.2-3.2zM246.4 260.267v-34.134c0-2.133-1.066-3.2-3.2-3.2h-34.133c-2.133 0-3.2 1.066-3.2 3.2v34.134c0 2.133 1.066 3.2 3.2 3.2h34.133c2.133 0 3.2-1.066 3.2-3.2zM305.067 260.267v-34.134c0-2.133-1.067-3.2-3.2-3.2h-34.133c-2.134 0-3.2 1.066-3.2 3.2v34.134c0 2.133 1.067 3.2 3.2 3.2h34.134c1.067 0 3.2-1.066 3.2-3.2zM362.666 260.267v-34.134c0-2.133-1.067-3.2-3.2-3.2h-34.134c-2.134 0-3.2 1.066-3.2 3.2v34.134c0 2.133 1.067 3.2 3.2 3.2h34.134c2.134 0 3.2-1.066 3.2-3.2zM188.8 204.8v-34.133c0-2.133-1.066-3.2-3.2-3.2h-34.133c-2.133 0-3.2 1.066-3.2 3.2v34.133c0 2.133 1.066 3.2 3.2 3.2h34.133c2.133 0 3.2-1.066 3.2-3.2zM246.4 204.8v-34.133c0-2.133-1.066-3.2-3.2-3.2h-34.133c-2.133 0-3.2 1.066-3.2 3.2v34.133c0 2.133 1.066 3.2 3.2 3.2h34.133c2.133 0 3.2-1.066 3.2-3.2zM305.067 204.8v-34.133c0-2.133-1.067-3.2-3.2-3.2h-34.133c-2.134 0-3.2 1.066-3.2 3.2v34.133c0 2.133 1.067 3.2 3.2 3.2h34.134c1.067 0 3.2-1.066 3.2-3.2zM362.666 204.8v-34.133c0-2.133-1.067-3.2-3.2-3.2h-34.134c-2.134 0-3.2 1.066-3.2 3.2v34.133c0 2.133 1.067 3.2 3.2 3.2h34.134c2.134 0 3.2-1.066 3.2-3.2zM188.8 148.267v-34.134c0-2.134-1.066-3.2-3.2-3.2h-34.133c-2.133 0-3.2 1.067-3.2 3.2v34.134c0 2.134 1.066 3.2 3.2 3.2h34.133c2.133 0 3.2-1.067 3.2-3.2zM246.4 148.267v-34.134c0-2.134-1.066-3.2-3.2-3.2h-34.133c-2.133 0-3.2 1.067-3.2 3.2v34.134c0 2.134 1.066 3.2 3.2 3.2h34.133c2.133 0 3.2-1.067 3.2-3.2zM305.067 148.267v-34.134c0-2.134-1.067-3.2-3.2-3.2h-34.133c-2.134 0-3.2 1.067-3.2 3.2v34.134c0 2.134 1.067 3.2 3.2 3.2h34.134c1.067 0 3.2-1.067 3.2-3.2zM362.666 148.267v-34.134c0-2.134-1.067-3.2-3.2-3.2h-34.134c-2.134 0-3.2 1.067-3.2 3.2v34.134c0 2.134 1.067 3.2 3.2 3.2h34.134c2.134 0 3.2-1.067 3.2-3.2zM188.8 92.8v-34.134c0-2.134-1.066-3.2-3.2-3.2h-34.133c-2.133 0-3.2 1.067-3.2 3.2v34.134c0 2.134 1.066 3.2 3.2 3.2h34.133c2.133 0 3.2-1.067 3.2-3.2zM246.4 92.8v-34.134c0-2.134-1.066-3.2-3.2-3.2h-34.133c-2.133 0-3.2 1.067-3.2 3.2v34.134c0 2.134 1.066 3.2 3.2 3.2h34.133c2.133 0 3.2-1.067 3.2-3.2zM305.067 92.8v-34.134c0-2.134-1.067-3.2-3.2-3.2h-34.133c-2.134 0-3.2 1.067-3.2 3.2v34.134c0 2.134 1.067 3.2 3.2 3.2h34.134c1.067 0 3.2-1.067 3.2-3.2zM362.666 92.8v-34.134c0-2.134-1.067-3.2-3.2-3.2h-34.134c-2.134 0-3.2 1.067-3.2 3.2v34.134c0 2.134 1.067 3.2 3.2 3.2h34.134c2.134 0 3.2-1.067 3.2-3.2z" />
<glyph unicode="&#xe61e;" glyph-name="icon-business-secure" d="M135.466 318.934h-21.334c-9.6 0-17.067-7.466-17.067-17.067v-24.534c0-9.6 7.466-17.066 17.067-17.066h21.334c9.6 0 17.066 7.466 17.066 17.066v24.534c1.066 9.6-7.466 17.067-17.066 17.067zM204.8 318.934h-21.334c-9.6 0-17.066-7.466-17.066-17.067v-24.534c0-9.6 7.466-17.066 17.066-17.066h21.334c9.6 0 17.066 7.466 17.066 17.066v24.534c0 9.6-7.466 17.067-17.066 17.067zM276.267 318.934h-21.334c-9.6 0-17.066-7.466-17.066-17.067v-24.534c0-9.6 7.466-17.066 17.066-17.066h21.334c9.6 0 17.067 7.466 17.067 17.066v24.534c0 9.6-7.466 17.067-17.067 17.067zM135.466 241.067h-21.334c-9.6 0-17.067-7.466-17.067-17.066v-24.534c0-9.6 7.466-17.066 17.067-17.066h21.334c9.6 0 17.066 7.466 17.066 17.066v24.534c1.066 9.6-7.466 17.066-17.066 17.066zM204.8 241.067h-21.334c-9.6 0-17.066-7.466-17.066-17.066v-24.534c0-9.6 7.466-17.066 17.066-17.066h21.334c9.6 0 17.066 7.466 17.066 17.066v24.534c0 9.6-7.466 17.066-17.066 17.066zM276.267 241.067h-21.334c-9.6 0-17.066-7.466-17.066-17.066v-24.534c0-9.6 7.466-17.066 17.066-17.066h21.334c9.6 0 17.067 7.466 17.067 17.066v24.534c0 9.6-7.466 17.066-17.067 17.066zM135.466 163.2h-21.334c-9.6 0-17.067-7.466-17.067-17.066v-24.534c0-9.6 7.466-17.067 17.067-17.067h21.334c9.6 0 17.066 7.466 17.066 17.067v24.534c1.066 9.6-7.466 17.066-17.066 17.066zM204.8 163.2h-21.334c-9.6 0-17.066-7.466-17.066-17.066v-24.534c0-9.6 7.466-17.067 17.066-17.067h21.334c9.6 0 17.066 7.466 17.066 17.067v24.534c0 9.6-7.466 17.066-17.066 17.066zM466.134-26.666l-114.134 196.266v161.066c0 23.466-19.2 42.666-42.666 42.666h-224c-23.466 0-42.666-19.2-42.666-42.666v-288c0-23.466 19.2-42.666 42.666-42.666h132.267l-17.066-28.8c-2.133-4.266-3.2-10.666 0-14.933 2.133-4.266 7.466-8.534 12.8-8.534h241.066c0 0 0 0 0 0 8.534 0 14.933 7.466 14.933 16 0 2.134-1.067 7.466-3.2 9.6zM224 32v38.4c0 9.6-9.6 14.933-19.2 14.933h-21.334c-9.6 0-12.8-5.333-12.8-14.933v-38.4h-85.334c-6.4 0-10.666 5.334-10.666 11.734v283.733c0 6.4 4.266 13.867 10.666 13.867h217.6c7.466 0 17.067-7.466 17.067-13.867v-151.466l-26.666-44.8v16c0 9.6-7.466 17.066-17.067 17.066h-21.334c-9.6 0-17.066-7.467-17.066-17.066v-24.534c0-9.6 7.466-17.067 17.066-17.067h21.334c1.067 0 2.134 0 3.2 0l-42.666-73.6h-12.8zM238.934-21.333l94.934 163.2 94.933-163.2h-189.867zM381.866 44.8h-5.334c-2.134 20.266-18.134 36.266-38.4 38.4v5.333c0 2.134-2.134 4.267-4.267 4.267s-4.267-2.134-4.267-4.267v-5.333c-20.267-2.134-36.267-18.134-38.4-38.4h-5.334c-2.134 0-4.267-2.134-4.267-4.267s2.134-4.266 4.267-4.266h6.4c2.134-20.267 18.134-36.267 38.4-38.4v-5.334c0-2.134 2.134-4.266 4.267-4.266s4.267 2.134 4.267 4.266v5.334c20.267 2.134 36.267 18.134 38.4 38.4h5.334c2.134 0 4.267 2.134 4.267 4.266-2.134 2.134-3.2 4.267-5.334 4.267zM338.134 5.334v25.6c0 2.134-2.134 4.266-4.267 4.266s-4.267-2.134-4.267-4.266v-25.6c-16 2.134-28.8 14.933-30.933 30.933h25.6c2.134 0 4.267 2.134 4.267 4.266s-2.134 4.267-4.267 4.267h-25.6c2.134 16 14.933 28.8 30.933 30.933v-25.6c0-2.134 2.134-4.267 4.267-4.267s4.267 2.134 4.267 4.267v25.6c16-2.134 28.8-14.933 30.933-30.933h-25.6c-2.134 0-4.267-2.134-4.267-4.267s2.134-4.266 4.267-4.266h25.6c-2.134-16-14.933-28.8-30.933-30.933z" />
<glyph unicode="&#xe61f;" glyph-name="icon-business-small-building" d="M423.466 373.334h-334.933c-25.6 0-45.867-20.267-45.867-45.866v-334.934c0-25.6 20.267-45.866 45.867-45.866h334.933c25.6 0 45.866 20.267 45.866 45.866v334.933c0 25.6-20.267 45.867-45.866 45.867zM437.334-7.466c0-7.466-6.4-12.8-12.8-12.8h-128c0 0 0 0 0 0v67.2c0 3.2-2.134 6.4-6.4 6.4h-67.2c-3.2 0-6.4-2.134-6.4-6.4v-67.2c0 0 0 0 0 0h-128c-7.466-1.067-13.867 5.333-13.867 12.8v334.933c0 7.466 6.4 13.867 13.867 13.867h334.933c7.466 0 13.866-6.4 13.866-13.867v-334.933zM161.066 300.8h-45.867c-2.133 0-4.266-2.133-4.266-4.267v-45.866c0-2.133 2.133-4.267 4.266-4.267h45.867c2.133 0 4.267 2.133 4.267 4.267v45.866c0 3.2-2.133 4.267-4.267 4.267zM240 300.8h-45.867c-2.133 0-4.267-2.133-4.267-4.267v-45.866c0-2.133 2.133-4.267 4.267-4.267h45.867c2.133 0 4.267 2.133 4.267 4.267v45.866c-1.066 3.2-2.133 4.267-4.267 4.267zM317.866 300.8h-45.866c-2.134 0-4.267-2.133-4.267-4.267v-45.866c0-2.133 2.134-4.267 4.267-4.267h45.866c2.134 0 4.267 2.133 4.267 4.267v45.866c0 3.2-2.134 4.267-4.267 4.267zM396.8 300.8h-45.867c-2.134 0-4.267-2.133-4.267-4.267v-45.866c0-2.133 2.134-4.267 4.267-4.267h45.866c2.134 0 4.267 2.133 4.267 4.267v45.866c-1.067 3.2-2.134 4.267-4.267 4.267zM161.066 225.067h-45.867c-2.133 0-4.266-2.133-4.266-4.267v-45.867c0-2.133 2.133-4.267 4.266-4.267h45.867c2.133 0 4.267 2.133 4.267 4.267v45.867c0 2.133-2.133 4.267-4.267 4.267zM240 225.067h-45.867c-2.133 0-4.267-2.133-4.267-4.267v-45.867c0-2.133 2.133-4.267 4.267-4.267h45.867c2.133 0 4.267 2.133 4.267 4.267v45.867c-1.066 2.133-2.133 4.267-4.267 4.267zM317.866 225.067h-45.866c-2.134 0-4.267-2.133-4.267-4.267v-45.867c0-2.133 2.134-4.267 4.267-4.267h45.866c2.134 0 4.267 2.133 4.267 4.267v45.867c0 2.133-2.134 4.267-4.267 4.267zM396.8 225.067h-45.867c-2.134 0-4.267-2.133-4.267-4.267v-45.867c0-2.133 2.134-4.267 4.267-4.267h45.866c2.134 0 4.267 2.133 4.267 4.267v45.867c-1.067 2.133-2.134 4.267-4.267 4.267zM161.066 149.334h-45.867c-2.133 0-4.266-2.134-4.266-4.267v-45.866c0-2.134 2.133-4.266 4.266-4.266h45.867c2.133 0 4.267 2.134 4.267 4.266v45.866c0 2.134-2.133 4.267-4.267 4.267zM240 149.334h-45.867c-2.133 0-4.267-2.134-4.267-4.267v-45.866c0-2.134 2.133-4.266 4.267-4.266h45.867c2.133 0 4.267 2.134 4.267 4.266v45.866c-1.066 2.134-2.133 4.267-4.267 4.267zM317.866 149.334h-45.866c-2.134 0-4.267-2.134-4.267-4.267v-45.866c0-2.134 2.134-4.266 4.267-4.266h45.866c2.134 0 4.267 2.134 4.267 4.266v45.866c0 2.134-2.134 4.267-4.267 4.267zM396.8 149.334h-45.867c-2.134 0-4.267-2.134-4.267-4.267v-45.866c0-2.134 2.134-4.266 4.267-4.266h45.866c2.134 0 4.267 2.134 4.267 4.266v45.866c-1.067 2.134-2.134 4.267-4.267 4.267z" />
<glyph unicode="&#xe620;" glyph-name="icon-calendar" d="M210.133 177.067h-2.133c-20.267 0-39.466-11.733-39.466-36.266 0-8.534 6.4-12.8 12.8-12.8s12.8 3.2 12.8 11.734c0 7.466 6.4 11.733 13.867 11.733h1.066c7.466 0 13.867-4.266 13.867-12.8v-5.334c0-17.067-8.534-17.067-20.267-17.067-9.6 0-13.867-6.4-13.867-12.8s4.267-12.8 13.867-12.8c13.867 0 20.267-1.067 20.267-18.134v-14.933c0-7.466-6.4-12.8-12.8-12.8h-4.267c-7.466 0-12.8 5.333-12.8 12.8 0 8.534-6.4 11.734-12.8 11.734s-12.8-3.2-12.8-11.734c0-24.534 18.133-38.4 39.466-38.4h4.267c22.4 0 39.466 13.866 39.466 38.4v16c0 13.866-3.2 24.534-9.6 32 5.333 6.4 9.6 16 9.6 29.866v5.334c0 25.6-20.267 36.266-40.534 36.266zM317.866 177.067h-6.4c0 0-1.067 0-1.067 0-3.2 0-6.4 0-9.6-5.333 0 0-18.134-23.466-21.334-28.8-3.2-4.266-3.2-7.466-3.2-9.6 0-6.4 6.4-12.8 12.8-12.8s8.534 4.266 10.666 6.4l4.267 5.333v-101.333c0-8.534 6.4-12.8 12.8-12.8s12.8 4.267 12.8 12.8v133.333c1.067 6.4-5.334 12.8-11.733 12.8zM392.534 314.667h-9.6v13.866c0 24.534-20.267 44.8-44.8 44.8s-44.8-20.267-44.8-44.8v-12.8h-72.534v12.8c0 24.534-20.267 44.8-44.8 44.8s-44.8-20.267-44.8-44.8v-12.8h-9.6c-25.6 0-46.934-21.334-46.934-46.934v-275.2c0-25.6 21.334-46.933 46.934-46.933h273.067c25.6 0 46.933 21.334 46.933 46.933v275.2c-2.134 25.6-23.466 45.866-49.067 45.866zM326.4 328.534c0 6.4 5.334 10.667 10.666 10.667 6.4 0 10.666-5.334 10.666-10.667v-12.8h-22.4v12.8zM163.2 328.534c0 6.4 5.333 10.667 10.666 10.667 6.4 0 10.666-5.334 10.666-10.667v-12.8h-22.4v12.8zM119.466 280.534h273.067c6.4 0 12.8-5.333 12.8-12.8v-19.2h-298.666v19.2c0 7.466 6.4 12.8 12.8 12.8zM392.534-19.2h-273.067c-6.4 0-12.8 5.333-12.8 12.8v220.8h298.666v-220.8c0-7.466-5.334-12.8-12.8-12.8z" />
<glyph unicode="&#xe621;" glyph-name="icon-camera" d="M422.4 279.466h-94.933c0 25.6-21.334 45.867-45.866 45.867h-50.133c-25.6 0-45.867-20.267-46.934-45.867h-94.933c-25.6 0-46.934-21.333-46.934-46.933v-192c0-25.6 21.334-46.933 46.934-46.933h333.866c25.6 0 46.933 21.334 46.933 46.933v192c-1.067 26.667-22.4 46.934-48 46.934zM436.267 40.534c0-7.466-6.4-12.8-12.8-12.8h-333.866c-7.466 0-12.8 6.4-12.8 12.8v192c0 7.466 6.4 12.8 12.8 12.8h112c9.6 0 17.066 7.466 17.066 17.066v16c0 7.466 6.4 12.8 12.8 12.8h50.133c7.466 0 12.8-6.4 12.8-12.8v-16c0-9.6 7.466-17.066 17.067-17.066h112c7.466 0 12.8-6.4 12.8-12.8v-192zM256 231.467c-50.133 0-90.666-40.534-90.666-90.666s40.534-90.667 90.666-90.667 90.666 40.534 90.666 90.667c0 50.133-40.534 90.666-90.666 90.666zM256 83.2c-32 0-57.6 25.6-57.6 57.6s25.6 57.6 57.6 57.6c32 0 57.6-25.6 57.6-57.6s-25.6-57.6-57.6-57.6z" />
<glyph unicode="&#xe622;" glyph-name="icon-case-studies" d="M135.466 357.334h-56.534c-18.133 0-32-14.933-32-32v-346.666c0-18.134 14.934-32 32-32h56.534c18.133 0 32 14.933 32 32v346.667c0 17.066-14.934 32-32 32zM142.934-21.333c0-4.267-3.2-8.534-8.534-8.534h-55.466c-4.266 0-8.534 3.2-8.534 8.534v346.666c0 4.267 3.2 8.534 8.534 8.534h56.534c4.267 0 8.534-3.2 8.534-8.534v-346.666zM87.466 309.334h40.534v-32h-40.534v32zM272 373.334h-56.534c-18.133 0-32-14.933-32-32v-362.666c0-18.134 13.867-32 32-32h56.534c18.134 0 32 14.933 32 32v362.667c0 17.066-13.866 32-32 32zM280.534-21.333c0-4.267-3.2-8.534-8.534-8.534h-56.534c-4.267 0-8.534 3.2-8.534 8.534v362.666c0 4.267 3.2 8.534 8.534 8.534h56.534c4.267 0 8.534-3.2 8.534-8.534v-362.666zM224 325.334h40.534v-32h-40.534v32zM433.067 293.334h-80c-18.134 0-32-14.933-32-32v-282.667c0-18.134 14.933-32 32-32h80c18.134 0 32 14.933 32 32v281.6c0 18.134-13.866 33.067-32 33.067zM441.6-21.333c0-4.267-3.2-8.534-8.534-8.534h-80c-4.267 0-8.534 3.2-8.534 8.534v281.6c0 4.266 3.2 8.534 8.534 8.534h80c4.267 0 8.534-3.2 8.534-8.534v-281.6zM360.534 236.8h64v-32h-64v32z" />
<glyph unicode="&#xe623;" glyph-name="icon-chat-forums" d="M455.466 14.933l-43.733 39.466c4.267 5.334 5.334 12.8 5.334 20.267v140.8c0 19.2-14.933 34.133-34.134 34.133h-115.2v60.8c0 24.534-19.2 43.733-43.733 43.733h-137.6c-24.534 0-43.733-19.2-43.733-43.733v-99.2c0-23.466 18.134-42.666 41.6-43.733h33.066v-91.733c0-7.466 1.067-14.933 5.334-20.267l-43.734-40.534c-12.8-10.666-17.067-21.333-12.8-30.933 6.4-16 29.867-18.134 53.334-18.134h295.466c22.4 0 46.933 2.134 53.334 18.134 3.2 9.6-1.067 20.267-12.8 30.933zM252.8 129.067c2.133 0 4.267 0 5.334 1.067 5.334 2.134 9.6 7.466 9.6 13.866v75.734h113.067c4.267 0 7.466-3.2 7.466-7.466v-135.466c0-4.267-3.2-7.466-7.466-7.466h-226.133c-4.267 0-7.466 3.2-7.466 7.466v90.666h60.8l33.066-34.134c3.2-2.134 7.466-4.266 11.733-4.266zM72.534 211.2v100.266c0 7.466 6.4 13.867 13.867 13.867h137.6c7.466 0 12.8-6.4 12.8-13.867v-130.133l-11.733 12.8c-3.2 3.2-6.4 4.267-10.666 4.267h-128c-7.466-1.066-13.867 5.333-13.867 12.8zM97.067-4.266l44.8 40.534c0 0 6.4 4.266 19.2 4.266h212.266c12.8 0 19.2-4.266 20.267-4.266l44.8-40.534c-5.334-1.067-341.334-1.067-341.334 0z" />
<glyph unicode="&#xe624;" glyph-name="icon-check-usage" d="M140.8 242.134h-49.066c-18.133 0-33.066-14.934-33.066-33.066v-229.333c0-18.134 14.934-33.067 33.066-33.067h49.066c18.133 0 33.066 14.933 33.066 33.067v229.334c0 18.133-14.934 33.066-33.066 33.066zM140.8-20.266h-49.066v229.333h49.066v-229.333zM280.534 373.334h-49.066c-18.133 0-33.066-14.933-33.066-33.066v-360.534c0-18.134 14.934-33.067 33.066-33.067h49.066c18.134 0 33.067 14.933 33.067 33.067v360.534c0 18.133-14.933 33.066-33.067 33.066zM280.534-20.266h-49.066v360.534h49.066v-360.534zM420.267 119.466h-49.067c-18.134 0-33.067-14.933-33.067-33.067v-106.666c0-18.134 14.933-33.067 33.067-33.067h49.067c18.134 0 33.067 14.933 33.067 33.067v106.666c0 18.134-14.933 33.067-33.067 33.067zM420.267-20.266h-49.067v106.666h49.067v-106.666z" />
<glyph unicode="&#xe625;" glyph-name="icon-cloud" d="M366.933 246.4c-6.4 0-12.8-1.066-19.2-2.133-22.4 21.333-51.2 34.133-82.133 34.133-50.133 0-93.867-30.934-109.867-76.8-9.6 4.267-20.267 6.4-30.933 6.4-44.8-1.066-82.133-37.333-82.133-83.2s37.334-82.134 82.133-82.134h242.134c56.534 0 102.4 45.866 102.4 102.4 0 55.467-45.866 101.334-102.4 101.334zM366.933 74.667h-242.133c-27.733 0-50.133 22.4-50.133 50.133s22.4 50.134 50.133 50.134c10.667 0 21.333-4.267 30.934-10.667 4.267-3.2 10.666-4.267 16-2.133s9.6 6.4 10.666 12.8c6.4 41.6 41.6 71.466 84.267 71.466 24.534 0 48-10.667 65.067-29.867 4.267-5.333 10.666-6.4 17.067-5.333 7.466 2.133 13.866 3.2 19.2 3.2 38.4 0 69.334-30.934 69.334-69.333-1.067-39.466-32-70.4-70.4-70.4z" />
<glyph unicode="&#xe626;" glyph-name="icon-cloud-payg" d="M248.534 161.067c0-3.2-1.066-6.4-2.133-8.534-1.066-3.2-3.2-5.333-4.267-7.466-2.133-2.134-4.267-3.2-7.466-5.333-3.2-1.067-5.333-2.134-8.534-2.134h-10.667v-27.734c0-2.134-1.066-4.266-2.133-5.333s-3.2-2.134-4.267-2.134c-2.133 0-3.2 1.067-4.267 2.134s-2.133 3.2-2.133 5.333v67.2c0 2.133 1.066 3.2 2.133 4.267s3.2 2.133 4.267 2.133h17.066c3.2 0 6.4-1.066 8.534-2.133 3.2-1.066 5.333-3.2 7.466-5.333s3.2-4.267 4.267-7.466c2.133-1.066 2.133-4.267 2.133-7.466zM235.733 161.067c0 1.066 0 2.133-1.066 4.267 0 1.066-1.066 2.133-2.133 3.2s-2.133 1.066-3.2 2.133c-1.066 0-2.133 1.066-3.2 1.066h-10.666v-19.2h10.666c2.133 0 5.333 1.067 6.4 3.2 2.133 0 3.2 2.134 3.2 5.333zM301.866 109.866c0-2.134-1.067-3.2-2.134-4.266s-3.2-2.134-4.267-2.134c-1.067 0-2.134 0-3.2 1.067s-2.134 2.134-2.134 3.2l-4.267 13.866h-22.4l-4.267-13.866c0-2.134-1.067-3.2-2.134-3.2-1.066-1.067-2.133-1.067-3.2-1.067-2.133 0-3.2 1.067-4.267 2.134s-2.133 3.2-2.133 4.266c0 0 0 1.067 0 1.067s0 1.067 0 1.067l20.266 66.134c1.067 2.133 2.134 4.267 3.2 4.267 1.067 1.066 2.134 1.066 4.267 1.066 1.067 0 3.2 0 4.267-1.066s2.134-2.133 3.2-4.267l20.267-66.134c-1.067 0-1.067-1.067-1.067-2.134zM274.134 160l-7.466-24.534h13.866l-6.4 24.534zM347.733 178.134c0-1.066 0-2.133-1.067-3.2l-16-39.467v-24.534c0-2.134-1.067-4.266-2.134-5.333s-3.2-2.134-4.267-2.134c-2.134 0-3.2 1.067-4.267 2.134s-2.134 3.2-2.134 5.333v24.534l-16 40.534c0 1.066-1.067 2.133-1.067 3.2 0 2.133 1.067 3.2 2.134 4.267s3.2 2.133 4.267 2.133c1.067 0 2.134 0 3.2-1.066s2.134-2.133 2.134-3.2l10.666-26.666 10.666 26.666c1.067 1.066 1.067 2.133 2.134 3.2s2.134 1.066 3.2 1.066 3.2-1.066 4.267-2.133c3.2-2.133 4.267-3.2 4.267-5.333zM400 125.866c0-3.2-1.067-6.4-2.134-8.534-1.067-3.2-3.2-5.333-4.267-7.466-2.134-2.134-4.267-3.2-7.466-4.266s-5.334-2.134-8.534-2.134h-1.067c-3.2 0-6.4 1.067-8.534 2.134-3.2 1.067-5.334 3.2-7.466 4.266-2.134 2.134-3.2 4.267-5.334 7.466s-2.134 5.334-2.134 8.534v36.267c0 3.2 1.067 6.4 2.134 8.534 1.067 3.2 3.2 5.333 5.334 7.466s4.267 3.2 7.466 4.267c3.2 1.066 5.334 2.133 8.534 2.133h1.067c3.2 0 5.334 0 7.466-1.066s5.334-2.133 6.4-4.267c2.134-2.133 3.2-3.2 5.334-6.4 1.067-2.133 2.134-4.267 2.134-7.466v-1.066c0-2.133-1.067-3.2-2.134-4.267 0 0-2.134 0-3.2 0s-3.2 0-4.267 1.066c-1.067 1.066-2.134 2.133-2.134 4.267s-1.067 4.267-3.2 4.267c-2.134 1.066-3.2 1.066-5.334 1.066h-1.067c-2.134 0-5.334-1.066-6.4-2.133-2.134-2.133-3.2-4.267-3.2-6.4v-35.2c0-2.134 1.067-5.333 3.2-6.4 2.134-2.134 4.267-3.2 6.4-3.2h1.067c2.134 0 5.334 1.067 6.4 2.134 2.134 2.134 3.2 4.266 3.2 6.4v10.666h-8.534c-2.134 0-4.267 1.067-4.267 2.134-1.067 1.067-1.067 3.2-1.067 4.267 0 2.134 0 3.2 1.067 4.266s2.134 2.134 4.267 2.134h14.933c2.134 0 3.2-1.067 4.267-2.134s2.134-3.2 2.134-4.266v-17.067zM122.666 43.734c-44.8 0-80 36.266-80 80 0 44.8 36.266 80 80 80 10.666 0 20.266-2.133 29.866-5.333l3.2-1.066 1.066 3.2c17.066 45.867 59.733 75.734 108.8 75.734 30.933 0 59.733-11.734 81.067-33.067l1.067-1.066h2.134c6.4 1.066 12.8 2.133 19.2 2.133 55.466 0 100.267-44.8 100.267-100.266s-44.8-100.267-100.267-100.267h-246.4zM122.666 178.134c-29.867 0-54.4-24.533-54.4-54.4s24.534-54.4 54.4-54.4h246.4c40.534 0 73.6 33.067 73.6 73.6s-33.067 73.6-73.6 73.6c-6.4 0-12.8-1.066-21.334-3.2-1.067 0-2.134-1.066-4.267-1.066-4.267 0-7.466 2.133-9.6 4.267-17.067 20.267-41.6 32-68.267 32-43.733 0-81.067-32-88.534-75.733-1.066-4.267-4.267-8.534-8.534-10.666-1.066-1.066-3.2-1.066-4.267-1.066-3.2 0-5.333 1.066-8.534 3.2-9.6 9.6-20.267 13.867-33.066 13.867z" />
<glyph unicode="&#xe627;" glyph-name="icon-cloud-tipt-phone" d="M371.2 260.267c-7.466 0-13.866-1.067-22.4-3.2-21.334 22.4-51.2 35.2-83.2 35.2-51.2 0-94.933-34.134-109.867-82.133-10.667 6.4-23.466 8.534-36.267 8.534-42.666 0-77.867-35.2-77.867-77.867s35.2-77.866 77.867-77.866h160l-3.2-5.333c-4.267-8.534-1.067-18.134 7.466-22.4l10.666-5.334c0 0 1.067 0 1.067 0 1.067 0 11.733-4.266 26.666 1.067v0c11.733 3.2 26.666 12.8 42.666 33.067h4.267c54.4 0 98.133 43.734 98.133 98.134 2.134 53.333-41.6 98.134-96 98.134zM320 42.667c0 0 0 0 0 0-9.6-3.2-17.067-2.134-18.134-1.067l-10.666 5.333c-2.134 1.067-3.2 3.2-2.134 5.334l12.8 24.534c1.067 2.134 3.2 2.134 5.334 2.134l16-8.534c2.134-1.067 5.334-1.067 7.466 1.067 9.6 9.6 17.067 21.333 23.466 34.133l2.134 4.267c6.4 12.8 10.666 25.6 13.866 38.4 1.067 3.2-1.067 5.333-3.2 7.466l-16 8.534c-2.134 1.066-2.134 3.2-2.134 5.333l12.8 24.534c1.067 2.133 3.2 2.133 5.334 2.133l10.666-5.333c3.2-2.133 28.8-25.6-5.334-90.666-19.2-40.534-38.4-53.334-52.267-57.6zM379.733 83.2c1.067 2.134 3.2 5.333 4.267 8.534 40.534 77.866 2.134 106.666 0 107.733 0 0 0 0-1.067 0l-10.666 5.333c-4.267 2.133-8.534 2.133-12.8 1.066s-7.466-4.267-9.6-8.534l-12.8-24.534c-4.267-8.534-1.067-18.134 7.466-22.4l10.666-5.333c-2.134-10.667-6.4-20.267-11.733-30.933l-2.134-3.2c-5.334-9.6-11.733-19.2-18.134-26.666l-10.666 5.333c-4.267 2.134-8.534 2.134-12.8 1.067s-7.466-4.266-9.6-7.466h-169.6c-32 0-58.666 26.667-58.666 58.667s26.666 58.666 58.666 58.666c12.8 0 25.6-4.267 36.267-12.8 0 0 0 0 0 0s1.066 0 1.066-1.066c0 0 1.066 0 1.066 0s1.066 0 1.066 0c0 0 1.066 0 1.066 0s0 0 0 0 0 0 0 0 0 0 1.066 0c0 0 0 0 0 0s0 0 1.066 0c0 0 0 0 1.066 0 0 0 1.066 0 1.066 0s0 0 1.066 0c0 0 1.066 0 1.066 0s0 0 1.066 0c0 0 1.066 0 1.066 1.066 0 0 0 0 0 0s1.066 1.066 1.066 1.066c0 0 0 0 0 0s0 0 0 0 0 1.066 1.066 1.066c0 0 0 0 0 1.066 0 0 0 1.066 0 1.066s0 1.066 0 1.066c0 0 0 0 0 1.066 7.466 45.867 46.934 80 93.867 80 27.733 0 54.4-11.733 72.534-33.066 0 0 0 0 0 0s1.067-1.066 1.067-1.066c0 0 0 0 1.067 0 0 0 1.067 0 1.067-1.066 0 0 0 0 1.067 0 0 0 1.067 0 1.067 0s1.067 0 1.067 0c0 0 1.067 0 1.067 0s1.067 0 1.067 0c0 0 1.067 0 1.067 0s1.067 0 1.067 0c0 0 0 0 1.067 0 8.534 2.133 16 3.2 22.4 3.2 43.733 0 78.933-35.2 78.933-78.934-1.067-41.6-32-75.733-71.466-80zM226.133 186.667h-21.333c-3.2 0-4.267-2.133-4.267-4.267s1.066-4.267 4.267-4.267h6.4v-40.534c0-3.2 2.133-4.266 4.267-4.266s4.267 1.067 4.267 4.266v40.534h6.4c3.2 0 4.267 2.133 4.267 4.267 1.066 2.133-1.066 4.267-4.267 4.267zM242.133 186.667c-2.133 0-4.267-1.066-4.267-4.267v-45.867c0-3.2 2.133-4.266 4.267-4.266s4.267 1.067 4.267 4.266v45.867c0 3.2-2.133 4.267-4.267 4.267zM273.067 186.667h-11.733c-2.134 0-4.267-2.133-4.267-4.267v-44.8c0-3.2 2.134-4.266 4.267-4.266s4.267 1.067 4.267 4.266v18.134h7.466c8.534 0 14.933 6.4 14.933 14.934 1.067 8.534-6.4 16-14.933 16zM273.067 164.267h-7.466v12.8h7.466c3.2 0 6.4-3.2 6.4-6.4s-2.134-6.4-6.4-6.4zM316.8 186.667h-21.334c-3.2 0-4.267-2.133-4.267-4.267s1.067-4.267 4.267-4.267h6.4v-40.534c0-3.2 2.134-4.266 4.267-4.266s4.267 1.067 4.267 4.266v40.534h6.4c3.2 0 4.267 2.133 4.267 4.267s-1.067 4.267-4.267 4.267z" />
<glyph unicode="&#xe628;" glyph-name="icon-cloud-video-conferencing" d="M462.933 61.866l-21.334 19.2c0 0 0 0 0 0 2.134 3.2 3.2 6.4 3.2 9.6v69.333c0 9.6-7.466 17.066-17.067 17.066h-20.267c-3.2 43.733-39.466 77.867-84.267 77.867-6.4 0-11.733-1.066-19.2-2.133-18.134 19.2-43.733 29.867-70.4 29.867-43.733 0-82.133-28.8-93.867-70.4-9.6 5.333-20.267 7.466-30.933 7.466-37.334 0-67.2-29.867-67.2-67.2s29.867-67.2 67.2-67.2h187.733c1.067-2.134 1.067-3.2 2.134-4.266v0l-21.334-19.2c-6.4-5.333-8.534-10.666-6.4-14.933 3.2-8.534 14.933-9.6 25.6-9.6h145.067c10.666 0 23.466 1.067 25.6 9.6 3.2 4.267 1.067 9.6-4.267 14.933zM430.933 160v-68.266c0-2.134-1.067-3.2-3.2-3.2h-115.2c-2.134 0-3.2 1.067-3.2 3.2v68.266c0 2.133 1.067 3.2 3.2 3.2h115.2c2.134 1.066 3.2-1.066 3.2-3.2zM59.733 153.6c0 27.733 22.4 50.133 50.133 50.133 10.666 0 21.333-4.267 30.934-10.667 0 0 0 0 0 0s0 0 1.066 0c0 0 0 0 1.066 0 0 0 0 0 1.066 0 0 0 1.066 0 1.066 0s0 0 0 0 0 0 0 0 0 0 1.066 0c0 0 0 0 0 0s0 0 1.066 0c0 0 0 0 1.066 0 0 0 1.066 0 1.066 0s0 0 1.066 0c0 0 1.066 0 1.066 0s0 0 0 0 1.066 0 1.066 1.066c0 0 0 0 0 0s1.066 1.066 1.066 1.066c0 0 0 0 0 0s0 0 0 0 0 1.066 1.066 1.066c0 0 0 0 0 1.066 0 0 0 1.066 0 1.066s0 0 0 1.066c0 0 0 0 0 0 6.4 39.466 40.534 68.266 80 68.266 23.467 0 45.867-10.666 61.867-28.8 0 0 0 0 0 0s1.067-1.066 1.067-1.066c0 0 0 0 1.067 0 0 0 0 0 1.067 0 0 0 0 0 1.067 0 0 0 1.067 0 1.067 0s0 0 1.067 0c0 0 1.067 0 1.067 0s0 0 1.067 0c0 0 1.067 0 1.067 0s1.067 0 1.067 0c0 0 0 0 1.067 0 7.466 2.133 12.8 3.2 19.2 3.2 35.2 0 64-26.667 67.2-60.8h-77.867c-9.6 0-17.067-7.466-17.067-17.066v-57.6h-189.867c-27.733-2.134-50.133 20.266-50.133 48zM442.666 50.134h-145.066c-5.334 0-9.6 0-11.733 1.067 0 0 0 0 1.067 1.067l21.334 20.267c0 0 3.2 3.2 9.6 3.2h104.534c6.4 0 9.6-3.2 9.6-3.2l21.334-20.267c0 0 0 0 1.067 0-2.134-1.067-6.4-2.134-11.733-2.134zM322.134 92.8h23.466c3.2 11.733 11.733 17.067 14.933 19.2-3.2 3.2-5.334 7.466-5.334 11.734 0 8.534 7.466 16 16 16s16-7.466 16-16c0-4.267-2.134-9.6-5.334-11.734 3.2-2.134 11.733-7.466 14.933-19.2h23.466c1.067 0 2.134 1.067 2.134 2.134v56.534c0 1.067-1.067 2.133-2.134 2.133h-96c-1.067 0-2.134-1.066-2.134-2.133v-56.534c-3.2-1.067-2.134-2.134 0-2.134z" />
<glyph unicode="&#xe629;" glyph-name="icon-computer-cpu" d="M414.933-42.666h-317.866c-29.867 0-54.4 24.534-54.4 54.4v296.534c0 29.866 24.533 54.4 54.4 54.4h317.866c29.866 0 54.4-24.534 54.4-54.4v-296.534c0-29.866-24.534-54.4-54.4-54.4zM97.067 320c-6.4 0-11.734-5.333-11.734-11.733v-296.534c0-6.4 5.334-11.734 11.733-11.734h317.866c6.4 0 11.733 5.334 11.733 11.734v296.534c0 6.4-5.334 11.733-11.733 11.733h-317.866zM387.2 60.8c0-11.734-9.6-21.334-22.4-21.334h-215.466c-11.733 0-22.4 9.6-22.4 21.334v199.466c0 11.733 9.6 21.333 22.4 21.333h215.466c11.733 0 22.4-9.6 22.4-21.333v-199.466z" />
<glyph unicode="&#xe62a;" glyph-name="icon-coverage-maps" d="M411.733 3.2l-82.133 69.333v245.334l82.134-69.333v-245.333zM296.534 72.534l-82.133-69.333v245.333l82.133 69.334v-245.334zM182.4 4.267l-82.133 68.266v245.334l82.133-68.266v-245.333zM437.334 272c-21.334 18.134-101.334 87.466-106.666 91.734-6.4 6.4-12.8 9.6-18.134 9.6s-11.733-3.2-18.134-8.533l-97.067-83.2-96 83.2c-5.334 4.267-9.6 8.534-16 8.534-11.733 0-18.133-7.466-18.133-18.134v-292.266c0-9.6 4.266-12.8 14.933-21.334 25.6-22.4 93.866-81.067 98.133-85.333 6.4-5.334 12.8-8.534 18.133-8.534s9.6 3.2 18.133 9.6l96 82.133 87.466-74.666c6.4-5.334 20.267-18.134 27.733-18.134 11.733 0 17.067 10.666 17.067 17.067v293.333c0 6.4-3.2 10.667-7.466 14.934z" />
<glyph unicode="&#xe62b;" glyph-name="icon-crm" d="M405.334 199.467c12.8 13.867 19.2 32 19.2 50.133 0 41.6-34.134 74.666-75.733 74.666s-74.666-34.133-74.666-74.666c0-19.2 7.466-37.333 19.2-50.133-10.666-6.4-25.6-18.133-37.334-35.2-12.8 17.066-26.666 28.8-37.334 35.2 12.8 13.867 19.2 32 19.2 50.133 0 41.6-34.133 74.666-75.733 74.666s-74.666-34.133-74.666-74.666c0-19.2 7.466-37.333 19.2-50.133-24.534-14.934-64-51.2-64-123.733 0-17.067 13.867-30.933 30.933-30.933h185.6c0 0 0 0 1.067 0h57.6c13.866-18.134 18.134-24.534 19.2-25.6 0-1.067 0-2.134 0-5.334 0-4.266 1.067-8.534 4.267-11.733s7.466-5.334 11.733-5.334h62.933c8.534 0 14.933 6.4 16 14.933 1.067 6.4 2.134 9.6 4.267 12.8 3.2 5.333 5.334 10.666 6.4 21.333 14.933 2.134 26.666 14.933 26.666 30.933 0 71.466-39.466 107.734-64 122.667zM250.667 68.267h-177.066c-3.2 0-6.4 3.2-6.4 6.4 0 86.4 62.934 108.8 65.066 109.866 4.267 1.066 7.466 5.333 8.534 10.667 1.066 4.267-2.133 9.6-5.333 11.733-14.933 9.6-23.466 25.6-23.466 42.666 0 27.733 22.4 50.133 51.2 50.133 27.733 0 50.133-22.4 50.133-50.133 0-17.066-8.534-33.066-23.466-42.666-4.267-2.133-6.4-7.466-5.333-11.733s4.267-8.534 8.534-10.666c1.066 0 65.067-22.4 65.067-109.867 0-3.2-3.2-6.4-7.466-6.4zM421.334 29.866c-2.134-4.266-5.334-9.6-5.334-19.2h-61.866c0 5.333 0 10.666-2.134 14.933-1.067 2.134-21.334 28.8-38.4 51.2-2.134 3.2 1.067 5.334 2.134 6.4s3.2 2.134 5.334 2.134c2.134 0 4.267-1.067 7.466-3.2l13.866-10.667c1.067-1.067 3.2-2.134 5.334-2.134 1.067 0 2.134 0 3.2 1.067 3.2 1.067 4.267 4.267 4.267 7.466v68.267c0 4.266 3.2 7.466 7.466 7.466h2.134c4.267 0 7.466-3.2 7.466-7.466v-41.6c0-2.134 1.067-4.267 2.134-6.4 2.134-1.067 4.267-2.134 6.4-2.134 0 0 0 0 0 0 3.2 0 6.4 0 9.6 0 23.466 0 36.267-6.4 36.267-37.334 0-18.134-2.134-23.466-5.334-28.8zM442.666 70.4c-4.267 38.4-30.933 43.734-52.267 43.734-1.067 0-2.134 0-3.2 0v33.067c0 12.8-10.666 23.466-23.466 23.466h-1.067c-12.8 0-23.466-10.666-23.466-23.466v-52.267l-1.067 1.067c-5.334 4.267-10.666 6.4-17.067 6.4-5.334 0-11.733-2.134-16-5.333-8.534-7.466-10.666-18.134-5.334-26.667h-18.134c0 2.134 1.067 4.267 1.067 6.4 0 25.6-5.334 46.933-12.8 64 19.2 34.134 48 44.8 50.133 44.8 4.267 1.066 7.466 5.333 8.534 10.666 1.067 4.267-2.134 9.6-5.334 11.733-14.933 9.6-23.466 25.6-23.466 42.666 0 27.734 22.4 50.133 51.2 50.133 27.733 0 50.134-22.4 50.134-50.133 0-17.066-8.534-33.066-23.466-42.666-4.267-2.133-6.4-7.466-5.334-11.733s4.267-8.534 8.534-10.666c1.067 0 65.067-22.4 65.067-109.867-1.067-2.134-2.134-4.266-3.2-5.333z" />
<glyph unicode="&#xe62c;" glyph-name="icon-crowd-support" d="M407.466 180.267c11.733 13.867 18.134 30.934 18.134 50.133 0 42.666-35.2 77.867-78.933 77.867-8.534 0-17.067-1.067-25.6-4.267-17.067 17.066-39.466 26.666-65.067 26.666s-48-10.666-65.067-26.666c-8.534 3.2-17.066 4.267-25.6 4.267-42.666 0-77.867-35.2-77.867-77.867 0-18.133 6.4-36.267 18.133-50.133-25.6-16-62.934-52.267-62.934-124.8 0-18.134 14.934-34.134 34.133-34.134h33.066c2.133-18.134 18.133-33.067 37.334-33.067h216.534c19.2 0 35.2 14.933 37.334 33.067h33.067c19.2 0 34.134 14.933 34.134 34.134 1.067 72.534-36.267 108.8-60.8 124.8zM73.6 55.466c0 84.267 60.8 106.667 62.934 106.667 5.333 2.133 9.6 6.4 10.666 12.8 1.066 5.333-2.133 11.733-7.466 14.934-13.867 8.534-22.4 23.466-22.4 40.534 0 26.666 21.333 48 48 48 2.133 0 4.267 0 6.4-1.066-5.333-11.734-8.534-24.534-8.534-37.334 0-23.466 8.534-44.8 23.466-61.867-26.666-17.066-68.266-53.333-76.8-125.866h-33.067c-2.133 0-3.2 1.067-3.2 3.2zM363.733 19.2h-215.466c-4.267 0-7.466 3.2-7.466 7.466 0 104.534 76.8 132.266 80 133.333 5.333 2.133 9.6 6.4 10.666 12.8 1.066 5.333-2.133 11.733-7.466 14.934-18.133 11.733-28.8 30.934-28.8 52.267 0 34.133 27.733 61.867 61.867 61.867s61.866-27.734 61.866-61.867c0-21.333-10.666-40.534-28.8-52.267-5.334-3.2-7.466-8.534-7.466-14.934 1.067-5.333 4.267-10.666 10.666-12.8 3.2-1.067 80-28.8 80-133.333-1.067-4.266-5.334-7.466-9.6-7.466zM435.2 52.267h-34.133c-8.534 72.534-50.134 108.8-76.8 125.866 14.933 17.066 23.466 38.4 23.466 61.867 0 13.867-3.2 26.667-8.534 37.334 2.134 0 4.267 1.066 6.4 1.066 26.666 0 48-21.334 48-48 0-16-8.534-32-22.4-40.534-5.334-3.2-7.466-8.534-7.466-14.934 1.067-5.333 4.267-10.666 10.666-12.8 2.134-1.066 64-23.466 64-106.667 0-2.134-1.067-3.2-3.2-3.2z" />
<glyph unicode="&#xe62d;" glyph-name="icon-customer-relationship-management" d="M452.267 3.2c0-1.067-1.067-2.134-2.134-2.134h-84.267c-1.067 0-2.134 1.067-2.134 2.134v140.8c0 1.067 1.067 2.134 2.134 2.134h84.267c1.067 0 2.134-1.067 2.134-2.134v-140.8zM449.067 163.2h-84.267c-10.666 0-20.267-8.534-20.267-20.267v-139.733c0-10.667 8.534-20.267 20.267-20.267h84.267c10.666 0 20.267 8.534 20.267 20.267v140.8c0 10.667-8.534 19.2-20.267 19.2zM439.466 135.466h-65.067c-1.067 0-3.2-1.067-3.2-3.2v-86.4c0-1.067 1.067-3.2 3.2-3.2h65.067c1.067 0 3.2 1.067 3.2 3.2v86.4c0 2.134-2.134 3.2-3.2 3.2zM381.866 27.734c-5.334 0-9.6-4.267-9.6-9.6s4.267-9.6 9.6-9.6c5.334 0 9.6 4.266 9.6 9.6-1.067 6.4-5.334 9.6-9.6 9.6zM433.067 27.734c-5.334 0-9.6-4.267-9.6-9.6s4.267-9.6 9.6-9.6c5.334 0 9.6 4.266 9.6 9.6 0 6.4-4.267 9.6-9.6 9.6zM407.466 27.734c-5.334 0-9.6-4.267-9.6-9.6s4.267-9.6 9.6-9.6c5.334 0 9.6 4.266 9.6 9.6-1.067 6.4-4.267 9.6-9.6 9.6zM432 224c0-6.4-5.334-11.733-10.666-11.733h-97.067c-3.2 0-6.4-1.066-8.534-3.2l-10.666-10.666v103.467c0 6.4 5.334 10.666 11.733 10.666h105.6c6.4 0 10.666-5.334 10.666-10.666v-77.867zM421.334 336h-105.6c-19.2 0-35.2-16-35.2-35.2v-133.333c0-5.333 3.2-9.6 7.466-10.666 1.067-1.067 3.2-1.067 4.267-1.067 3.2 0 6.4 1.067 8.534 4.267l27.733 28.8h91.733c19.2 0 35.2 16 35.2 35.2v76.8c1.067 19.2-14.933 35.2-34.133 35.2zM283.733 18.134c0-6.4-5.334-12.8-12.8-12.8h-196.267c-6.4 0-12.8 5.333-12.8 12.8v23.466c0 48 32 91.734 78.933 105.6 4.267 1.067 6.4 4.267 7.466 8.534 0 4.267-1.066 7.466-5.333 9.6-5.333 3.2-10.666 7.466-16 12.8l-14.933 16 19.2-9.6c11.733-6.4 25.6-9.6 38.4-9.6 4.267 0 7.466 3.2 7.466 7.466s-3.2 7.466-7.466 7.466c-18.133 0-35.2 7.466-46.934 19.2l-1.067 1.066v2.133c0 2.133 0 4.267 0 6.4 0 8.534-2.133 16-5.334 22.4l-1.067 2.133 2.133 2.133c10.666 21.333 32 35.2 55.467 35.2 34.133 0 61.867-27.734 61.867-61.867 0-22.4-11.733-42.667-32-53.333-3.2-2.133-5.333-5.333-5.333-9.6s3.2-7.467 7.466-8.534c46.934-13.866 78.934-57.6 78.934-105.6v-23.466zM98.133 196.267c-5.334 0-12.8 9.6-12.8 23.466 0 12.8 6.4 23.466 12.8 23.466 5.334 0 12.8-9.6 12.8-23.466 0-12.8-6.4-23.466-12.8-23.466zM232.534 157.867l-4.267 2.134 3.2 4.267c13.867 14.934 22.4 35.2 22.4 55.466 0 44.8-36.267 81.066-81.066 81.066-29.867 0-57.6-17.066-71.466-43.733l-1.067-1.066h-2.133c-1.067 0-1.067 0-2.133-1.066v0 0c-11.734-2.133-21.334-17.066-21.334-35.2 0-19.2 9.6-34.133 22.4-35.2h2.133l1.067-2.133c3.2-7.466 8.534-13.867 13.867-19.2l3.2-3.2-4.266-2.134c-42.666-22.4-70.4-68.266-70.4-116.266v-23.466c0-18.134 14.934-32 32-32h196.267c18.134 0 32 14.933 32 32v23.466c0 48-27.733 93.866-70.4 116.266z" />
<glyph unicode="&#xe62e;" glyph-name="icon-data-calculator" d="M276.267 195.2h-110.933v4.267c0 4.267-4.267 8.534-8.534 8.534s-8.534-4.267-8.534-8.534v-4.267h-10.666c-8.534 0-14.933-6.4-14.933-14.934s6.4-14.934 14.933-14.934h10.666v-1.066c0-4.266 4.267-8.533 8.534-8.533s8.534 4.267 8.534 8.534v1.066h112c8.534 0 14.933 6.4 14.933 14.934-1.067 8.534-7.466 14.934-16 14.934zM276.267 265.6h-14.933v3.2c0 4.267-4.267 8.534-8.534 8.534s-8.534-4.267-8.534-8.534v-3.2h-106.666c-8.534 0-14.933-6.4-14.933-14.934s6.4-14.934 14.933-14.934h106.666v-3.2c0-4.267 4.267-8.534 8.534-8.534s8.534 4.267 8.534 8.534v3.2h14.933c8.534 0 14.933 6.4 14.933 14.934s-6.4 14.934-14.933 14.934zM276.267 124.8h-51.2v4.266c0 4.267-4.267 8.534-8.534 8.534s-8.534-4.266-8.534-8.534v-4.266h-71.466c-8.534 0-14.933-6.4-14.933-14.933s6.4-14.933 14.933-14.933h71.466v-2.134c0-4.267 4.267-8.534 8.534-8.534s8.534 4.266 8.534 8.534v3.2h51.2c8.534 0 14.933 6.4 14.933 14.933 0 7.466-6.4 13.866-14.933 13.866zM353.067 67.2c-2.134-2.134-2.134-7.466 0-9.6l34.134-34.134c1.067-1.067 1.067-1.067 2.134-1.067 0 0 0 0 0 0 1.067 0 1.067 0 2.134 0s2.134 0 2.134 0c0 0 0 0 0 0 1.067 0 1.067 1.067 2.134 1.067l34.134 34.134c2.134 2.134 2.134 7.466 0 9.6s-7.466 2.134-9.6 0l-22.4-22.4v101.334c0 4.266-3.2 6.4-6.4 6.4-4.267 0-6.4-3.2-6.4-6.4v-101.334l-22.4 22.4c-3.2 2.134-7.466 2.134-9.6 0zM446.933 124.8h-26.666c-4.267 0-6.4-3.2-6.4-6.4 0-4.267 3.2-6.4 6.4-6.4h26.666c4.267 0 8.534-4.267 8.534-8.534v-103.466c0-4.267-4.267-8.534-8.534-8.534h-108.8c-4.267 0-8.534 4.266-8.534 8.534v103.466c0 4.266 4.267 8.534 8.534 8.534h25.6c3.2 0 6.4 3.2 6.4 6.4 0 0 0 0 0 1.067 0 0 0 0 0 1.067v174.933c0 25.6-21.334 46.933-46.933 46.933h-233.6c-25.6 0-46.934-21.333-46.934-46.933v-229.333c0-25.6 21.334-46.933 46.934-46.933h226.133v-19.2c0-11.733 9.6-22.4 22.4-22.4h109.867c11.733 0 22.4 9.6 22.4 22.4v103.466c-1.067 11.734-10.666 21.334-23.466 21.334zM315.733 102.4v-55.466h-226.133c-9.6 0-18.133 8.534-18.133 18.134v230.4c0 9.6 8.534 18.133 18.133 18.133h233.6c9.6 0 18.134-8.534 18.134-18.133v-169.6h-4.267c-11.733-1.067-21.334-10.667-21.334-23.466z" />
<glyph unicode="&#xe62f;" glyph-name="icon-desk" d="M419.2 161.067h-109.867v16h56.534c18.134 0 33.067 14.934 33.067 33.066v130.133c0 18.133-14.933 33.067-33.067 33.067h-219.733c-18.133 0-33.066-14.934-33.066-33.067v-129.066c0-18.133 14.934-33.066 33.066-33.066h54.4v-16h-107.734c-26.666 0-48-21.333-48-48v-3.2c0-26.667 21.334-48 48-48h4.266v-99.2c0-8.534 7.466-16 16-16s16 7.466 16 16v99.2h253.867v-99.2c0-8.534 7.466-16 16-16s16 7.466 16 16v99.2h4.267c26.666 0 48 21.333 48 48v3.2c0 25.6-21.334 46.934-48 46.934zM146.133 203.734c-4.267 0-7.466 3.2-7.466 7.466v129.066c0 4.267 3.2 7.466 7.466 7.466h219.733c4.267 0 7.466-3.2 7.466-7.466v-129.066c0-4.267-3.2-7.466-7.466-7.466h-219.733zM435.2 109.866c0-9.6-7.466-17.067-17.067-17.067h-325.334c-9.6 0-17.067 7.466-17.067 17.067v3.2c0 9.6 7.466 17.067 17.067 17.067h326.4c9.6 0 17.067-7.466 17.067-17.067v-3.2zM347.733 328.534h-183.466c-3.2 0-5.333-2.133-5.333-5.333v-93.867c0-3.2 2.133-5.333 5.333-5.333h182.4c3.2 0 5.334 2.133 5.334 5.333v93.867c1.067 2.134-2.134 5.334-4.267 5.334z" />
<glyph unicode="&#xe630;" glyph-name="icon-device-support" d="M170.667 40.534c0-11.193-9.073-20.266-20.267-20.266s-20.267 9.073-20.267 20.266c0 11.193 9.073 20.267 20.267 20.267s20.267-9.074 20.267-20.267zM352 158.934v156.8c0 32-25.6 57.6-57.6 57.6h-155.733c-32 0-57.6-25.6-57.6-57.6v-295.466c0-32 25.6-57.6 57.6-57.6h139.733c16-10.667 36.267-16 56.534-16 58.666 0 106.666 48 106.666 106.666 0 53.334-39.466 97.067-89.6 105.6zM114.133 20.267v295.466c0 13.866 10.666 24.534 24.534 24.534h155.733c13.866 0 24.534-10.667 24.534-24.534v-156.8c-9.6-1.067-18.134-4.267-26.666-7.467 1.067 3.2 2.134 5.334 2.134 8.534v131.2c0 13.866-10.666 24.534-24.534 24.534h-106.666c-13.867 0-24.534-10.667-24.534-24.534v-131.2c0-13.867 10.666-24.534 24.534-24.534h103.466c-22.4-19.2-37.334-46.933-38.4-77.866-3.2 3.2-7.466 4.267-12.8 4.267-11.733 0-20.267-9.6-20.267-20.267 0-11.733 9.6-20.266 20.267-20.266 6.4 0 11.733 3.2 16 7.466 3.2-11.734 7.466-22.4 13.867-32h-106.666c-13.867-1.067-24.534 10.666-24.534 23.466zM334.933-28.8c-44.8 0-82.133 37.333-82.133 82.133s37.333 82.134 82.133 82.134c44.8 0 82.134-37.333 82.134-82.134s-36.267-82.134-82.134-82.134zM336 118.4c-21.334 0-39.466-18.134-39.466-39.466 0-5.333 4.267-9.6 9.6-9.6s9.6 4.267 9.6 9.6c0 11.734 9.6 21.334 21.334 21.334s21.334-9.6 21.334-21.334c0-11.733-9.6-21.333-21.334-21.333-5.334 0-9.6-4.267-9.6-9.6v-23.466c0-5.334 4.267-9.6 9.6-9.6s9.6 4.266 9.6 9.6v16c17.067 4.266 29.866 19.2 29.866 38.4-2.134 21.333-19.2 39.466-40.534 39.466zM329.6 2.134c-2.134-2.134-3.2-4.266-3.2-6.4s1.067-4.266 3.2-6.4c2.134-2.134 4.267-2.134 6.4-2.134s4.267 1.067 6.4 2.134c2.134 2.134 2.134 4.267 2.134 6.4s-1.067 4.267-2.134 6.4c-3.2 3.2-9.6 3.2-12.8 0z" />
<glyph unicode="&#xe631;" glyph-name="icon-direct-debit" d="M256 373.334c-116.267 0-210.133-96-210.133-213.333s93.867-213.333 210.133-213.333c116.267 0 210.134 96 210.134 213.334s-93.866 213.334-210.134 213.334zM256-17.067c-96 0-174.934 80-174.934 177.067 0 98.133 78.934 177.066 174.934 177.066s174.933-80 174.933-177.066c0-97.067-78.933-177.067-174.934-177.067zM292.267 161.067c-7.466 6.4-16 11.733-24.534 16s-17.066 9.6-24.534 12.8c-7.466 4.267-13.867 8.534-18.133 12.8-5.333 4.267-7.466 8.534-7.466 14.934v6.4c0 4.267 1.066 7.466 3.2 10.667s4.267 6.4 7.466 8.534c3.2 2.133 6.4 4.267 10.667 5.333s7.466 2.133 11.733 2.133h3.2c9.6 0 16-1.066 21.334-4.267 4.267-2.133 8.534-8.534 10.666-17.066 1.067-4.267 3.2-8.534 5.334-10.667s6.4-4.267 10.666-4.267c4.267 0 8.534 1.066 10.666 4.267 3.2 3.2 4.267 6.4 4.267 10.666v2.133c0 7.466-1.067 13.867-4.267 19.2-2.134 5.333-6.4 10.667-10.666 14.933s-9.6 7.466-16 9.6c-6.4 2.134-12.8 4.267-19.2 5.333v9.6c0 5.334-1.067 9.6-4.267 12.8-2.134 2.133-5.334 4.267-8.534 4.267s-6.4-1.067-8.534-4.267c-2.133-3.2-4.267-6.4-4.267-12.8v-10.667c-6.4-1.066-12.8-3.2-19.2-6.4s-11.733-7.466-16-11.733c-4.267-5.334-8.534-10.667-11.733-17.066s-4.267-13.867-4.267-21.334v-6.4c0-9.6 2.133-18.133 7.466-25.6s10.666-12.8 18.133-19.2c7.466-5.333 16-10.666 24.534-14.933s17.066-8.533 24.533-12.8c7.466-4.266 13.866-9.6 19.2-14.933s7.466-12.8 7.466-20.266c0-9.6-3.2-18.134-10.666-22.4-7.466-5.334-16-7.466-26.666-7.466h-3.2c-10.666 0-18.133 3.2-25.6 8.534-6.4 5.333-9.6 13.866-9.6 24.534 0 5.333-1.066 9.6-4.267 11.733-2.133 2.134-5.333 4.267-8.534 4.267s-6.4-1.067-8.534-4.267c-2.133-2.134-4.267-6.4-4.267-11.733 0-8.534 1.066-17.067 4.267-24.534 2.133-7.466 6.4-13.866 10.666-19.2s9.6-9.6 16-13.866c6.4-3.2 12.8-5.333 19.2-6.4v-10.666c0-5.334 1.066-9.6 4.267-11.734 2.133-2.134 5.333-4.266 8.534-4.266s6.4 1.067 8.534 4.266c2.134 3.2 4.267 6.4 4.267 11.734v10.666c7.466 1.067 13.866 3.2 20.267 6.4s11.733 7.466 16 12.8c4.267 5.333 7.466 11.733 10.666 18.134 2.134 7.466 4.267 14.933 4.267 22.4 0 11.733-2.134 21.333-7.466 29.866-3.2 9.6-9.6 17.066-17.067 23.466z" />
<glyph unicode="&#xe632;" glyph-name="icon-document-service-improve-reporting" d="M166.4 86.4v2.134c0 6.4 5.333 9.6 12.8 9.6h1.066c7.466 0 12.8-3.2 12.8-7.466 0-5.333 4.267-8.534 8.534-8.534s9.6 3.2 9.6 8.534c0 14.933-14.934 25.6-30.934 25.6h-1.066c-13.867 0-30.934-9.6-30.934-26.666v-3.2c0-28.8 45.867-30.933 45.867-50.134 0-8.534-5.333-11.733-13.867-11.733h-1.066c-8.534 0-13.867 4.266-13.867 13.866 0 6.4-4.267 9.6-9.6 9.6s-9.6-3.2-9.6-9.6c0-20.267 14.934-30.933 32-30.933h1.066c18.133 0 32 11.733 32 29.866 1.066 32-44.8 36.266-44.8 49.067zM279.466 98.134c6.4 0 9.6 4.267 9.6 9.6 0 4.267-3.2 8.534-9.6 8.534h-45.867c-5.333 0-9.6-4.266-9.6-9.6v-90.666c0-5.334 4.267-9.6 9.6-9.6h45.867c6.4 0 9.6 4.266 9.6 8.534s-3.2 9.6-9.6 9.6h-37.334v28.8h24.534c6.4 0 9.6 4.267 9.6 8.534s-3.2 9.6-9.6 9.6h-24.534v25.6h37.334zM333.866 116.267h-24.534c-5.334 0-9.6-4.267-9.6-9.6v-91.734c0-6.4 4.267-8.534 9.6-8.534 4.267 0 9.6 3.2 9.6 8.534v36.267h9.6l19.2-40.534c2.134-4.267 4.267-5.334 7.466-5.334 5.334 0 9.6 3.2 9.6 8.534 0 1.067 0 2.134-1.067 4.267l-17.067 35.2c11.733 5.334 19.2 16 19.2 28.8v1.067c-1.067 19.2-14.933 33.067-32 33.067zM346.666 83.2c0-7.466-5.334-13.866-12.8-13.866h-17.067v27.733h16c7.466 0 12.8-6.4 12.8-13.866v0zM421.334 240c0 1.066 0 1.066-1.067 2.133 0 0 0 1.066 0 1.066 0 1.066-1.067 1.066-1.067 2.133 0 0 0 0 0 1.066-1.067 1.066-1.067 2.133-2.134 2.133 0 0 0 0 0 0l-119.466 119.466c0 0 0 0 0 0-1.067 1.067-1.067 1.067-2.134 2.134 0 0-1.067 0-1.067 0-1.067 0-1.067 1.066-2.134 1.066 0 0-1.067 0-1.067 0-1.067 0-1.067 0-2.134 1.067-1.067 0-2.134 0-3.2 0h-145.066c-28.8 0-51.2-21.334-51.2-49.067v-329.6c0-26.666 21.334-49.067 49.067-49.067h234.666c26.666 0 49.067 21.334 49.067 49.067v243.2c0 1.066 0 2.133-1.067 3.2zM302.933 314.667l60.8-60.8h-44.8c-8.534 0-16 7.466-16 16v44.8zM373.334-19.2h-234.667c-7.466 0-13.867 6.4-13.867 13.866v329.6c0 8.534 7.466 13.866 17.066 13.866h128v-68.266c0-27.734 22.4-50.134 51.2-50.134h68.267v-224c-1.067-8.534-7.466-14.933-16-14.933z" />
<glyph unicode="&#xe633;" glyph-name="icon-document-zip" d="M417.067 299.734h-19.2v19.2c0 28.8-23.466 52.267-52.267 52.267h-250.667c-28.8 0-52.267-23.466-52.267-52.267v-246.4c0-28.8 23.467-52.266 52.267-52.266h19.2v-19.2c0-28.8 23.467-52.266 52.266-52.266h251.734c28.8 0 52.267 23.466 52.267 52.266v246.4c-1.067 28.8-24.534 52.267-53.334 52.267zM114.133 247.467v-194.134h-19.2c-9.6 0-18.133 8.534-18.133 18.134v247.466c0 9.6 8.534 18.134 18.133 18.134h251.733c9.6 0 18.134-8.534 18.134-18.134v-19.2h-199.466c-28.8 0-51.2-23.466-51.2-52.266zM435.2 1.067c0-9.6-8.534-18.134-18.134-18.134h-251.733c-9.6 0-18.133 8.534-18.133 18.134v246.4c0 9.6 8.534 18.133 18.133 18.133h251.733c9.6 0 18.134-8.534 18.134-18.133v-246.4zM263.466 167.467c0 2.133-1.067 5.333-2.134 6.4-1.067 2.133-3.2 3.2-6.4 3.2h-40.534c-3.2 0-5.333-1.066-6.4-2.133-1.066-2.133-2.133-3.2-2.133-5.333s1.066-4.267 2.133-6.4c1.066-2.133 3.2-2.133 6.4-2.133h28.8l-38.4-69.333c0-1.067-1.066-2.134-1.066-2.134 0-1.067 0-2.134 0-2.134 0-3.2 1.066-5.334 2.133-7.466s3.2-3.2 6.4-3.2h41.6c3.2 0 5.334 1.067 6.4 2.134 1.067 2.134 2.134 3.2 2.134 6.4 0 2.134-1.067 4.267-2.134 5.334s-3.2 2.134-6.4 2.134h-28.8l36.266 69.333c1.067 1.066 2.134 3.2 2.134 5.333zM286.933 178.134c-2.134 0-4.267-1.066-6.4-2.133s-2.134-3.2-2.134-6.4v-86.4c0-3.2 1.067-5.334 2.134-6.4s3.2-2.134 6.4-2.134c2.134 0 4.267 1.067 6.4 2.134s2.134 3.2 2.134 6.4v86.4c0 3.2-1.067 5.333-2.134 6.4s-4.267 2.133-6.4 2.133zM366.933 168.534c-2.134 2.133-5.334 4.267-9.6 6.4-3.2 1.066-7.466 2.133-11.733 2.133h-22.4c-2.134 0-4.267-1.066-6.4-2.133-2.134-2.133-2.134-3.2-2.134-6.4v-85.333c0-3.2 1.067-5.334 2.134-6.4 3.2-2.134 5.334-2.134 7.466-2.134s4.267 1.067 6.4 2.134c2.134 1.067 2.134 3.2 2.134 6.4v35.2h13.866c4.267 0 7.466 1.067 11.733 2.134 3.2 1.067 6.4 3.2 9.6 6.4 2.134 2.134 4.267 5.334 6.4 9.6 1.067 3.2 2.134 7.466 2.134 11.734s-1.067 7.466-2.134 11.733c-3.2 3.2-5.334 6.4-7.466 8.534zM355.2 138.667c-2.134-2.134-5.334-3.2-8.534-3.2h-13.866v24.534h13.866c2.134 0 3.2 0 5.334-1.067 1.067-1.067 3.2-1.067 4.267-2.134s2.134-2.134 2.134-4.266c1.067-1.067 1.067-3.2 1.067-4.267-1.067-4.266-2.134-6.4-4.267-9.6z" />
<glyph unicode="&#xe634;" glyph-name="icon-dot" d="M124.8 88.534c-5.334 0-9.6 4.267-9.6 9.6v123.734c0 5.333 4.266 9.6 9.6 9.6h32c23.466 0 41.6-18.133 41.6-41.6v-60.8c0-23.466-18.133-41.6-41.6-41.6h-32zM178.133 189.867c0 12.8-7.466 22.4-21.333 22.4h-21.334v-103.466h21.334c12.8 0 21.334 9.6 21.334 22.4v58.666zM262.4 232.534v0c24.534 0 42.666-18.133 42.666-41.6v-61.867c0-23.466-18.134-41.6-41.6-41.6h-1.067c-23.466 0-41.6 18.134-41.6 41.6v61.867c0 23.466 17.066 41.6 41.6 41.6zM241.066 129.067c0-12.8 7.466-22.4 21.333-22.4h1.067c12.8 0 21.334 9.6 21.334 22.4v60.8c0 12.8-7.466 22.4-21.334 22.4h-1.067c-12.8 0-21.334-9.6-21.334-22.4v-60.8zM364.8 97.067c0-5.333-4.267-9.6-10.666-9.6-5.334 0-9.6 4.267-9.6 9.6v115.2h-22.4c-6.4 0-9.6 5.333-9.6 9.6s3.2 9.6 9.6 9.6h65.067c6.4 0 9.6-4.267 9.6-9.6s-3.2-9.6-9.6-9.6h-22.4v-115.2zM256 373.334c-117.334 0-213.333-96-213.333-213.333s96-213.333 213.333-213.333c117.334 0 213.333 96 213.333 213.334s-96 213.334-213.333 213.334zM256-17.067c-98.133 0-177.066 78.933-177.066 177.067s78.934 177.066 177.066 177.066c98.134 0 177.067-80 177.067-177.066 0-98.134-78.933-177.067-177.067-177.067z" />
<glyph unicode="&#xe635;" glyph-name="icon-download" d="M185.6 169.6c-6.4 6.4-17.066 6.4-23.466 0s-6.4-17.067 0-23.466l82.133-82.134c1.066-1.067 3.2-3.2 5.333-3.2 0 0 0 0 0 0 2.133-1.067 4.267-1.067 6.4-1.067s4.267 0 6.4 1.067c0 0 0 0 0 0 2.134 1.067 4.267 2.134 5.334 3.2l82.133 82.134c6.4 6.4 6.4 17.067 0 23.467s-17.067 6.4-23.466 0l-54.4-54.4v242.134c0 8.534-7.466 16-16 16s-16-7.466-16-16v-242.134l-54.4 54.4zM387.2 309.334h-62.933c-8.534 0-16-7.466-16-16s7.466-16 16-16h62.933c10.666 0 20.267-9.6 20.267-20.267v-257.067c0-10.666-9.6-20.266-20.267-20.266h-262.4c-10.666 0-20.267 9.6-20.267 20.266v257.067c0 10.667 9.6 20.267 20.267 20.267h62.934c8.534 0 16 7.466 16 16s-7.466 16-16 16h-62.934c-28.8 0-53.334-23.466-53.334-52.267v-257.067c0-28.8 23.466-53.333 53.334-53.333h262.4c28.8 0 53.334 23.466 53.334 53.333v257.067c-1.067 28.8-24.534 52.267-53.334 52.267z" />
<glyph unicode="&#xe636;" glyph-name="icon-international-roaming-data-pack" d="M389.334 84.267c-3.2-1.067-6.4-2.134-9.6-4.267l-12.8-10.666-42.666 8.534c-2.134 0-4.267 0-6.4-2.134l-5.334-5.334c-3.2-1.067-3.2-4.266-3.2-6.4s2.134-4.266 3.2-5.333l27.733-14.933-9.6-10.667-9.6 3.2c-2.134 1.067-5.334 0-6.4-1.067l-6.4-5.334c-2.134-1.067-2.134-4.266-2.134-6.4s2.134-4.266 4.267-5.333l7.466-4.267c0-1.067 0-3.2 1.067-4.266 0-1.067 1.067-1.067 2.134-2.134 0 0 1.067-1.067 2.134-1.067 2.134-1.067 3.2-1.067 4.267-1.067l4.267-7.466c1.067-2.134 3.2-3.2 5.334-3.2h1.067c2.134 0 4.267 1.067 5.334 2.134l5.334 5.334c2.134 2.134 2.134 4.266 2.134 7.466l-3.2 8.534 11.733 8.534 16-26.667c1.067-2.134 3.2-3.2 5.334-3.2s4.267 0 6.4 2.134l5.334 5.333c2.134 2.134 2.134 4.267 2.134 6.4l-8.534 39.466 10.666 11.734c2.134 3.2 4.267 6.4 5.334 8.534 0 6.4-1.067 9.6-2.134 10.666-2.134 3.2-5.334 4.267-10.666 3.2zM394.666 74.667c-1.067-2.134-2.134-5.334-4.267-7.466l-12.8-14.933 9.6-43.734-5.334-4.266-20.267 33.067-21.334-17.067 4.267-13.866-5.334-5.334-6.4 12.8-2.134-1.067c0 0-2.134 0-3.2 0-1.067 1.067-1.067 2.134 0 3.2l1.067 1.067-13.866 6.4 6.4 5.334 13.866-4.267 18.134 20.267-35.2 20.266 5.334 5.334 46.933-9.6 14.933 11.733c2.134 2.134 5.334 3.2 7.466 3.2 2.134 3.2 2.134 1.067 2.134-1.067zM144 192c-5.333-5.333-5.333-14.934 0-20.267l72.534-72.533c1.066-1.067 3.2-2.134 4.267-3.2 2.133-1.067 3.2-1.067 5.333-1.067s3.2 0 5.333 1.067c2.133 1.067 3.2 2.134 4.267 3.2l72.534 72.533c5.334 5.333 5.334 14.934 0 20.267s-14.933 5.333-20.267 0l-48-48v214.4c0 7.466-6.4 14.933-16 14.933-7.466 0-14.934-6.4-14.934-14.933v-214.4l-45.867 48c-5.333 5.333-13.867 5.333-19.2 0zM390.4 125.866v144c0 25.6-21.334 46.934-46.933 46.934h-55.466c-7.466 0-14.933-6.4-14.933-14.933 0-7.466 6.4-13.867 14.933-13.867h55.466c9.6 0 18.134-8.534 18.134-18.133v-137.6c-2.134 0-3.2 0-5.334 0-51.2 0-92.8-41.6-92.8-92.8 0-5.333 0-10.666 1.067-16h-154.667c-9.6 0-17.067 8.534-17.067 18.134v228.267c0 9.6 7.466 18.133 17.067 18.133h55.466c7.466 0 14.934 6.4 14.934 14.933 0 7.466-6.4 14.934-14.934 14.934h-55.466c-24.534 0-45.867-21.334-45.867-46.934v-228.267c0-25.6 21.334-46.933 46.934-46.933h163.2c16-28.8 46.933-49.067 82.134-49.067 51.2 0 92.8 41.6 92.8 92.8-1.067 39.466-24.534 72.534-58.666 86.4zM405.334-9.6c-12.8-12.8-29.866-20.266-49.067-20.266s-37.334 7.466-49.067 20.266c-12.8 12.8-20.267 29.866-20.267 49.067s7.466 37.334 20.267 49.067c12.8 12.8 29.866 20.267 49.067 20.267s37.334-7.466 49.067-20.267c12.8-12.8 20.267-29.866 20.267-49.067s-7.466-37.333-20.267-49.067z" />
<glyph unicode="&#xe637;" glyph-name="icon-data-plus-pack" d="M142.934 193.067c-5.333-5.333-5.333-14.934 0-20.267l72.534-72.534c1.066-1.067 3.2-2.134 4.267-3.2 0 0 0 0 0 0 2.133-1.067 3.2-1.067 5.333-1.067s3.2 0 5.333 1.067c0 0 0 0 0 0 2.133 1.067 3.2 2.134 4.267 3.2l72.534 72.534c5.334 5.333 5.334 14.934 0 20.267s-14.933 5.333-20.267 0l-48-48v213.333c2.133 8.534-4.267 14.933-12.8 14.933-7.466 0-14.934-6.4-14.934-14.933v-214.4l-48 48c-5.333 6.4-13.867 6.4-20.267 1.066zM389.334 126.933v142.934c0 25.6-21.334 46.934-46.933 46.934h-55.466c-7.466 0-14.933-6.4-14.933-14.934s6.4-14.933 14.933-14.933h55.466c9.6 0 18.134-8.534 18.134-18.133v-137.6c-2.134 0-3.2 0-5.334 0-51.2 0-92.8-41.6-92.8-92.8 0-5.334 1.067-10.667 1.067-16h-153.6c-9.6 0-18.133 8.534-18.133 18.134v229.333c0 9.6 8.534 18.134 18.133 18.134h55.466c7.466 0 13.867 6.4 13.867 14.933s-6.4 14.933-13.867 14.933h-55.466c-25.6 0-46.934-21.334-46.934-46.933v-228.267c0-25.6 21.334-46.933 46.934-46.933h162.133c16-28.8 46.933-49.067 82.133-49.067 51.2 0 92.8 41.6 92.8 92.8 1.067 39.466-23.466 73.6-57.6 87.466zM404.267-9.6c-12.8-12.8-29.866-20.266-49.067-20.266s-37.334 7.466-49.067 20.266c-12.8 12.8-20.267 29.866-20.267 49.067s7.466 37.334 20.267 49.067c12.8 12.8 29.866 20.267 49.067 20.267s37.334-7.466 49.067-20.267c12.8-12.8 20.267-29.866 20.267-49.067 1.067-19.2-7.466-36.266-20.267-49.067zM388.267 51.2h-21.334v21.333c0 6.4-5.334 11.734-11.733 11.734s-11.733-5.334-11.733-11.734v-21.333h-21.334c-6.4 0-11.733-5.334-11.733-11.734s5.334-11.733 11.733-11.733h21.334v-21.334c0-6.4 5.334-11.733 11.733-11.733s11.733 5.333 11.733 11.733v21.334h21.334c6.4 0 11.733 5.333 11.733 11.733s-5.334 11.734-11.733 11.734z" />
<glyph unicode="&#xe638;" glyph-name="icon-download-exe" d="M417.067 299.734h-19.2v19.2c0 28.8-23.466 52.267-52.267 52.267h-250.667c-28.8 0-52.267-23.466-52.267-52.267v-246.4c0-28.8 23.467-52.266 52.267-52.266h19.2v-19.2c0-28.8 23.467-52.266 52.266-52.266h251.734c28.8 0 52.267 23.466 52.267 52.266v246.4c-1.067 28.8-24.534 52.267-53.334 52.267zM114.133 247.467v-194.134h-19.2c-9.6 0-18.133 8.534-18.133 18.134v247.466c0 9.6 8.534 18.134 18.133 18.134h251.733c9.6 0 18.134-8.534 18.134-18.134v-19.2h-199.466c-28.8 0-51.2-23.466-51.2-52.266zM435.2 1.067c0-9.6-8.534-18.134-18.134-18.134h-251.733c-9.6 0-18.133 8.534-18.133 18.134v246.4c0 9.6 8.534 18.133 18.133 18.133h251.733c9.6 0 18.134-8.534 18.134-18.133v-246.4zM241.066 160c3.2 0 5.333 1.066 6.4 2.133 1.066 2.133 2.133 4.267 2.133 6.4s-1.066 4.267-2.133 5.333c-1.066 2.133-3.2 2.133-6.4 2.133h-42.667c-2.133 0-4.267-1.066-6.4-2.133-2.133-2.133-2.133-3.2-2.133-6.4v-84.266c0-2.134 1.066-4.267 2.133-6.4 2.133-2.134 3.2-2.134 6.4-2.134h42.666c3.2 0 5.333 1.067 6.4 2.134 1.066 2.134 2.133 3.2 2.133 5.333s-1.066 4.267-2.133 6.4c-1.066 2.134-3.2 2.134-6.4 2.134h-34.133v26.667h23.466c3.2 0 5.333 1.067 6.4 2.134 1.066 2.134 2.133 3.2 2.133 5.333s-1.066 4.267-2.133 6.4c-1.066 2.134-3.2 2.134-6.4 2.134h-23.466v26.667h34.133zM298.666 128l19.2 38.4c1.067 1.066 1.067 3.2 1.067 4.267 0 2.133-1.067 4.267-3.2 6.4-2.134 1.066-4.267 2.133-6.4 2.133-1.067 0-3.2 0-4.267-1.066s-2.134-2.133-3.2-3.2l-12.8-26.667-12.8 26.667c-1.067 2.133-2.134 3.2-3.2 3.2-1.067 1.066-3.2 1.066-4.267 1.066-2.134 0-4.267-1.066-6.4-2.133s-3.2-3.2-3.2-6.4c0-1.066 0-1.066 0-2.133s0-1.066 1.067-2.133l19.2-38.4-20.267-40.534c-1.067-1.067-1.067-3.2-1.067-4.266 0-2.134 1.067-4.267 3.2-6.4s3.2-2.134 5.334-2.134c1.067 0 3.2 0 4.267 1.067s2.134 2.134 3.2 3.2l14.933 29.866 14.933-29.866c1.067-2.134 2.134-3.2 3.2-3.2s2.134-1.067 4.267-1.067c2.134 0 4.267 1.067 6.4 2.134s3.2 3.2 3.2 6.4c0 1.067 0 3.2-1.067 4.266l-21.334 40.534zM386.134 160c3.2 0 5.334 1.066 6.4 2.133 1.067 2.133 2.134 4.267 2.134 6.4s-1.067 4.267-2.134 5.333c-1.067 2.133-3.2 2.133-6.4 2.133h-42.666c-2.134 0-4.267-1.066-6.4-2.133-2.134-2.133-2.134-3.2-2.134-6.4v-84.266c0-2.134 1.067-4.267 2.134-6.4 2.134-2.134 3.2-2.134 6.4-2.134h42.666c3.2 0 5.334 1.067 6.4 2.134 1.067 2.134 2.134 3.2 2.134 5.333s-1.067 4.267-2.134 6.4c-1.067 2.134-3.2 2.134-6.4 2.134h-34.134v26.667h23.466c3.2 0 5.334 1.067 6.4 2.134 1.067 2.134 2.134 3.2 2.134 5.333s-1.067 4.267-2.134 6.4c-1.067 2.134-3.2 2.134-6.4 2.134h-23.466v26.667h34.134z" />
<glyph unicode="&#xe639;" glyph-name="icon-download-jpg" d="M417.067 299.734h-19.2v19.2c0 28.8-23.466 52.267-52.267 52.267h-250.667c-28.8 0-52.267-23.466-52.267-52.267v-246.4c0-28.8 23.467-52.266 52.267-52.266h19.2v-19.2c0-28.8 23.467-52.266 52.266-52.266h251.734c28.8 0 52.267 23.466 52.267 52.266v246.4c-1.067 28.8-24.534 52.267-53.334 52.267zM114.133 247.467v-194.134h-19.2c-9.6 0-18.133 8.534-18.133 18.134v247.466c0 9.6 8.534 18.134 18.133 18.134h251.733c9.6 0 18.134-8.534 18.134-18.134v-19.2h-199.466c-28.8 0-51.2-23.466-51.2-52.266zM435.2 1.067c0-9.6-8.534-18.134-18.134-18.134h-251.733c-9.6 0-18.133 8.534-18.133 18.134v246.4c0 9.6 8.534 18.133 18.133 18.133h251.733c9.6 0 18.134-8.534 18.134-18.133v-246.4zM205.867 173.867c-2.133 0-4.267-1.066-5.333-2.133-2.133-1.066-2.133-3.2-2.133-6.4v-61.867c0-3.2-1.066-5.333-3.2-7.466s-5.333-3.2-8.534-3.2h-1.066c-3.2 0-5.333 1.067-7.466 2.134s-3.2 3.2-4.267 6.4c0 2.134-1.066 4.266-3.2 4.266-1.066 1.067-3.2 1.067-4.267 1.067-2.133 0-4.267-1.067-5.333-2.134-2.133-1.067-2.133-3.2-2.133-5.333 0 0 0-1.067 0-2.134 1.066-3.2 2.133-5.334 3.2-8.534 2.133-2.134 3.2-4.267 6.4-6.4 2.133-2.134 5.333-3.2 8.534-4.267s6.4-1.067 9.6-1.067h1.066c4.267 0 7.466 1.067 10.667 2.134s6.4 3.2 8.534 5.334c2.133 2.134 4.267 5.333 6.4 8.534 1.066 3.2 2.133 6.4 2.133 10.666v61.867c0 2.133-1.066 4.267-2.133 6.4s-5.333 2.133-7.466 2.133zM279.466 165.334c-2.134 2.133-5.334 4.267-8.534 5.333s-6.4 2.133-10.666 2.133h-20.267c-2.133 0-4.267-1.066-5.333-2.133s-2.133-3.2-2.133-5.333v-80c0-2.134 1.066-4.266 2.133-6.4 2.133-1.067 3.2-2.134 5.333-2.134s4.267 1.067 5.333 2.134c2.133 1.067 2.133 3.2 2.133 6.4v33.067h12.8c4.267 0 7.466 1.067 10.666 2.134s6.4 3.2 8.534 5.334c2.134 2.134 4.267 5.333 6.4 8.534 1.067 3.2 2.134 6.4 2.134 10.666s-1.067 7.466-2.134 10.667c-2.134 4.267-4.267 7.466-6.4 9.6zM268.8 137.6c-2.134-2.134-5.334-3.2-8.534-3.2h-12.8v23.466h12.8c2.134 0 3.2 0 4.267-1.067s2.134-1.067 3.2-2.134c1.067-1.066 2.134-2.133 2.134-3.2 1.067-1.067 1.067-3.2 1.067-4.266 1.067-4.267 0-7.466-2.134-9.6zM346.666 157.867c2.134 0 4.267 1.067 6.4 2.134 1.067 2.133 2.134 3.2 2.134 5.333s-1.067 3.2-2.134 5.333c-1.067 2.133-3.2 2.133-6.4 2.133h-40.534c-2.134 0-4.267-1.066-5.334-2.133s-2.134-3.2-2.134-5.333v-78.934c0-2.134 1.067-4.266 2.134-5.333 1.067-2.134 3.2-2.134 5.334-2.134h40.534c2.134 0 4.267 1.067 6.4 2.134 1.067 2.134 2.134 3.2 2.134 5.333s-1.067 4.267-2.134 5.334c-1.067 2.134-3.2 2.134-6.4 2.134h-32v24.534h21.334c2.134 0 4.267 1.067 6.4 2.134s2.134 3.2 2.134 5.333c0 2.134-1.067 4.267-2.134 5.334s-3.2 2.134-6.4 2.134h-21.334v22.4h32zM412.8 133.334h-18.134c-2.134 0-4.267-1.067-6.4-2.134-1.067-2.134-2.134-3.2-2.134-5.334s1.067-4.266 2.134-5.333c1.067-2.134 3.2-2.134 6.4-2.134h10.666v-12.8c0-3.2-1.067-5.333-3.2-7.466s-5.334-3.2-8.534-3.2h-1.067c-3.2 0-6.4 1.067-8.534 3.2s-3.2 5.334-3.2 8.534v42.667c0 3.2 1.067 5.333 3.2 7.466s5.334 3.2 8.534 3.2h1.067c2.134 0 5.334 0 7.466-1.067s3.2-3.2 4.267-5.333c1.067-2.134 2.134-4.267 3.2-5.334s3.2-2.134 5.334-2.134c2.134 0 3.2 1.067 5.334 2.134s2.134 3.2 2.134 5.334v1.066c0 3.2-1.067 6.4-3.2 8.534-1.067 3.2-3.2 5.333-6.4 7.466-2.134 2.133-5.334 3.2-8.534 4.267s-6.4 2.133-9.6 2.133h-1.067c-4.267 0-7.466-1.066-10.666-2.133s-6.4-3.2-8.534-5.333c-2.134-2.133-4.267-5.333-6.4-8.534-1.067-3.2-2.134-6.4-2.134-10.667v-42.666c0-4.267 1.067-7.466 2.134-10.667s3.2-6.4 6.4-8.534c2.134-2.134 5.334-4.266 8.534-5.333s6.4-2.134 10.666-2.134h1.067c4.267 0 7.466 1.067 10.666 2.134s6.4 3.2 8.534 5.333c2.134 2.134 4.267 5.334 5.334 8.534s2.134 6.4 2.134 10.667v20.266c0 2.134-1.067 4.267-2.134 5.334-1.067-1.067-3.2 0-5.334 0z" />
<glyph unicode="&#xe63a;" glyph-name="icon-download-pdf" d="M417.067 299.734h-19.2v19.2c0 28.8-23.466 52.267-52.267 52.267h-250.667c-28.8 0-52.267-23.466-52.267-52.267v-246.4c0-28.8 23.467-52.266 52.267-52.266h19.2v-19.2c0-28.8 23.467-52.266 52.266-52.266h251.734c28.8 0 52.267 23.466 52.267 52.266v246.4c-1.067 28.8-24.534 52.267-53.334 52.267zM94.933 54.4c-9.6 0-18.133 8.534-18.133 18.134v246.4c0 9.6 8.534 18.133 18.133 18.133h251.733c9.6 0 18.134-8.534 18.134-18.133v-19.2h-199.466c-28.8 0-52.267-23.466-52.267-52.267v-194.133h-18.133zM435.2 1.067c0-9.6-8.534-18.134-18.134-18.134h-251.733c-9.6 0-18.133 8.534-18.133 18.134v246.4c0 9.6 8.534 18.133 18.133 18.133h251.733c9.6 0 18.134-8.534 18.134-18.133v-246.4zM243.2 177.067c-2.133 2.133-5.333 4.267-9.6 6.4-3.2 1.066-7.466 2.133-11.733 2.133h-22.4c-2.133 0-4.267-1.066-6.4-2.133-2.133-2.133-2.133-3.2-2.133-6.4v-84.266c0-3.2 1.066-5.334 2.133-6.4s3.2-2.134 5.333-2.134c2.133 0 4.267 1.067 5.333 2.134 2.133 1.067 2.133 3.2 2.133 6.4v35.2h13.867c4.267 0 7.466 1.067 11.733 2.134 3.2 1.067 6.4 3.2 9.6 6.4 2.133 2.134 4.267 5.334 6.4 9.6 1.066 3.2 2.133 7.467 2.133 11.734s-1.066 7.466-2.133 11.733c1.066 1.066-1.066 4.267-4.267 7.466zM231.466 147.2c-2.133-2.134-5.333-3.2-8.534-3.2h-13.867v24.534h13.867c2.133 0 3.2 0 5.333-1.066 1.066-1.066 3.2-1.066 4.267-2.133s2.133-2.133 2.133-4.267c1.066-1.066 1.066-3.2 1.066-4.267 0-4.267-1.066-7.466-4.267-9.6zM315.733 177.067c-2.134 2.133-5.334 4.267-9.6 6.4-3.2 1.066-7.466 2.133-11.733 2.133h-22.4c-2.134 0-4.267-1.066-6.4-2.133-2.134-2.133-2.134-3.2-2.134-6.4v-84.266c0-2.134 1.067-4.267 2.134-6.4 2.134-2.134 3.2-2.134 6.4-2.134h22.4c4.267 0 7.466 1.067 11.733 2.134 3.2 1.067 6.4 3.2 9.6 6.4 2.134 2.134 4.267 5.333 6.4 9.6 1.067 3.2 2.134 7.466 2.134 11.733v43.734c0 4.267-1.067 7.466-2.134 11.733-2.134 2.133-4.267 4.267-6.4 7.466zM307.2 113.067c0-3.2-1.067-6.4-3.2-8.534s-5.334-3.2-8.534-3.2h-13.866v67.2h13.866c3.2 0 6.4-1.066 8.534-3.2s3.2-5.334 3.2-8.534v-43.734zM392.534 185.6h-42.666c-2.134 0-4.267-1.066-6.4-2.133-1.067-2.133-2.134-4.267-2.134-6.4v-84.266c0-3.2 1.067-5.334 2.134-6.4 2.134-1.067 3.2-2.134 5.334-2.134s4.267 1.067 5.334 2.134c2.134 1.067 2.134 3.2 2.134 6.4v35.2h22.4c3.2 0 5.334 1.067 6.4 2.134 1.067 2.134 2.134 3.2 2.134 5.334s-1.067 4.266-2.134 5.333c-1.067 2.134-3.2 2.134-6.4 2.134h-22.4v23.467h34.133c3.2 0 5.334 1.066 6.4 2.133 1.067 2.133 2.134 3.2 2.134 5.333s-1.067 4.267-2.134 5.333c1.067 5.333-1.067 6.4-4.267 6.4z" />
</font>
</defs>
</svg>
