<?xml version="1.0" encoding="UTF-8" standalone="no"?>
<!DOCTYPE svg PUBLIC "-//W3C//DTD SVG 1.1//EN" "http://www.w3.org/Graphics/SVG/1.1/DTD/svg11.dtd" >
<svg xmlns="http://www.w3.org/2000/svg">
<metadata>
This is a SVG font generated by e-font.
</metadata>
<defs>
<font id="TelstraAkkuratWebItalic" horiz-adv-x="537" >
<font-face units-per-em="1000" ascent="968" descent="-245" />
<missing-glyph horiz-adv-x="537" />
<glyph unicode="&#x20;" horiz-adv-x="222" />
<glyph unicode="&#x21;" horiz-adv-x="317" d="M290 709L184 709L144 485L121 215L179 215L250 485ZM187 109L80 109L60 0L167 0Z"/>
<glyph unicode="&#x22;" horiz-adv-x="430" d="M411 709L314 709L292 586L287 433L340 433L389 586ZM242 709L145 709L123 586L118 433L171 433L220 586Z"/>
<glyph unicode="&#x23;" horiz-adv-x="724" d="M692 505L567 505L626 695L551 695L492 505L334 505L393 695L318 695L258 505L120 505L106 431L235 431L183 264L45 264L31 191L159 191L100 0L175 0L235 191L393 191L333 0L408 0L468 191L603 191L617 264L491 264L543 431L679 431ZM468 431L416 264L258 264L310 431Z"/>
<glyph unicode="&#x24;" horiz-adv-x="560" d="M551 503C551 607 478 683 379 703L396 800L338 800L323 709C201 709 77 630 77 501C77 418 134 362 219 336C219 336 243 328 255 325L212 82C142 98 96 143 96 218C96 226 96 234 97 242L10 242C9 234 9 227 9 219C9 104 88 23 199 4L181 -93L240 -93L256 -1C321 0 387 17 435 56C481 93 510 149 510 216C510 303 438 369 355 389L326 396L366 626C428 612 462 566 462 503ZM308 632L270 411L242 420C193 436 165 465 165 506C165 585 232 630 308 632ZM421 204C421 123 342 78 270 77L311 311L330 305C379 290 421 258 421 204Z"/>
<glyph unicode="&#x25;" horiz-adv-x="912" d="M828 217C828 304 771 370 679 370C625 370 583 345 553 312C514 269 496 197 496 140C496 53 553 -13 645 -13C699 -13 741 13 771 46C810 89 828 159 828 217ZM800 685L755 728L117 20L162 -24ZM419 570C419 657 362 723 270 723C216 723 173 698 143 665C104 622 86 550 86 493C86 406 143 340 235 340C289 340 332 366 362 399C401 442 419 512 419 570ZM751 215C751 169 737 103 701 73C687 62 672 54 649 54C594 54 572 92 572 142C572 188 586 255 622 284C636 295 652 303 675 303C729 303 751 265 751 215ZM342 568C342 522 327 456 291 426C277 415 263 407 240 407C185 407 162 445 162 495C162 541 177 608 213 637C227 648 242 656 265 656C319 656 342 618 342 568Z"/>
<glyph unicode="&#x26;" horiz-adv-x="723" d="M675 395L524 395C516 334 496 248 460 198L339 365C359 376 399 396 399 396C465 430 520 490 520 576C520 647 461 722 357 722C238 722 157 642 157 533C157 495 172 458 192 428C192 428 209 403 218 391C128 343 44 280 44 168C44 53 142 -13 240 -13C332 -13 409 30 450 69L499 0L602 0L505 135C548 184 580 259 591 322L664 322ZM406 130C365 87 320 66 246 66C181 66 129 109 129 176C129 234 166 279 214 308C229 317 245 324 260 333ZM436 571C436 513 394 471 344 446L298 423C289 436 271 461 271 461C255 484 244 509 244 539C244 602 287 650 350 650C408 650 436 605 436 571Z"/>
<glyph unicode="&#x27;" horiz-adv-x="251" d="M236 709L140 709L118 586L112 433L166 433L214 586Z"/>
<glyph unicode="&#x28;" horiz-adv-x="289" d="M346 723L301 769C172 667 83 501 55 341C48 300 44 258 44 215C44 89 75 -41 139 -145L198 -118C144 -14 116 91 116 204C116 244 119 285 127 328C155 491 229 615 346 723Z"/>
<glyph unicode="&#x29;" horiz-adv-x="288" d="M236 415C236 542 204 671 139 770L83 737C136 638 164 537 164 426C164 385 161 343 153 299C124 135 49 8 -68 -110L-21 -155C108 -42 198 132 226 293C233 333 236 374 236 415Z"/>
<glyph unicode="&#x2a;" horiz-adv-x="519" d="M504 511L487 591L330 531L366 696L278 696L264 531L122 591L86 515L234 473L108 346L169 296L283 433L348 296L421 342L339 471Z"/>
<glyph unicode="&#x2b;" horiz-adv-x="667" d="M599 268L599 337L358 337L358 584L288 584L288 337L48 337L48 268L288 268L288 5L358 5L358 268Z"/>
<glyph unicode="&#x2c;" horiz-adv-x="280" d="M161 117L37 117L16 0L80 0C70 -57 52 -87 -4 -110L14 -157C92 -126 127 -74 140 0Z"/>
<glyph unicode="&#x2d;" horiz-adv-x="423" d="M358 341L61 341L47 262L344 262Z"/>
<glyph unicode="&#x2e;" horiz-adv-x="280" d="M158 119L39 119L18 0L137 0Z"/>
<glyph unicode="&#x2f;" horiz-adv-x="385" d="M451 722L380 722L-55 -13L16 -13Z"/>
<glyph unicode="&#x30;" horiz-adv-x="560" d="M526 480C526 550 507 609 468 650C434 686 384 708 319 708C269 708 223 694 184 663C94 592 70 475 51 368C42 318 34 267 34 216C34 141 56 79 102 38C136 8 182 -13 241 -13C292 -13 336 2 376 33C466 104 491 221 510 328C519 378 526 429 526 480ZM440 482C440 433 430 384 422 336C404 234 380 65 244 65C154 65 121 134 121 214C121 263 131 312 139 360C157 462 181 631 317 631C407 631 440 562 440 482Z"/>
<glyph unicode="&#x31;" horiz-adv-x="560" d="M422 695L340 695L148 577L131 479L317 595L213 0L299 0Z"/>
<glyph unicode="&#x32;" horiz-adv-x="560" d="M509 542C509 585 493 625 463 656C426 693 375 708 317 708C202 708 111 629 96 516L184 516C198 593 255 632 310 632C341 632 375 623 397 600C412 584 422 562 422 537C422 487 398 447 362 413L6 76L-7 0L413 0L426 80L125 80L419 361C472 411 509 468 509 542Z"/>
<glyph unicode="&#x33;" horiz-adv-x="560" d="M507 537C507 646 412 708 311 708C249 708 188 687 144 642C116 613 86 558 86 517L172 517C185 585 233 632 304 632C365 632 418 593 418 528C418 439 350 400 269 400L228 400L214 321L256 321C325 321 377 283 377 210C377 128 319 64 236 64C161 64 112 109 112 185C112 194 113 202 114 211L26 211C25 200 24 190 24 179C24 55 116 -13 233 -13C357 -13 463 78 463 205C463 267 433 328 375 354C453 379 507 456 507 537Z"/>
<glyph unicode="&#x34;" horiz-adv-x="560" d="M506 225L413 225L449 432L362 432L326 225L94 225L450 695L355 695L9 237L-6 148L313 148L287 0L373 0L399 148L493 148Z"/>
<glyph unicode="&#x35;" horiz-adv-x="560" d="M539 695L159 695L78 351L170 332C198 366 239 383 281 383C361 383 404 332 404 255C404 165 349 65 248 65C175 65 124 112 124 187C124 195 124 205 125 214L40 214C39 204 39 194 39 184C39 63 128 -13 240 -13C397 -13 491 117 491 265C491 378 423 458 306 458C256 458 202 443 169 407L220 618L524 618Z"/>
<glyph unicode="&#x36;" horiz-adv-x="560" d="M522 530C522 571 508 610 487 638C450 687 392 708 332 708C256 708 198 673 160 628C100 557 77 457 60 358C52 311 46 263 46 219C46 153 60 88 109 41C146 5 195 -13 249 -13C310 -13 362 8 400 41C463 95 496 175 496 257C496 374 421 457 300 457C240 457 178 430 151 388C165 461 185 551 237 597C259 617 288 631 325 631C357 631 388 622 410 597C425 580 435 558 435 530ZM409 249C409 193 387 132 344 96C321 77 293 64 257 64C177 64 131 121 131 197C131 252 151 311 193 348C215 368 246 382 283 382C365 382 409 327 409 249Z"/>
<glyph unicode="&#x37;" horiz-adv-x="560" d="M556 695L105 695L91 618L448 618L45 0L141 0L542 618Z"/>
<glyph unicode="&#x38;" horiz-adv-x="560" d="M520 535C520 579 502 620 471 651C431 691 376 708 320 708C257 708 201 688 158 647C120 610 97 559 97 506C97 451 125 401 167 372C81 343 25 264 25 176C25 121 46 81 79 47C118 7 179 -13 239 -13C302 -13 362 8 405 48C449 88 476 145 476 205C476 267 441 328 395 352C470 382 520 455 520 535ZM434 529C434 455 376 398 302 398C237 398 183 436 183 506C183 580 241 634 315 634C377 634 434 597 434 529ZM390 208C390 124 328 62 242 62C172 62 112 106 112 180C112 264 175 326 261 326C331 326 390 282 390 208Z"/>
<glyph unicode="&#x39;" horiz-adv-x="560" d="M513 477C513 525 506 569 487 607C452 676 387 708 312 708C251 708 198 688 160 655C96 601 63 521 63 439C63 387 79 344 107 309C143 263 201 239 258 239C318 239 380 265 407 307C393 234 372 146 320 100C298 80 270 65 233 65C203 65 175 73 153 94C134 113 122 139 122 167L122 180L37 180C37 180 36 171 36 163C36 122 49 88 70 60C107 10 167 -12 227 -12C303 -12 362 23 400 68C460 139 482 240 499 338C507 385 513 432 513 477ZM427 499C427 443 407 383 364 347C341 328 311 314 275 314C235 314 196 329 173 363C158 386 150 414 150 447C150 503 171 562 214 598C237 617 268 632 304 632C344 632 381 616 404 582C419 559 427 532 427 499Z"/>
<glyph unicode="&#x3a;" horiz-adv-x="290" d="M233 506L122 506L102 395L213 395ZM163 109L52 109L32 -1L143 -1Z"/>
<glyph unicode="&#x3b;" horiz-adv-x="290" d="M231 505L120 505L101 393L212 393ZM161 110L50 110L31 0L88 0C79 -52 64 -82 10 -104L25 -148C99 -119 129 -73 142 0Z"/>
<glyph unicode="&#x3c;" horiz-adv-x="458" d="M397 36L128 305L397 574L348 622L30 305L349 -13Z"/>
<glyph unicode="&#x3d;" horiz-adv-x="678" d="M564 344L564 421L82 421L82 344ZM564 134L564 211L82 211L82 134Z"/>
<glyph unicode="&#x3e;" horiz-adv-x="458" d="M436 305L118 622L69 574L338 305L69 36L117 -13Z"/>
<glyph unicode="&#x3f;" horiz-adv-x="485" d="M480 552C480 597 464 637 432 668C398 701 350 722 285 722C215 722 151 696 110 655C70 615 51 568 41 513L132 513C145 587 194 645 280 645C317 645 350 633 370 609C383 593 392 573 392 548C392 492 366 468 340 443C301 405 250 385 212 344C186 316 169 280 163 224L159 189L237 189L241 214C247 250 260 277 282 300C319 339 372 357 417 404C454 443 480 490 480 552ZM240 110L133 110L114 0L221 0Z"/>
<glyph unicode="&#x40;" horiz-adv-x="893" d="M841 403C841 600 685 722 496 722C240 722 56 532 56 283C56 51 233 -86 440 -86C503 -86 584 -71 641 -43L655 35C598 7 515 -12 446 -12C267 -12 140 102 140 283C140 476 279 647 491 647C639 647 760 558 760 403C760 343 745 262 699 217C679 197 658 183 628 183C605 183 589 195 589 222C589 231 591 241 593 250L655 498L588 498L563 456C543 492 501 509 462 509C332 509 262 388 262 269C262 223 278 181 308 152C331 129 365 112 404 112C455 112 497 129 531 168C539 140 571 112 619 112C682 112 718 136 755 172C814 229 841 319 841 403ZM537 354C537 286 508 184 425 184C369 184 346 225 346 276C346 318 360 371 391 406C408 425 430 440 457 440C511 440 537 406 537 354Z"/>
<glyph unicode="&#x41;" horiz-adv-x="605" d="M545 0L418 709L314 709L-61 0L33 0L119 168L428 168L456 0ZM413 252L162 252L351 620Z"/>
<glyph unicode="&#x42;" horiz-adv-x="658" d="M626 536C626 640 548 709 437 709L157 709L32 0L333 0C464 0 588 67 588 217C588 277 548 343 496 363C568 380 626 461 626 536ZM532 531C532 449 465 407 390 407L192 407L231 630L423 630C484 630 532 592 532 531ZM497 221C497 129 426 82 342 82L134 82L178 329L378 329C445 329 497 287 497 221Z"/>
<glyph unicode="&#x43;" horiz-adv-x="608" d="M606 485C606 545 583 606 541 650C496 697 438 722 364 722C284 722 219 691 169 643C73 550 35 381 35 253C35 103 128 -13 284 -13C351 -13 412 10 457 46C507 86 544 147 557 208L464 208C455 172 437 145 409 118C381 90 336 72 289 72C178 72 126 155 126 258C126 356 159 509 231 581C263 613 307 637 359 637C406 637 440 625 469 597C497 570 514 531 514 485Z"/>
<glyph unicode="&#x44;" horiz-adv-x="663" d="M626 453C626 599 535 709 384 709L157 709L32 0L290 0C383 0 446 27 496 75C589 165 626 328 626 453ZM537 448C537 353 505 203 435 134C404 103 352 82 301 82L136 82L232 627L374 627C481 627 537 548 537 448Z"/>
<glyph unicode="&#x45;" horiz-adv-x="608" d="M624 709L156 709L32 0L505 0L518 82L136 82L180 328L513 328L528 411L193 411L232 627L610 627Z"/>
<glyph unicode="&#x46;" horiz-adv-x="572" d="M612 709L157 709L32 0L122 0L177 313L505 313L520 395L192 395L233 627L598 627Z"/>
<glyph unicode="&#x47;" horiz-adv-x="651" d="M612 491C612 545 589 610 543 654C510 686 450 722 366 722C286 722 218 690 168 642C70 548 35 384 35 253C35 172 61 99 112 51C153 12 210 -13 284 -13C352 -13 424 13 468 69L468 0L533 0L600 376L331 376L316 294L504 294C484 180 421 72 290 72C242 72 203 88 176 114C140 148 126 200 126 258C126 356 157 507 230 580C262 612 307 637 359 637C399 637 427 631 454 615C497 589 522 541 522 491Z"/>
<glyph unicode="&#x48;" horiz-adv-x="706" d="M674 709L584 709L532 414L195 414L247 709L157 709L32 0L122 0L180 327L517 327L459 0L549 0Z"/>
<glyph unicode="&#x49;" horiz-adv-x="281" d="M249 709L157 709L32 0L124 0Z"/>
<glyph unicode="&#x4a;" horiz-adv-x="497" d="M471 709L381 709L289 189C278 126 232 72 164 72C96 72 64 111 64 175C64 188 66 202 68 215L-20 215C-23 201 -25 181 -25 166C-25 111 -6 68 24 38C59 3 109 -13 157 -13C278 -13 358 67 378 181Z"/>
<glyph unicode="&#x4b;" horiz-adv-x="652" d="M682 709L566 709L181 335L247 709L157 709L32 0L122 0L158 201L334 372L483 0L581 0L403 439Z"/>
<glyph unicode="&#x4c;" horiz-adv-x="526" d="M478 83L137 83L247 709L157 709L32 0L463 0Z"/>
<glyph unicode="&#x4d;" horiz-adv-x="869" d="M837 709L705 709L392 132L282 709L157 709L32 0L119 0L222 603L339 10L409 10L733 598L625 0L712 0Z"/>
<glyph unicode="&#x4e;" horiz-adv-x="724" d="M692 709L602 709L502 127L259 709L157 709L32 0L122 0L222 580L465 0L567 0Z"/>
<glyph unicode="&#x4f;" horiz-adv-x="645" d="M608 456C608 604 520 722 361 722C281 722 220 691 170 643C74 550 35 381 35 253C35 103 128 -13 284 -13C364 -13 426 18 476 66C572 159 608 328 608 456ZM516 451C516 353 486 199 414 127C382 95 341 72 289 72C178 72 126 155 126 258C126 356 160 509 232 581C264 613 304 637 356 637C467 637 516 554 516 451Z"/>
<glyph unicode="&#x50;" horiz-adv-x="613" d="M621 526C621 647 526 709 414 709L157 709L32 0L122 0L170 276L355 276C507 276 621 367 621 526ZM528 519C528 416 459 356 358 356L185 356L233 628L397 628C467 628 528 597 528 519Z"/>
<glyph unicode="&#x51;" horiz-adv-x="645" d="M608 456C608 604 520 722 361 722C281 722 220 691 170 643C74 550 35 381 35 253C35 103 128 -13 284 -13C331 -13 372 -2 408 17L462 -66L527 -21L472 62L476 66C570 160 608 328 608 456ZM516 451C516 357 489 212 423 137L356 240L293 195L362 89C341 78 316 72 289 72C178 72 126 155 126 258C126 356 160 509 232 581C264 613 304 637 356 637C467 637 516 554 516 451Z"/>
<glyph unicode="&#x52;" horiz-adv-x="652" d="M630 521C630 629 548 709 424 709L157 709L32 0L122 0L174 297L372 297L464 0L558 0L461 309C502 320 537 338 565 364C601 397 630 454 630 521ZM536 521C536 428 475 377 373 377L189 377L233 628L411 628C491 628 536 586 536 521Z"/>
<glyph unicode="&#x53;" horiz-adv-x="619" d="M590 496C590 544 575 595 547 632C499 696 422 721 349 721C274 721 223 702 179 670C124 630 92 573 92 506C92 407 160 352 249 330L357 303C427 285 457 242 457 196C457 161 443 134 422 114C390 83 343 69 296 69C243 69 184 81 145 127C118 159 109 196 109 236L16 236C16 174 32 123 69 77C121 14 202 -13 285 -13C364 -13 442 11 493 62C529 97 551 146 551 207C551 298 487 364 387 389L274 417C224 429 185 459 185 514C185 548 200 577 225 599C256 627 298 639 340 639C403 639 449 617 476 573C491 549 497 524 497 496Z"/>
<glyph unicode="&#x54;" horiz-adv-x="526" d="M581 709L69 709L54 626L265 626L155 0L246 0L355 626L566 626Z"/>
<glyph unicode="&#x55;" horiz-adv-x="682" d="M665 709L575 709L492 240C475 144 411 72 309 72C213 72 152 118 152 214C152 232 154 250 157 268L235 709L145 709L69 278C65 256 63 233 63 211C63 75 160 -13 304 -13C459 -13 556 91 582 238Z"/>
<glyph unicode="&#x56;" horiz-adv-x="558" d="M623 709L526 709L229 112L140 709L52 709L166 0L257 0Z"/>
<glyph unicode="&#x57;" horiz-adv-x="844" d="M881 709L796 709L586 137L518 699L438 699L177 134L166 709L82 709L100 0L199 0L458 572L524 0L615 0Z"/>
<glyph unicode="&#x58;" horiz-adv-x="570" d="M620 709L519 709L293 422L166 709L71 709L229 358L-58 0L45 0L274 291L403 0L498 0L337 358Z"/>
<glyph unicode="&#x59;" horiz-adv-x="545" d="M613 709L512 709L268 372L141 709L50 709L211 287L159 0L250 0L300 287Z"/>
<glyph unicode="&#x5a;" horiz-adv-x="602" d="M608 709L105 709L90 626L485 626L-8 89L-24 0L492 0L507 82L97 82L592 619Z"/>
<glyph unicode="&#x5b;" horiz-adv-x="297" d="M358 757L170 757L16 -114L204 -114L215 -52L96 -52L228 695L347 695Z"/>
<glyph unicode="&#x5c;" horiz-adv-x="386" d="M306 -13L131 722L65 722L240 -13Z"/>
<glyph unicode="&#x5d;" horiz-adv-x="297" d="M269 757L81 757L70 695L188 695L56 -52L-62 -52L-73 -114L115 -114Z"/>
<glyph unicode="&#x5e;" horiz-adv-x="528" d="M478 405L310 722L234 722L66 405L154 405L272 630L389 405Z"/>
<glyph unicode="&#x5f;" horiz-adv-x="531" d="M451 -60L451 0L-44 0L-44 -60Z"/>
<glyph unicode="&#x60;" horiz-adv-x="226" d="M261 598L112 721L58 652L226 553Z"/>
<glyph unicode="&#x61;" horiz-adv-x="557" d="M504 506L434 506L409 441C397 466 375 487 350 500C325 513 297 519 271 519C209 519 156 493 117 455C52 392 21 294 21 203C21 136 37 79 77 37C107 5 149 -13 200 -13C257 -13 322 24 350 75L350 0L415 0ZM381 314C381 203 318 60 213 60C181 60 157 74 140 94C114 124 108 164 108 203C108 266 130 352 180 403C205 428 239 446 276 446C318 446 346 424 362 397C376 373 381 346 381 314Z"/>
<glyph unicode="&#x62;" horiz-adv-x="573" d="M515 303C515 356 503 410 470 454C439 495 386 519 332 519C272 519 224 497 189 457L235 722L150 722L23 0L94 0L119 71C148 15 212 -13 269 -13C327 -13 375 7 412 41C480 103 515 209 515 303ZM428 303C428 233 408 146 356 97C332 74 301 60 267 60C180 60 147 131 147 206C147 236 152 265 159 294C171 344 199 392 238 421C259 437 281 446 312 446C395 446 428 375 428 303Z"/>
<glyph unicode="&#x63;" horiz-adv-x="511" d="M468 339C468 452 383 519 275 519C100 519 21 348 21 195C21 71 104 -13 224 -13C329 -13 424 58 440 159L355 159C336 102 291 60 228 60C192 60 166 72 146 91C120 116 108 154 108 198C108 265 126 353 175 403C199 428 230 446 271 446C338 446 381 401 381 334C381 330 380 327 380 323L467 323C467 328 468 334 468 339Z"/>
<glyph unicode="&#x64;" horiz-adv-x="573" d="M557 722L471 722L421 436C398 492 334 519 278 519C211 519 156 491 116 449C56 386 25 290 25 203C25 150 39 94 73 52C105 12 156 -13 207 -13C263 -13 324 11 359 64L359 0L430 0ZM392 300C392 270 387 241 380 212C368 162 342 116 303 87C282 71 258 60 227 60C144 60 113 131 113 203C113 273 137 359 189 408C213 431 243 446 277 446C364 446 392 375 392 300Z"/>
<glyph unicode="&#x65;" horiz-adv-x="529" d="M478 308C478 363 461 420 423 461C386 501 335 519 280 519C212 519 157 494 115 452C54 392 21 300 21 211C21 162 33 115 56 77C94 16 156 -13 227 -13C327 -13 412 45 443 142L355 142C333 92 289 60 236 60C155 60 108 116 108 199C108 208 108 217 109 226L468 226C474 250 478 279 478 308ZM392 318C392 311 392 306 391 299L120 299C130 337 147 374 173 400C198 426 234 447 275 447C352 447 392 388 392 318Z"/>
<glyph unicode="&#x66;" horiz-adv-x="352" d="M415 706C383 716 357 725 312 725C224 725 166 669 154 602L137 506L46 506L33 434L125 434L48 0L133 0L209 434L356 434L369 506L222 506L237 589C244 627 276 652 316 652C352 652 372 645 402 634Z"/>
<glyph unicode="&#x67;" horiz-adv-x="516" d="M522 552C510 555 498 556 486 556C444 556 403 534 381 492C349 511 313 519 274 519C220 519 171 502 136 474C91 438 64 384 64 326C64 282 81 243 110 213C93 205 76 196 62 183C37 159 26 138 26 103C26 75 43 52 65 37C13 17 -25 -33 -25 -86C-25 -122 -10 -154 10 -175C53 -221 123 -235 183 -235C268 -235 344 -218 392 -171C419 -144 437 -110 437 -63C437 10 375 57 291 66L146 81C119 84 102 99 102 119C102 130 106 140 114 148C126 161 146 171 162 175C188 163 217 158 249 158C305 158 357 176 391 205C434 242 460 297 460 354C460 390 449 426 426 454C436 474 459 486 484 486C491 486 504 485 510 483ZM375 352C375 283 325 226 254 226C193 226 148 262 148 326C148 391 195 450 268 450C328 450 375 416 375 352ZM352 -69C352 -94 343 -109 329 -123C298 -154 247 -163 188 -163C151 -163 100 -155 73 -127C60 -113 52 -96 52 -77C52 -26 89 2 137 10L265 -4C320 -10 352 -31 352 -69Z"/>
<glyph unicode="&#x68;" horiz-adv-x="565" d="M491 382C491 418 483 452 456 479C430 505 392 519 345 519C286 519 223 490 186 443L235 722L150 722L23 0L108 0L152 247C159 289 173 332 197 368C223 407 270 444 319 444C351 444 371 435 385 421C400 406 404 387 404 360C404 349 399 315 397 304L343 0L428 0L483 310C486 329 491 362 491 382Z"/>
<glyph unicode="&#x69;" horiz-adv-x="258" d="M244 722L145 722L127 622L226 622ZM200 506L113 506L23 0L110 0Z"/>
<glyph unicode="&#x6a;" horiz-adv-x="269" d="M251 722L152 722L134 622L233 622ZM208 506L122 506L17 -87C10 -124 -16 -141 -46 -141C-65 -141 -94 -133 -111 -123L-123 -189C-93 -205 -63 -214 -29 -214C43 -214 89 -169 102 -94Z"/>
<glyph unicode="&#x6b;" horiz-adv-x="528" d="M528 506L421 506L154 257L236 722L151 722L23 0L108 0L133 139L247 246L367 0L458 0L310 304C436 421 528 506 528 506Z"/>
<glyph unicode="&#x6c;" horiz-adv-x="277" d="M235 722L150 722L46 134C41 106 40 94 40 86C40 57 47 38 62 21C77 4 100 -6 132 -6C155 -6 175 -2 192 5L204 74C191 70 173 68 164 68C137 68 126 81 126 103C126 106 126 110 127 114Z"/>
<glyph unicode="&#x6d;" horiz-adv-x="852" d="M326 0L411 0L459 269C470 329 491 377 526 407C550 428 576 443 608 443C675 443 690 403 690 366C690 353 689 338 686 322L629 0L714 0L774 339C777 355 778 371 778 385C778 420 770 445 753 467C728 500 686 519 638 519C563 519 500 477 467 425C455 481 405 519 333 519C276 519 218 497 181 440L181 506L112 506L23 0L108 0L156 269C167 329 188 377 223 407C247 428 273 443 305 443C372 443 387 403 387 366C387 353 386 338 383 322Z"/>
<glyph unicode="&#x6e;" horiz-adv-x="565" d="M491 382C491 418 483 452 456 479C430 505 392 519 345 519C284 519 217 487 181 436L181 506L112 506L23 0L108 0L152 247C159 289 173 332 197 368C223 407 270 444 319 444C351 444 371 435 385 421C400 406 404 387 404 360C404 349 399 315 397 304L343 0L428 0L483 310C486 329 491 362 491 382Z"/>
<glyph unicode="&#x6f;" horiz-adv-x="532" d="M475 308C475 363 457 415 426 452C390 495 335 519 276 519C101 519 21 350 21 198C21 143 39 91 70 54C106 11 161 -13 220 -13C395 -13 475 156 475 308ZM388 306C388 209 347 60 227 60C144 60 108 126 108 200C108 297 149 446 269 446C352 446 388 380 388 306Z"/>
<glyph unicode="&#x70;" horiz-adv-x="570" d="M513 303C513 356 501 408 468 452C437 493 384 519 331 519C275 519 216 495 183 446L183 506L113 506L-14 -217L70 -217L120 71C149 13 213 -13 270 -13C435 -13 513 157 513 303ZM426 303C426 233 408 147 356 98C332 75 302 60 268 60C181 60 149 131 149 206C149 219 150 233 152 246C160 309 183 382 236 422C257 438 282 447 313 447C396 447 426 375 426 303Z"/>
<glyph unicode="&#x71;" horiz-adv-x="562" d="M509 506L437 506L412 435C391 490 329 519 272 519C107 519 21 349 21 203C21 150 33 94 67 52C99 12 150 -13 201 -13C253 -13 310 7 343 49L296 -216L382 -216ZM385 300C385 270 380 241 373 212C361 162 337 115 298 86C277 70 252 59 221 59C138 59 108 131 108 203C108 273 131 358 183 407C207 430 237 446 271 446C358 446 385 375 385 300Z"/>
<glyph unicode="&#x72;" horiz-adv-x="373" d="M387 505C369 510 349 512 330 512C272 512 214 487 181 433L181 506L112 506L23 0L108 0L151 242C163 307 186 365 232 400C256 418 285 431 320 431C342 431 357 428 373 422Z"/>
<glyph unicode="&#x73;" horiz-adv-x="501" d="M453 354C453 386 445 410 429 438C396 495 325 519 263 519C207 519 158 502 124 475C87 445 64 404 65 352C66 319 81 290 102 270C123 250 151 238 180 231L276 208C320 198 340 175 340 143C340 118 329 101 314 88C291 68 259 58 227 58C187 58 157 64 129 89C111 105 96 129 96 156C96 161 95 164 96 170L11 170C10 164 11 158 11 152C11 118 23 85 43 60C84 8 149 -13 222 -13C276 -13 330 2 368 33C405 63 426 106 426 154C426 217 382 262 321 278C269 292 230 301 203 307C179 313 149 330 149 366C149 386 156 402 169 416C192 441 222 449 255 449C290 449 325 439 347 411C362 392 367 374 367 354Z"/>
<glyph unicode="&#x74;" horiz-adv-x="373" d="M371 506L222 506L250 661L160 635L137 506L37 506L24 433L124 433L76 160C73 143 71 125 71 108C71 79 77 53 99 29C120 6 152 -7 190 -7C225 -7 260 -1 293 15L306 86C290 79 244 67 220 67C183 67 157 80 157 119C157 125 158 141 162 165L209 433L357 433Z"/>
<glyph unicode="&#x75;" horiz-adv-x="564" d="M504 506L419 506L375 259C365 203 348 147 310 105C287 81 259 62 222 62C191 62 170 71 155 87C140 103 131 125 131 157C131 169 132 182 134 195L189 506L104 506L48 190C45 172 44 156 44 140C44 88 61 49 91 23C117 0 152 -13 196 -13C250 -13 312 14 345 65L345 0L415 0Z"/>
<glyph unicode="&#x76;" horiz-adv-x="465" d="M484 506L391 506L180 100L105 506L21 506L120 0L212 0Z"/>
<glyph unicode="&#x77;" horiz-adv-x="750" d="M749 506L661 506L494 120L430 500L361 500L168 122L141 506L58 506L98 0L181 0L378 385L443 0L523 0Z"/>
<glyph unicode="&#x78;" horiz-adv-x="486" d="M497 506L392 506L232 315L134 506L43 506L170 261L-50 0L52 0L217 201L321 0L413 0L275 253Z"/>
<glyph unicode="&#x79;" horiz-adv-x="487" d="M506 506L412 506L201 110L119 506L30 506L141 6L82 -101C69 -125 49 -141 17 -141C-13 -141 -39 -128 -57 -117L-69 -183C-45 -199 -11 -214 29 -214C88 -214 130 -180 159 -127Z"/>
<glyph unicode="&#x7a;" horiz-adv-x="482" d="M465 506L71 506L58 432L345 432L-5 75L-19 0L381 0L395 74L101 74L451 431Z"/>
<glyph unicode="&#x7b;" horiz-adv-x="335" d="M396 758L370 758C266 758 209 717 188 606L156 433C147 384 85 356 42 358L29 286C57 286 84 274 101 256C119 237 117 212 114 193L89 51C86 36 85 20 85 4C85 -80 134 -119 215 -119L242 -119L253 -56C196 -56 155 -52 155 17C155 30 157 42 159 55L185 208C194 264 165 307 112 320L112 322C173 331 215 376 225 432L254 593C266 659 286 695 359 695L385 695Z"/>
<glyph unicode="&#x7c;" horiz-adv-x="255" d="M162 -119L162 758L93 758L93 -119Z"/>
<glyph unicode="&#x7d;" horiz-adv-x="335" d="M299 353C271 353 242 362 225 380C207 399 211 427 214 446L242 603C259 699 225 758 113 758L86 758L75 695C164 695 184 668 169 584L145 446C134 381 159 336 220 321L220 319C159 310 113 263 103 207L74 46C63 -13 41 -56 -31 -56L-57 -56L-68 -119L-42 -119C81 -119 123 -70 143 46L169 193C178 245 226 284 286 281Z"/>
<glyph unicode="&#x7e;" horiz-adv-x="625" d="M541 311L491 368C447 323 421 320 394 320C381 320 368 323 355 328C330 337 305 351 279 361C253 371 227 378 199 378C151 378 114 365 52 300L101 244C145 289 171 293 198 293C226 293 252 279 277 267C316 248 357 233 394 233C442 233 478 246 541 311Z"/>
<glyph unicode="&#xa0;" horiz-adv-x="222" />
<glyph unicode="&#xa1;" horiz-adv-x="317" d="M257 503L150 503L130 394L237 394ZM196 288L138 288L67 18L27 -206L133 -206L173 18Z"/>
<glyph unicode="&#xa2;" horiz-adv-x="560" d="M503 437C503 534 441 597 355 613L372 709L311 709L295 617C130 607 56 442 56 293C56 190 113 115 201 92L185 0L246 0L261 85C365 86 459 157 475 257L390 257C372 203 331 163 274 158L342 539C388 526 416 486 416 432C416 428 415 425 415 421L502 421C502 426 503 432 503 437ZM281 542L215 167C202 172 191 180 181 189C155 214 143 252 143 296C143 363 161 451 210 501C229 521 252 536 281 542Z"/>
<glyph unicode="&#xa3;" horiz-adv-x="560" d="M542 555C542 646 474 710 375 710C265 710 187 636 168 525L147 404L67 404L54 331L134 331L104 159C95 108 65 80 13 79L-1 0L324 0C432 0 503 55 515 157L431 157C422 112 393 76 340 76L134 76L134 78C168 87 183 121 189 152L221 331L381 331L394 404L233 404L254 525C263 575 300 635 366 635C423 635 457 604 457 549C457 542 455 534 454 527L539 527C541 536 542 546 542 555Z"/>
<glyph unicode="&#xa4;" horiz-adv-x="560" d="M533 52L455 120C481 157 497 206 497 254C497 302 481 351 455 388L533 453L468 520L399 442C362 468 319 482 270 482C221 482 178 468 140 442L73 519L7 453L86 388C60 351 44 302 44 254C44 206 60 157 86 120L7 52L72 -12L141 66C179 40 221 25 270 25C319 25 362 40 399 66L469 -12ZM415 254C415 170 364 103 270 103C176 103 125 176 125 254C125 340 172 404 270 404C360 404 415 337 415 254Z"/>
<glyph unicode="&#xa5;" horiz-adv-x="560" d="M574 695L475 695L253 386L133 695L44 695L167 382L46 382L35 321L200 321L184 230L19 230L9 169L173 169L143 0L229 0L259 169L435 169L445 230L269 230L285 321L461 321L472 382L340 382Z"/>
<glyph unicode="&#xa6;" horiz-adv-x="262" d="M177 450L177 759L101 759L101 450ZM177 -50L177 258L101 258L101 -50Z"/>
<glyph unicode="&#xa7;" horiz-adv-x="548" d="M504 569C504 656 423 711 340 711C229 711 142 640 142 524C142 495 149 464 166 440C103 406 53 355 53 279C53 239 69 198 98 170L270 -1C288 -19 299 -45 299 -71C299 -131 250 -171 193 -171C144 -171 105 -142 105 -91C105 -82 105 -72 107 -63L24 -63C22 -75 21 -89 21 -101C21 -184 96 -243 184 -243C295 -243 383 -172 383 -56C383 -27 376 4 359 28C422 62 472 113 472 189C472 229 456 270 427 298L255 469C237 487 226 513 226 539C226 602 273 639 332 639C381 639 420 608 420 559C420 550 419 540 417 531L500 531C502 543 504 557 504 569ZM387 173C387 128 357 93 318 74L162 232C146 248 138 274 138 296C138 341 168 375 207 394L363 236C379 220 387 195 387 173Z"/>
<glyph unicode="&#xa8;" horiz-adv-x="276" d="M331 691L239 691L223 599L315 599ZM155 691L63 691L47 599L139 599Z"/>
<glyph unicode="&#xa9;" horiz-adv-x="848" d="M785 355C785 560 631 722 424 722C217 722 63 559 63 354C63 149 217 -13 424 -13C631 -13 785 150 785 355ZM718 355C718 180 601 51 424 51C247 51 130 179 130 354C130 529 247 658 424 658C601 658 718 530 718 355ZM596 300L520 300C513 246 475 221 430 221C399 221 372 235 355 256C334 282 326 318 326 354C326 390 335 426 356 452C373 473 399 487 430 487C475 487 513 462 520 408L596 408C589 492 522 552 430 552C316 552 251 460 251 354C251 304 261 268 289 228C319 185 368 156 430 156C519 156 588 214 596 300Z"/>
<glyph unicode="&#xaa;" horiz-adv-x="470" d="M421 315L421 366C421 366 409 364 403 364C391 364 383 368 383 388L383 574C383 596 381 616 373 634C355 677 311 709 236 709C155 709 85 671 83 583L150 583C150 603 156 619 168 631C181 644 202 653 236 653C267 653 286 645 298 634C315 619 316 595 316 576L316 550L203 543C97 536 64 471 64 421C64 360 109 301 198 301C251 301 296 324 319 361C321 330 343 305 377 305C393 305 406 307 421 315ZM316 475C316 444 307 412 284 389C264 368 237 359 208 359C154 359 134 390 134 423C134 470 177 488 216 490L316 496Z"/>
<glyph unicode="&#xab;" horiz-adv-x="536" d="M516 485L466 528L262 300L387 67L448 101L365 296ZM283 485L233 528L28 300L153 67L215 101L131 296Z"/>
<glyph unicode="&#xac;" horiz-adv-x="611" d="M533 99L533 341L48 341L48 264L455 264L455 99Z"/>
<glyph unicode="&#xad;" horiz-adv-x="423" d="M358 341L61 341L47 262L344 262Z"/>
<glyph unicode="&#xae;" horiz-adv-x="848" d="M785 355C785 560 631 722 424 722C217 722 63 559 63 354C63 149 217 -13 424 -13C631 -13 785 150 785 355ZM718 355C718 180 601 51 424 51C247 51 130 179 130 354C130 529 247 658 424 658C601 658 718 530 718 355ZM578 169L507 321C554 342 576 382 576 432C576 510 513 552 440 552L299 552L299 169L366 169L366 310L441 310L505 169ZM506 432C506 390 480 372 440 372L365 372L365 490L440 490C476 490 506 471 506 432Z"/>
<glyph unicode="&#xaf;" horiz-adv-x="282" d="M337 656L59 656L47 588L325 588Z"/>
<glyph unicode="&#xb0;" horiz-adv-x="447" d="M425 558C425 654 353 722 259 722C165 722 94 654 94 558C94 462 165 394 259 394C353 394 425 462 425 558ZM350 558C350 503 311 465 259 465C207 465 169 503 169 558C169 613 207 651 259 651C311 651 350 613 350 558Z"/>
<glyph unicode="&#xb1;" horiz-adv-x="555" d="M497 332L497 402L313 402L313 587L243 587L243 402L58 402L58 332L243 332L243 145L313 145L313 332ZM497 0L497 69L58 69L58 0Z"/>
<glyph unicode="&#xb2;" horiz-adv-x="447" d="M391 615C391 676 339 716 276 716C193 716 131 664 115 583L186 583C194 625 223 653 267 653C293 653 319 638 319 608C319 575 292 554 268 536L92 406L81 343L355 343L366 409L200 409L291 475C340 510 391 548 391 615Z"/>
<glyph unicode="&#xb3;" horiz-adv-x="416" d="M393 620C393 643 384 661 372 676C349 704 309 717 270 717C224 717 192 707 164 685C138 665 122 635 115 598L186 598C194 639 222 661 264 661C296 661 321 643 321 614C321 559 265 559 225 559L215 502C249 502 300 499 300 453C300 411 259 393 222 393C206 393 189 397 176 407C164 416 156 431 156 448C156 452 156 457 157 461L90 461C89 456 89 451 89 446C89 376 151 336 216 336C293 336 371 374 371 461C371 486 350 522 321 530C363 540 393 577 393 620Z"/>
<glyph unicode="&#xb4;" horiz-adv-x="230" d="M274 650L239 723L47 601L72 551Z"/>
<glyph unicode="&#xb5;" horiz-adv-x="576" d="M482 0L482 506L397 506L397 243C397 191 387 136 355 103C333 80 305 65 271 65C191 65 163 110 163 186L163 506L78 506L78 -200L163 -200L163 14C181 0 217 -12 251 -12C310 -12 375 19 401 77L408 0Z"/>
<glyph unicode="&#xb6;" horiz-adv-x="643" d="M632 709L308 709C176 709 79 621 79 495C79 405 150 332 237 332L157 -125L232 -125L366 640L478 640L344 -125L417 -125L551 640L620 640Z"/>
<glyph unicode="&#xb7;" horiz-adv-x="284" d="M203 366L85 366L64 247L182 247Z"/>
<glyph unicode="&#xb8;" horiz-adv-x="160" d="M109 -59L31 -59L-72 -194L9 -235Z"/>
<glyph unicode="&#xb9;" horiz-adv-x="326" d="M274 709L209 709L100 642L86 564L189 627L139 345L209 345Z"/>
<glyph unicode="&#xba;" horiz-adv-x="470" d="M430 505C430 566 418 621 376 663C348 691 308 709 259 709C210 709 171 691 143 663C101 621 88 566 88 505C88 444 101 388 143 346C171 318 210 300 259 300C308 300 348 318 376 346C418 388 430 444 430 505ZM360 505C360 460 353 414 326 386C311 370 289 360 259 360C229 360 208 370 193 386C166 414 159 460 159 505C159 550 166 595 193 623C208 639 229 649 259 649C289 649 311 639 326 623C353 595 360 550 360 505Z"/>
<glyph unicode="&#xbb;" horiz-adv-x="536" d="M492 296L366 527L304 494L389 300L238 111L288 68ZM259 296L132 527L70 494L156 300L4 111L54 68Z"/>
<glyph unicode="&#xbc;" horiz-adv-x="851" d="M750 134L691 134L704 212L636 212L623 134L520 134L710 369L629 369L445 144L433 75L612 75L599 0L667 0L680 75L739 75ZM762 685L713 725L74 21L121 -21ZM302 709L237 709L128 642L114 564L217 627L167 345L237 345Z"/>
<glyph unicode="&#xbd;" horiz-adv-x="883" d="M777 272C777 333 725 373 662 373C579 373 517 321 501 240L572 240C580 282 609 310 653 310C679 310 705 295 705 265C705 232 678 211 654 193L478 63L467 0L741 0L752 66L586 66L677 132C726 167 777 205 777 272ZM762 685L713 725L74 21L121 -21ZM302 709L237 709L128 642L114 564L217 627L167 345L237 345Z"/>
<glyph unicode="&#xbe;" horiz-adv-x="902" d="M801 134L742 134L755 212L687 212L674 134L571 134L761 369L680 369L496 144L484 75L663 75L650 0L718 0L731 75L790 75ZM813 685L764 725L125 21L172 -21ZM393 620C393 643 384 661 372 676C349 704 309 717 270 717C224 717 192 707 164 685C138 665 122 635 115 598L186 598C194 639 222 661 264 661C296 661 321 643 321 614C321 559 265 559 225 559L215 502C249 502 300 499 300 453C300 411 259 393 222 393C206 393 189 397 176 407C164 416 156 431 156 448C156 452 156 457 157 461L90 461C89 456 89 451 89 446C89 376 151 336 216 336C293 336 371 374 371 461C371 486 350 522 321 530C363 540 393 577 393 620Z"/>
<glyph unicode="&#xbf;" horiz-adv-x="485" d="M371 506L264 506L245 396L352 396ZM444 -7L353 -7C340 -81 291 -139 205 -139C168 -139 135 -127 115 -103C102 -87 93 -67 93 -42C93 14 119 38 145 63C184 101 235 121 273 162C299 190 316 226 322 282L326 317L248 317L244 292C238 256 225 229 203 206C166 167 113 149 68 102C31 63 5 16 5 -46C5 -91 21 -131 53 -162C87 -195 135 -216 200 -216C270 -216 334 -190 375 -149C415 -109 434 -62 444 -7Z"/>
<glyph unicode="&#xc0;" horiz-adv-x="605" d="M481 802L332 925L278 856L446 757ZM545 0L418 709L314 709L-61 0L33 0L119 168L428 168L456 0ZM413 252L162 252L351 620Z"/>
<glyph unicode="&#xc1;" horiz-adv-x="605" d="M490 853L455 926L263 804L288 754ZM545 0L418 709L314 709L-61 0L33 0L119 168L428 168L456 0ZM413 252L162 252L351 620Z"/>
<glyph unicode="&#xc2;" horiz-adv-x="605" d="M220 805L262 755L389 852L478 754L531 803L425 918L368 918ZM545 0L418 709L314 709L-61 0L33 0L119 168L428 168L456 0ZM413 252L162 252L351 620Z"/>
<glyph unicode="&#xc3;" horiz-adv-x="605" d="M543 834L513 876C495 859 471 846 445 846C399 846 376 890 321 890C276 890 242 866 210 836L242 794C262 811 281 822 308 822C351 822 372 780 432 780C476 780 513 803 543 834ZM545 0L418 709L314 709L-61 0L33 0L119 168L428 168L456 0ZM413 252L162 252L351 620Z"/>
<glyph unicode="&#xc4;" horiz-adv-x="605" d="M526 881L434 881L418 789L510 789ZM350 881L258 881L242 789L334 789ZM545 0L418 709L314 709L-61 0L33 0L119 168L428 168L456 0ZM413 252L162 252L351 620Z"/>
<glyph unicode="&#xc5;" horiz-adv-x="605" d="M545 0L426 663C469 683 494 725 494 770C494 831 448 888 372 888C296 888 251 831 251 770C251 733 268 698 297 676L-61 0L33 0L119 168L428 168L456 0ZM432 770C432 741 414 714 384 709L360 709C330 714 312 741 312 770C312 803 335 832 372 832C409 832 432 803 432 770ZM413 252L162 252L351 620Z"/>
<glyph unicode="&#xc6;" horiz-adv-x="900" d="M916 709L378 709L-68 0L33 0L149 189L401 189L367 0L795 0L810 84L472 84L517 337L803 337L818 421L532 421L568 626L901 626ZM478 629L416 273L201 273L420 629Z"/>
<glyph unicode="&#xc7;" horiz-adv-x="608" d="M606 485C606 545 583 606 541 650C496 697 438 722 364 722C284 722 219 691 169 643C73 550 35 381 35 253C35 103 128 -13 284 -13C351 -13 412 10 457 46C507 86 544 147 557 208L464 208C455 172 437 145 409 118C381 90 336 72 289 72C178 72 126 155 126 258C126 356 159 509 231 581C263 613 307 637 359 637C406 637 440 625 469 597C497 570 514 531 514 485ZM305 -56L227 -56L124 -191L205 -232Z"/>
<glyph unicode="&#xc8;" horiz-adv-x="608" d="M506 806L357 929L303 860L471 761ZM624 709L156 709L32 0L505 0L518 82L136 82L180 328L513 328L528 411L193 411L232 627L610 627Z"/>
<glyph unicode="&#xc9;" horiz-adv-x="608" d="M533 853L498 926L306 804L331 754ZM624 709L156 709L32 0L505 0L518 82L136 82L180 328L513 328L528 411L193 411L232 627L610 627Z"/>
<glyph unicode="&#xca;" horiz-adv-x="608" d="M624 709L156 709L32 0L505 0L518 82L136 82L180 328L513 328L528 411L193 411L232 627L610 627ZM237 805L279 755L406 852L495 754L548 803L442 918L385 918Z"/>
<glyph unicode="&#xcb;" horiz-adv-x="608" d="M553 881L461 881L445 789L537 789ZM377 881L285 881L269 789L361 789ZM624 709L156 709L32 0L505 0L518 82L136 82L180 328L513 328L528 411L193 411L232 627L610 627Z"/>
<glyph unicode="&#xcc;" horiz-adv-x="281" d="M314 802L165 925L111 856L279 757ZM249 709L157 709L32 0L124 0Z"/>
<glyph unicode="&#xcd;" horiz-adv-x="281" d="M319 853L284 926L92 804L117 754ZM246 709L154 709L29 0L121 0Z"/>
<glyph unicode="&#xce;" horiz-adv-x="281" d="M249 709L157 709L32 0L124 0ZM61 805L103 755L230 852L319 754L372 803L266 918L209 918Z"/>
<glyph unicode="&#xcf;" horiz-adv-x="281" d="M362 881L270 881L254 789L346 789ZM186 881L94 881L78 789L170 789ZM246 709L154 709L29 0L121 0Z"/>
<glyph unicode="&#xd0;" horiz-adv-x="663" d="M626 453C626 599 535 709 384 709L157 709L103 401L52 401L40 335L91 335L32 0L290 0C383 0 446 27 496 75C589 165 626 328 626 453ZM537 448C537 353 505 203 435 134C404 103 352 82 301 82L136 82L181 335L348 335L360 401L192 401L232 627L374 627C481 627 537 548 537 448Z"/>
<glyph unicode="&#xd1;" horiz-adv-x="724" d="M595 828L565 870C547 853 523 840 497 840C451 840 428 884 373 884C328 884 294 860 262 830L294 788C314 805 333 816 360 816C403 816 424 774 484 774C528 774 565 797 595 828ZM689 709L599 709L499 127L256 709L154 709L29 0L119 0L219 580L462 0L564 0Z"/>
<glyph unicode="&#xd2;" horiz-adv-x="645" d="M508 810L359 933L305 864L473 765ZM608 456C608 604 520 722 361 722C281 722 220 691 170 643C74 550 35 381 35 253C35 103 128 -13 284 -13C364 -13 426 18 476 66C572 159 608 328 608 456ZM516 451C516 353 486 199 414 127C382 95 341 72 289 72C178 72 126 155 126 258C126 356 160 509 232 581C264 613 304 637 356 637C467 637 516 554 516 451Z"/>
<glyph unicode="&#xd3;" horiz-adv-x="645" d="M505 858L470 931L278 809L303 759ZM608 456C608 604 520 722 361 722C281 722 220 691 170 643C74 550 35 381 35 253C35 103 128 -13 284 -13C364 -13 426 18 476 66C572 159 608 328 608 456ZM516 451C516 353 486 199 414 127C382 95 341 72 289 72C178 72 126 155 126 258C126 356 160 509 232 581C264 613 304 637 356 637C467 637 516 554 516 451Z"/>
<glyph unicode="&#xd4;" horiz-adv-x="645" d="M608 456C608 604 520 722 361 722C281 722 220 691 170 643C74 550 35 381 35 253C35 103 128 -13 284 -13C364 -13 426 18 476 66C572 159 608 328 608 456ZM516 451C516 353 486 199 414 127C382 95 341 72 289 72C178 72 126 155 126 258C126 356 160 509 232 581C264 613 304 637 356 637C467 637 516 554 516 451ZM237 805L279 755L406 852L495 754L548 803L442 918L385 918Z"/>
<glyph unicode="&#xd5;" horiz-adv-x="645" d="M569 834L539 876C521 859 497 846 471 846C425 846 402 890 347 890C302 890 268 866 236 836L268 794C288 811 307 822 334 822C377 822 398 780 458 780C502 780 539 803 569 834ZM608 456C608 604 520 722 361 722C281 722 220 691 170 643C74 550 35 381 35 253C35 103 128 -13 284 -13C364 -13 426 18 476 66C572 159 608 328 608 456ZM516 451C516 353 486 199 414 127C382 95 341 72 289 72C178 72 126 155 126 258C126 356 160 509 232 581C264 613 304 637 356 637C467 637 516 554 516 451Z"/>
<glyph unicode="&#xd6;" horiz-adv-x="645" d="M545 883L453 883L437 791L529 791ZM369 883L277 883L261 791L353 791ZM608 456C608 604 520 722 361 722C281 722 220 691 170 643C74 550 35 381 35 253C35 103 128 -13 284 -13C364 -13 426 18 476 66C572 159 608 328 608 456ZM516 451C516 353 486 199 414 127C382 95 341 72 289 72C178 72 126 155 126 258C126 356 160 509 232 581C264 613 304 637 356 637C467 637 516 554 516 451Z"/>
<glyph unicode="&#xd7;" horiz-adv-x="668" d="M610 76L387 298L610 520L556 574L333 352L112 574L58 520L280 298L58 76L112 22L334 244L556 22Z"/>
<glyph unicode="&#xd8;" horiz-adv-x="645" d="M608 456C608 531 586 599 542 647L602 743L552 768L499 684C462 708 416 722 361 722C281 722 220 691 170 643C74 550 35 381 35 253C35 176 59 108 104 60L39 -43L90 -69L148 24C185 1 231 -13 284 -13C364 -13 426 18 476 66C572 159 608 327 608 456ZM451 609L155 141C135 173 126 214 126 258C126 356 160 509 232 581C264 613 304 637 356 637C395 637 427 627 451 609ZM516 451C516 353 486 199 414 127C382 95 341 72 289 72C251 72 220 82 196 99L490 565C508 534 516 494 516 451Z"/>
<glyph unicode="&#xd9;" horiz-adv-x="682" d="M510 802L361 925L307 856L475 757ZM665 709L575 709L492 240C476 149 411 70 308 70C255 70 219 80 190 108C160 137 153 174 153 212C153 230 154 250 157 268L235 709L145 709L69 278C65 255 64 232 64 209C64 153 78 101 117 58C160 12 223 -13 302 -13C357 -13 411 2 450 27C522 72 566 145 582 238Z"/>
<glyph unicode="&#xda;" horiz-adv-x="682" d="M533 853L498 926L306 804L331 754ZM665 709L575 709L492 240C476 149 411 70 308 70C255 70 219 80 190 108C160 137 153 174 153 212C153 230 154 250 157 268L235 709L145 709L69 278C65 255 64 232 64 209C64 153 78 101 117 58C160 12 223 -13 302 -13C357 -13 411 2 450 27C522 72 566 145 582 238Z"/>
<glyph unicode="&#xdb;" horiz-adv-x="682" d="M665 709L575 709L492 240C475 144 411 72 309 72C213 72 152 118 152 214C152 232 154 250 157 268L235 709L145 709L69 278C65 256 63 233 63 211C63 75 160 -13 304 -13C459 -13 556 91 582 238ZM262 805L304 755L431 852L520 754L573 803L467 918L410 918Z"/>
<glyph unicode="&#xdc;" horiz-adv-x="682" d="M563 882L471 882L455 790L547 790ZM387 882L295 882L279 790L371 790ZM665 709L575 709L492 240C476 149 411 70 308 70C255 70 219 80 190 108C160 137 153 174 153 212C153 230 154 250 157 268L235 709L145 709L69 278C65 255 64 232 64 209C64 153 78 101 117 58C160 12 223 -13 302 -13C357 -13 411 2 450 27C522 72 566 145 582 238Z"/>
<glyph unicode="&#xdd;" horiz-adv-x="545" d="M464 846L429 919L237 797L262 747ZM613 709L512 709L268 372L141 709L50 709L211 287L159 0L250 0L300 287Z"/>
<glyph unicode="&#xde;" horiz-adv-x="593" d="M574 394C574 515 479 577 367 577L222 577L245 710L155 710L30 0L120 0L145 143L308 143C460 143 574 235 574 394ZM481 387C481 284 412 224 311 224L159 224L207 496L350 496C420 496 481 465 481 387Z"/>
<glyph unicode="&#xdf;" horiz-adv-x="588" d="M539 564C539 658 465 729 356 729C233 729 152 643 131 520L128 503L42 503L29 427L115 427L41 0L127 0L217 518C230 594 275 657 351 657C410 657 452 624 452 561C452 491 402 425 329 425C329 425 304 424 292 425L279 351L306 351C379 351 442 307 442 223C442 126 384 64 286 64C258 64 227 68 200 76L188 6C222 -5 259 -11 295 -11C432 -11 529 88 529 220C529 299 483 370 404 387C489 401 539 482 539 564Z"/>
<glyph unicode="&#xe0;" horiz-adv-x="557" d="M411 598L262 721L208 652L376 553ZM504 506L434 506L409 441C397 466 375 487 350 500C325 513 297 519 271 519C209 519 156 493 117 455C52 392 21 294 21 203C21 136 37 79 77 37C107 5 149 -13 200 -13C257 -13 322 24 350 75L350 0L415 0ZM381 314C381 203 318 60 213 60C181 60 157 74 140 94C114 124 108 164 108 203C108 266 130 352 180 403C205 428 239 446 276 446C320 446 346 425 363 397C378 374 381 346 381 314Z"/>
<glyph unicode="&#xe1;" horiz-adv-x="557" d="M423 654L388 727L196 605L221 555ZM504 506L434 506L409 441C397 466 375 487 350 500C325 513 297 519 271 519C209 519 156 493 117 455C52 392 21 294 21 203C21 136 37 79 77 37C107 5 149 -13 200 -13C257 -13 322 24 350 75L350 0L415 0ZM381 314C381 203 318 60 213 60C181 60 157 74 140 94C114 124 108 164 108 203C108 266 130 352 180 403C205 428 239 446 276 446C320 446 346 425 363 397C378 374 381 346 381 314Z"/>
<glyph unicode="&#xe2;" horiz-adv-x="557" d="M504 506L434 506L409 441C397 466 375 487 350 500C325 513 297 519 271 519C209 519 156 493 117 455C52 392 21 294 21 203C21 136 37 79 77 37C107 5 149 -13 200 -13C257 -13 322 24 350 75L350 0L415 0ZM381 314C381 203 318 60 213 60C181 60 157 74 140 94C114 124 108 164 108 203C108 266 130 352 180 403C205 428 239 446 276 446C318 446 346 424 362 397C376 373 381 346 381 314ZM159 605L201 559L310 653L383 561L435 601L344 720L289 720Z"/>
<glyph unicode="&#xe3;" horiz-adv-x="557" d="M488 647L458 689C440 672 416 659 390 659C344 659 321 703 266 703C221 703 187 679 155 649L187 607C207 624 226 635 253 635C296 635 317 593 377 593C421 593 458 616 488 647ZM504 506L434 506L409 441C397 466 375 487 350 500C325 513 297 519 271 519C209 519 156 493 117 455C52 392 21 294 21 203C21 136 37 79 77 37C107 5 149 -13 200 -13C257 -13 322 24 350 75L350 0L415 0ZM381 314C381 203 318 60 213 60C181 60 157 74 140 94C114 124 108 164 108 203C108 266 130 352 180 403C205 428 239 446 276 446C320 446 346 425 363 397C378 374 381 346 381 314Z"/>
<glyph unicode="&#xe4;" horiz-adv-x="557" d="M465 694L373 694L357 602L449 602ZM289 694L197 694L181 602L273 602ZM504 506L434 506L409 441C397 466 375 487 350 500C325 513 297 519 271 519C209 519 156 493 117 455C52 392 21 294 21 203C21 136 37 79 77 37C107 5 149 -13 200 -13C257 -13 322 24 350 75L350 0L415 0ZM381 314C381 203 318 60 213 60C181 60 157 74 140 94C114 124 108 164 108 203C108 266 130 352 180 403C205 428 239 446 276 446C320 446 346 425 363 397C378 374 381 346 381 314Z"/>
<glyph unicode="&#xe5;" horiz-adv-x="557" d="M436 671C436 726 395 778 326 778C257 778 216 726 216 671C216 616 257 564 326 564C395 564 436 616 436 671ZM504 506L434 506L409 441C397 466 375 487 350 500C325 513 297 519 271 519C209 519 156 493 117 455C52 392 21 294 21 203C21 136 37 79 77 37C107 5 149 -13 200 -13C257 -13 322 24 350 75L350 0L415 0ZM380 671C380 641 359 616 326 616C293 616 271 641 271 671C271 701 293 727 326 727C359 727 380 701 380 671ZM381 314C381 203 318 60 213 60C181 60 157 74 140 94C114 124 108 164 108 203C108 266 130 352 180 403C205 428 239 446 276 446C320 446 346 425 363 397C378 374 381 346 381 314Z"/>
<glyph unicode="&#xe6;" horiz-adv-x="835" d="M783 308C783 363 767 420 730 461C694 501 649 519 591 519C545 519 506 505 472 484C455 474 437 457 424 442C402 493 338 519 282 519C176 519 84 466 60 357L143 357C150 388 170 415 197 431C218 443 243 448 273 448C303 448 326 437 341 421C358 403 362 384 362 360C362 336 360 322 355 298L196 298C93 298 3 231 3 121C3 86 17 61 38 37C65 6 113 -13 161 -13C190 -13 213 -10 237 -3C290 13 336 47 368 92C398 25 469 -13 540 -13C637 -13 718 45 749 142L664 142C642 92 599 60 548 60C469 60 424 116 424 199C424 208 424 217 425 226L773 226C779 250 783 279 783 308ZM700 318C700 311 700 306 699 299L436 299C446 338 462 375 487 402C511 428 546 447 586 447C660 447 700 388 700 318ZM345 231C337 184 317 132 275 97C244 71 213 60 173 60C130 60 90 86 90 132C90 193 140 231 205 231Z"/>
<glyph unicode="&#xe7;" horiz-adv-x="511" d="M468 339C468 452 383 519 275 519C100 519 21 348 21 195C21 71 104 -13 224 -13C329 -13 424 58 440 159L355 159C336 102 291 60 228 60C192 60 166 72 146 91C120 116 108 154 108 198C108 265 126 353 175 403C199 428 230 446 271 446C338 446 381 401 381 334C381 330 380 327 380 323L467 323C467 328 468 334 468 339ZM248 -59L170 -59L67 -194L148 -235Z"/>
<glyph unicode="&#xe8;" horiz-adv-x="529" d="M421 598L272 721L218 652L386 553ZM478 308C478 363 461 420 423 461C386 501 335 519 280 519C212 519 157 494 115 452C54 392 21 300 21 211C21 162 33 115 56 77C94 16 156 -13 227 -13C327 -13 412 45 443 142L355 142C333 92 289 60 236 60C155 60 108 116 108 199C108 208 108 217 109 226L468 226C474 250 478 279 478 308ZM392 318C392 311 392 306 391 299L120 299C130 337 147 374 173 400C198 426 234 447 275 447C352 447 392 388 392 318Z"/>
<glyph unicode="&#xe9;" horiz-adv-x="529" d="M438 652L403 725L211 603L236 553ZM478 308C478 363 461 420 423 461C386 501 335 519 280 519C212 519 157 494 115 452C54 392 21 300 21 211C21 162 33 115 56 77C94 16 156 -13 227 -13C327 -13 412 45 443 142L355 142C333 92 289 60 236 60C155 60 108 116 108 199C108 208 108 217 109 226L468 226C474 250 478 279 478 308ZM392 318C392 311 392 306 391 299L120 299C130 337 147 374 173 400C198 426 234 447 275 447C352 447 392 388 392 318Z"/>
<glyph unicode="&#xea;" horiz-adv-x="529" d="M478 308C478 363 461 420 423 461C386 501 335 519 280 519C212 519 157 494 115 452C54 392 21 300 21 211C21 162 33 115 56 77C94 16 156 -13 227 -13C327 -13 412 45 443 142L355 142C333 92 289 60 236 60C155 60 108 116 108 199C108 208 108 217 109 226L468 226C474 250 478 279 478 308ZM392 318C392 311 392 306 391 299L120 299C130 337 147 374 173 400C198 426 234 447 275 447C352 447 392 388 392 318ZM156 605L198 559L307 653L380 561L432 601L341 720L286 720Z"/>
<glyph unicode="&#xeb;" horiz-adv-x="529" d="M458 691L366 691L350 599L442 599ZM282 691L190 691L174 599L266 599ZM478 308C478 363 461 420 423 461C386 501 335 519 280 519C212 519 157 494 115 452C54 392 21 300 21 211C21 162 33 115 56 77C94 16 156 -13 227 -13C327 -13 412 45 443 142L355 142C333 92 289 60 236 60C155 60 108 116 108 199C108 208 108 217 109 226L468 226C474 250 478 279 478 308ZM392 318C392 311 392 306 391 299L120 299C130 337 147 374 173 400C198 426 234 447 275 447C352 447 392 388 392 318Z"/>
<glyph unicode="&#xec;" horiz-adv-x="258" d="M269 598L120 721L66 652L234 553ZM200 506L113 506L23 0L110 0Z"/>
<glyph unicode="&#xed;" horiz-adv-x="258" d="M296 650L261 723L69 601L94 551ZM201 506L113 506L23 0L111 0Z"/>
<glyph unicode="&#xee;" horiz-adv-x="258" d="M201 506L113 506L23 0L111 0ZM35 605L77 559L186 653L259 561L311 601L220 720L165 720Z"/>
<glyph unicode="&#xef;" horiz-adv-x="258" d="M321 691L229 691L213 599L305 599ZM145 691L53 691L37 599L129 599ZM200 506L113 506L23 0L110 0Z"/>
<glyph unicode="&#xf0;" horiz-adv-x="537" d="M479 308C479 333 474 366 465 390L393 588L460 588L471 647L369 647L340 722L258 722L285 647L200 647L189 588L309 588L336 511C318 516 299 519 280 519C105 519 25 350 25 198C25 143 42 92 73 55C109 12 165 -13 224 -13C399 -13 479 156 479 308ZM392 306C392 209 351 60 231 60C150 60 112 127 112 200C112 297 153 446 273 446C354 446 392 379 392 306Z"/>
<glyph unicode="&#xf1;" horiz-adv-x="565" d="M507 647L477 689C459 672 435 659 409 659C363 659 340 703 285 703C240 703 206 679 174 649L206 607C226 624 245 635 272 635C315 635 336 593 396 593C440 593 477 616 507 647ZM491 382C491 418 483 452 456 479C430 505 392 519 345 519C284 519 217 487 181 436L181 506L112 506L23 0L108 0L152 247C159 289 173 332 197 368C223 407 270 444 319 444C351 444 371 435 385 421C400 406 404 387 404 360C404 349 399 315 397 304L343 0L428 0L483 310C486 329 491 362 491 382Z"/>
<glyph unicode="&#xf2;" horiz-adv-x="532" d="M415 598L266 721L212 652L380 553ZM475 308C475 363 457 415 426 452C390 495 335 519 276 519C101 519 21 350 21 198C21 143 39 91 70 54C106 11 161 -13 220 -13C395 -13 475 156 475 308ZM388 306C388 209 347 60 227 60C144 60 108 126 108 200C108 297 149 446 269 446C352 446 388 380 388 306Z"/>
<glyph unicode="&#xf3;" horiz-adv-x="532" d="M433 653L398 726L206 604L231 554ZM475 308C475 363 457 415 426 452C390 495 335 519 276 519C101 519 21 350 21 198C21 143 39 91 70 54C106 11 161 -13 220 -13C395 -13 475 156 475 308ZM388 306C388 209 347 60 227 60C144 60 108 126 108 200C108 297 149 446 269 446C352 446 388 380 388 306Z"/>
<glyph unicode="&#xf4;" horiz-adv-x="532" d="M475 308C475 363 457 415 426 452C390 495 335 519 276 519C101 519 21 350 21 198C21 143 39 91 70 54C106 11 161 -13 220 -13C395 -13 475 156 475 308ZM388 306C388 209 347 60 227 60C144 60 108 126 108 200C108 297 149 446 269 446C352 446 388 380 388 306ZM159 605L201 559L310 653L383 561L435 601L344 720L289 720Z"/>
<glyph unicode="&#xf5;" horiz-adv-x="532" d="M492 653L462 695C444 678 420 665 394 665C348 665 325 709 270 709C225 709 191 685 159 655L191 613C211 630 230 641 257 641C300 641 321 599 381 599C425 599 462 622 492 653ZM475 308C475 363 457 415 426 452C390 495 335 519 276 519C101 519 21 350 21 198C21 143 39 91 70 54C106 11 161 -13 220 -13C395 -13 475 156 475 308ZM388 306C388 209 347 60 227 60C144 60 108 126 108 200C108 297 149 446 269 446C352 446 388 380 388 306Z"/>
<glyph unicode="&#xf6;" horiz-adv-x="532" d="M454 691L362 691L346 599L438 599ZM278 691L186 691L170 599L262 599ZM475 308C475 363 457 415 426 452C390 495 335 519 276 519C101 519 21 350 21 198C21 143 39 91 70 54C106 11 161 -13 220 -13C395 -13 475 156 475 308ZM388 306C388 209 347 60 227 60C144 60 108 126 108 200C108 297 149 446 269 446C352 446 388 380 388 306Z"/>
<glyph unicode="&#xf7;" horiz-adv-x="638" d="M366 442L366 560L252 560L252 442ZM562 261L562 339L60 339L60 261ZM366 48L366 166L252 166L252 48Z"/>
<glyph unicode="&#xf8;" horiz-adv-x="536" d="M479 557L436 585L377 493C347 510 312 519 276 519C101 519 21 350 21 198C21 143 39 91 70 54C75 48 80 42 86 37L32 -48L76 -77L130 7C157 -6 188 -13 220 -13C395 -13 475 156 475 308C475 363 457 421 418 461ZM388 306C388 209 347 60 227 60C205 60 187 65 171 73L371 386C383 363 388 335 388 306ZM335 427L132 108C116 133 108 166 108 200C108 297 149 446 269 446C296 446 318 439 335 427Z"/>
<glyph unicode="&#xf9;" horiz-adv-x="564" d="M504 506L419 506L375 259C368 220 356 169 332 134C307 97 272 62 222 62C191 62 170 71 155 87C140 103 131 125 131 157C131 169 132 182 134 195L189 506L104 506L48 190C45 172 44 156 44 140C44 88 61 49 91 23C117 0 152 -13 196 -13C250 -13 312 14 345 65L345 0L415 0ZM411 598L262 721L208 652L376 553Z"/>
<glyph unicode="&#xfa;" horiz-adv-x="564" d="M504 506L419 506L375 259C368 220 356 169 332 134C307 97 272 62 222 62C191 62 170 71 155 87C140 103 131 125 131 157C131 169 132 182 134 195L189 506L104 506L48 190C45 172 44 156 44 140C44 88 61 49 91 23C117 0 152 -13 196 -13C250 -13 312 14 345 65L345 0L415 0ZM446 652L411 725L219 603L244 553Z"/>
<glyph unicode="&#xfb;" horiz-adv-x="564" d="M504 506L419 506L375 259C368 220 356 169 332 134C307 97 272 62 222 62C191 62 170 71 155 87C140 103 131 125 131 157C131 169 132 182 134 195L189 506L104 506L48 190C45 172 44 156 44 140C44 88 61 49 91 23C117 0 152 -13 196 -13C250 -13 312 14 345 65L345 0L415 0ZM475 605L373 736L318 736L170 605L210 560L337 675L425 560Z"/>
<glyph unicode="&#xfc;" horiz-adv-x="564" d="M504 506L419 506L375 259C368 220 356 169 332 134C307 97 272 62 222 62C191 62 170 71 155 87C140 103 131 125 131 157C131 169 132 182 134 195L189 506L104 506L48 190C45 172 44 156 44 140C44 88 61 49 91 23C117 0 152 -13 196 -13C250 -13 312 14 345 65L345 0L415 0ZM475 691L383 691L367 599L459 599ZM299 691L207 691L191 599L283 599Z"/>
<glyph unicode="&#xfd;" horiz-adv-x="487" d="M420 652L385 725L193 603L218 553ZM506 506L412 506L201 110L119 506L30 506L141 6L85 -96C69 -125 47 -136 20 -136C-12 -136 -37 -123 -55 -112L-69 -184C-43 -201 -9 -214 34 -214C93 -214 130 -180 159 -127Z"/>
<glyph unicode="&#xfe;" horiz-adv-x="572" d="M512 303C512 356 500 408 467 452C436 493 383 519 330 519C278 519 223 498 189 456L235 722L150 722L-15 -217L69 -217L119 71C148 13 212 -13 269 -13C434 -13 512 157 512 303ZM425 303C425 233 407 148 355 99C331 76 301 61 267 61C180 61 148 131 148 206C148 219 149 233 151 246C159 309 182 382 235 422C256 438 281 449 312 449C395 449 425 375 425 303Z"/>
<glyph unicode="&#xff;" horiz-adv-x="487" d="M429 691L337 691L321 599L413 599ZM253 691L161 691L145 599L237 599ZM506 506L412 506L201 110L119 506L30 506L141 6L82 -101C69 -125 49 -141 17 -141C-13 -141 -39 -128 -57 -117L-69 -183C-45 -199 -11 -214 29 -214C88 -214 130 -180 159 -127Z"/>
<glyph unicode="&#x100;" horiz-adv-x="605" d="M545 0L418 709L314 709L-61 0L33 0L119 168L428 168L456 0ZM413 252L162 252L351 620ZM519 842L241 842L229 774L507 774Z"/>
<glyph unicode="&#x101;" horiz-adv-x="557" d="M504 506L434 506L409 441C397 466 375 487 350 500C325 513 297 519 271 519C209 519 156 493 117 455C52 392 21 294 21 203C21 136 37 79 77 37C107 5 149 -13 200 -13C257 -13 322 24 350 75L350 0L415 0ZM381 314C381 203 318 60 213 60C181 60 157 74 140 94C114 124 108 164 108 203C108 266 130 352 180 403C205 428 239 446 276 446C318 446 346 424 362 397C376 373 381 346 381 314ZM463 656L185 656L173 588L451 588Z"/>
<glyph unicode="&#x102;" horiz-adv-x="605" d="M545 0L418 709L314 709L-61 0L33 0L119 168L428 168L456 0ZM413 252L162 252L351 620ZM560 910L489 910C473 856 438 818 378 818C330 818 297 851 297 899L297 910L231 910C230 903 230 896 230 889C230 808 291 754 370 754C469 754 536 817 560 910Z"/>
<glyph unicode="&#x103;" horiz-adv-x="557" d="M504 506L434 506L409 441C397 466 375 487 350 500C325 513 297 519 271 519C209 519 156 493 117 455C52 392 21 294 21 203C21 136 37 79 77 37C107 5 149 -13 200 -13C257 -13 322 24 350 75L350 0L415 0ZM381 314C381 203 318 60 213 60C181 60 157 74 140 94C114 124 108 164 108 203C108 266 130 352 180 403C205 428 239 446 276 446C318 446 346 424 362 397C376 373 381 346 381 314ZM493 710L422 710C406 656 371 618 311 618C263 618 230 651 230 699L230 710L164 710C163 703 163 696 163 689C163 608 224 554 303 554C402 554 469 617 493 710Z"/>
<glyph unicode="&#x104;" horiz-adv-x="605" d="M374 -118C374 -162 404 -194 458 -194L468 -194C492 -193 503 -189 511 -187L520 -129C520 -129 507 -130 490 -130C463 -130 452 -120 452 -97C452 -55 505 -14 545 0L418 709L314 709L-61 0L33 0L119 168L428 168L456 0L461 0C417 -21 374 -77 374 -118ZM413 252L162 252L351 620Z"/>
<glyph unicode="&#x105;" horiz-adv-x="557" d="M246 -118C246 -162 276 -194 330 -194L340 -194C364 -193 375 -189 383 -187L392 -129C392 -129 379 -130 362 -130C335 -130 324 -120 324 -97C324 -55 377 -14 415 0L504 506L434 506L409 441C397 466 375 487 350 500C325 513 297 519 271 519C209 519 156 493 117 455C52 392 21 294 21 203C21 136 37 79 77 37C107 5 149 -13 200 -13C257 -13 322 24 350 75L350 8L333 0C289 -21 246 -77 246 -118ZM381 314C381 203 318 60 213 60C181 60 157 74 140 94C114 124 108 164 108 203C108 266 130 352 180 403C205 428 239 446 276 446C318 446 346 424 362 397C376 373 381 346 381 314Z"/>
<glyph unicode="&#x106;" horiz-adv-x="608" d="M606 485C606 545 583 606 541 650C496 697 438 722 364 722C284 722 219 691 169 643C73 550 35 381 35 253C35 103 128 -13 284 -13C351 -13 412 10 457 46C507 86 544 147 557 208L464 208C455 172 437 145 409 118C381 90 336 72 289 72C178 72 126 155 126 258C126 356 159 509 231 581C263 613 307 637 359 637C406 637 440 625 469 597C497 570 514 531 514 485ZM540 853L505 926L313 804L338 754Z"/>
<glyph unicode="&#x107;" horiz-adv-x="511" d="M468 339C468 452 383 519 275 519C100 519 21 348 21 195C21 71 104 -13 224 -13C329 -13 424 58 440 159L355 159C336 102 291 60 228 60C192 60 166 72 146 91C120 116 108 154 108 198C108 265 126 353 175 403C199 428 230 446 271 446C338 446 381 401 381 334C381 330 380 327 380 323L467 323C467 328 468 334 468 339ZM458 650L423 723L231 601L256 551Z"/>
<glyph unicode="&#x108;" horiz-adv-x="608" d="M606 485C606 545 583 606 541 650C496 697 438 722 364 722C284 722 219 691 169 643C73 550 35 381 35 253C35 103 128 -13 284 -13C351 -13 412 10 457 46C507 86 544 147 557 208L464 208C455 172 437 145 409 118C381 90 336 72 289 72C178 72 126 155 126 258C126 356 159 509 231 581C263 613 307 637 359 637C406 637 440 625 469 597C497 570 514 531 514 485ZM231 805L273 755L400 852L489 754L542 803L436 918L379 918Z"/>
<glyph unicode="&#x109;" horiz-adv-x="511" d="M468 339C468 452 383 519 275 519C100 519 21 348 21 195C21 71 104 -13 224 -13C329 -13 424 58 440 159L355 159C336 102 291 60 228 60C192 60 166 72 146 91C120 116 108 154 108 198C108 265 126 353 175 403C199 428 230 446 271 446C338 446 381 401 381 334C381 330 380 327 380 323L467 323C467 328 468 334 468 339ZM167 605L209 559L318 653L391 561L443 601L352 720L297 720Z"/>
<glyph unicode="&#x10a;" horiz-adv-x="608" d="M606 485C606 545 583 606 541 650C496 697 438 722 364 722C284 722 219 691 169 643C73 550 35 381 35 253C35 103 128 -13 284 -13C351 -13 412 10 457 46C507 86 544 147 557 208L464 208C455 172 437 145 409 118C381 90 336 72 289 72C178 72 126 155 126 258C126 356 159 509 231 581C263 613 307 637 359 637C406 637 440 625 469 597C497 570 514 531 514 485ZM446 881L354 881L338 789L430 789Z"/>
<glyph unicode="&#x10b;" horiz-adv-x="511" d="M468 339C468 452 383 519 275 519C100 519 21 348 21 195C21 71 104 -13 224 -13C329 -13 424 58 440 159L355 159C336 102 291 60 228 60C192 60 166 72 146 91C120 116 108 154 108 198C108 265 126 353 175 403C199 428 230 446 271 446C338 446 381 401 381 334C381 330 380 327 380 323L467 323C467 328 468 334 468 339ZM361 691L269 691L253 599L345 599Z"/>
<glyph unicode="&#x10c;" horiz-adv-x="608" d="M606 485C606 545 583 606 541 650C496 697 438 722 364 722C284 722 219 691 169 643C73 550 35 381 35 253C35 103 128 -13 284 -13C351 -13 412 10 457 46C507 86 544 147 557 208L464 208C455 172 437 145 409 118C381 90 336 72 289 72C178 72 126 155 126 258C126 356 159 509 231 581C263 613 307 637 359 637C406 637 440 625 469 597C497 570 514 531 514 485ZM552 867L510 917L383 820L294 918L241 869L347 754L404 754Z"/>
<glyph unicode="&#x10d;" horiz-adv-x="511" d="M468 339C468 452 383 519 275 519C100 519 21 348 21 195C21 71 104 -13 224 -13C329 -13 424 58 440 159L355 159C336 102 291 60 228 60C192 60 166 72 146 91C120 116 108 154 108 198C108 265 126 353 175 403C199 428 230 446 271 446C338 446 381 401 381 334C381 330 380 327 380 323L467 323C467 328 468 334 468 339ZM457 672L415 718L306 624L237 716L182 676L272 557L327 557Z"/>
<glyph unicode="&#x10e;" horiz-adv-x="663" d="M626 453C626 599 535 709 384 709L157 709L32 0L290 0C383 0 446 27 496 75C589 165 626 328 626 453ZM537 448C537 353 505 203 435 134C404 103 352 82 301 82L136 82L232 627L374 627C481 627 537 548 537 448ZM544 867L502 917L375 820L286 918L233 869L339 754L396 754Z"/>
<glyph unicode="&#x10f;" horiz-adv-x="573" d="M557 722L471 722L421 436C398 492 334 519 278 519C211 519 156 491 116 449C56 386 25 290 25 203C25 150 39 94 73 52C105 12 156 -13 207 -13C263 -13 324 11 359 64L359 0L430 0ZM392 300C392 270 387 241 380 212C368 162 342 116 303 87C282 71 258 60 227 60C144 60 113 131 113 203C113 273 137 359 189 408C213 431 243 446 277 446C364 446 392 375 392 300ZM664 722L587 722L571 631L604 631L603 625C599 601 592 584 558 568L567 535C628 561 643 601 649 637Z"/>
<glyph unicode="&#x110;" horiz-adv-x="663" d="M626 453C626 599 535 709 384 709L157 709L103 401L52 401L40 335L91 335L32 0L290 0C383 0 446 27 496 75C589 165 626 328 626 453ZM537 448C537 353 505 203 435 134C404 103 352 82 301 82L136 82L181 335L348 335L360 401L192 401L232 627L374 627C481 627 537 548 537 448Z"/>
<glyph unicode="&#x111;" horiz-adv-x="573" d="M557 722L471 722L454 628L296 628L285 565L443 565L421 436C398 492 334 519 278 519C211 519 156 491 116 449C56 386 25 290 25 203C25 150 39 94 73 52C105 12 156 -13 207 -13C263 -13 324 11 359 64L359 0L430 0L529 565L591 565L602 628L540 628ZM392 300C392 270 387 241 380 212C368 162 342 116 303 87C282 71 258 60 227 60C144 60 113 131 113 203C113 273 137 359 189 408C213 431 243 446 277 446C364 446 392 375 392 300Z"/>
<glyph unicode="&#x112;" horiz-adv-x="608" d="M624 709L156 709L32 0L505 0L518 82L136 82L180 328L513 328L528 411L193 411L232 627L610 627ZM544 842L266 842L254 774L532 774Z"/>
<glyph unicode="&#x113;" horiz-adv-x="529" d="M478 308C478 363 461 420 423 461C386 501 335 519 280 519C212 519 157 494 115 452C54 392 21 300 21 211C21 162 33 115 56 77C94 16 156 -13 227 -13C327 -13 412 45 443 142L355 142C333 92 289 60 236 60C155 60 108 116 108 199C108 208 108 217 109 226L468 226C474 250 478 279 478 308ZM392 318C392 311 392 306 391 299L120 299C130 337 147 374 173 400C198 426 234 447 275 447C352 447 392 388 392 318ZM449 656L171 656L159 588L437 588Z"/>
<glyph unicode="&#x116;" horiz-adv-x="608" d="M624 709L156 709L32 0L505 0L518 82L136 82L180 328L513 328L528 411L193 411L232 627L610 627ZM453 881L361 881L345 789L437 789Z"/>
<glyph unicode="&#x117;" horiz-adv-x="529" d="M478 308C478 363 461 420 423 461C386 501 335 519 280 519C212 519 157 494 115 452C54 392 21 300 21 211C21 162 33 115 56 77C94 16 156 -13 227 -13C327 -13 412 45 443 142L355 142C333 92 289 60 236 60C155 60 108 116 108 199C108 208 108 217 109 226L468 226C474 250 478 279 478 308ZM392 318C392 311 392 306 391 299L120 299C130 337 147 374 173 400C198 426 234 447 275 447C352 447 392 388 392 318ZM356 691L264 691L248 599L340 599Z"/>
<glyph unicode="&#x118;" horiz-adv-x="608" d="M336 -118C336 -162 366 -194 420 -194L430 -194C454 -193 465 -189 473 -187L482 -129C482 -129 469 -130 452 -130C425 -130 414 -120 414 -97C414 -55 467 -14 505 0L518 82L136 82L180 328L513 328L528 411L193 411L232 627L610 627L624 709L156 709L32 0L423 0C379 -21 336 -77 336 -118Z"/>
<glyph unicode="&#x119;" horiz-adv-x="529" d="M478 308C478 363 461 420 423 461C386 501 335 519 280 519C212 519 157 494 115 452C54 392 21 300 21 211C21 162 33 115 56 77C94 16 156 -13 227 -13C252 -13 276 -9 299 -2C272 -34 251 -74 251 -118C251 -162 282 -194 336 -194L346 -194C370 -193 381 -189 389 -187L398 -129C398 -129 385 -130 368 -130C341 -130 329 -120 329 -97C329 -41 364 22 397 60C417 84 433 110 443 142L355 142C333 92 289 60 236 60C155 60 108 116 108 199C108 208 108 217 109 226L468 226C474 250 478 279 478 308ZM392 318C392 311 392 306 391 299L120 299C130 337 147 374 173 400C198 426 234 447 275 447C352 447 392 388 392 318Z"/>
<glyph unicode="&#x11a;" horiz-adv-x="608" d="M624 709L156 709L32 0L505 0L518 82L136 82L180 328L513 328L528 411L193 411L232 627L610 627ZM569 867L527 917L400 820L311 918L258 869L364 754L421 754Z"/>
<glyph unicode="&#x11b;" horiz-adv-x="529" d="M478 308C478 363 461 420 423 461C386 501 335 519 280 519C212 519 157 494 115 452C54 392 21 300 21 211C21 162 33 115 56 77C94 16 156 -13 227 -13C327 -13 412 45 443 142L355 142C333 92 289 60 236 60C155 60 108 116 108 199C108 208 108 217 109 226L468 226C474 250 478 279 478 308ZM392 318C392 311 392 306 391 299L120 299C130 337 147 374 173 400C198 426 234 447 275 447C352 447 392 388 392 318ZM457 672L415 718L306 624L237 716L182 676L272 557L327 557Z"/>
<glyph unicode="&#x11c;" horiz-adv-x="651" d="M612 491C612 545 589 610 543 654C510 686 450 722 366 722C286 722 218 690 168 642C70 548 35 384 35 253C35 172 61 99 112 51C153 12 210 -13 284 -13C352 -13 424 13 468 69L468 0L533 0L600 376L331 376L316 294L504 294C484 180 421 72 290 72C242 72 203 88 176 114C140 148 126 200 126 258C126 356 157 507 230 580C262 612 307 637 359 637C399 637 427 631 454 615C497 589 522 541 522 491ZM238 805L280 755L407 852L496 754L549 803L443 918L386 918Z"/>
<glyph unicode="&#x11d;" horiz-adv-x="516" d="M522 552C510 555 498 556 486 556C444 556 403 534 381 492C349 511 313 519 274 519C220 519 171 502 136 474C91 438 64 384 64 326C64 282 81 243 110 213C93 205 76 196 62 183C37 159 26 138 26 103C26 75 43 52 65 37C13 17 -25 -33 -25 -86C-25 -122 -10 -154 10 -175C53 -221 123 -235 183 -235C268 -235 344 -218 392 -171C419 -144 437 -110 437 -63C437 10 375 57 291 66L146 81C119 84 102 99 102 119C102 130 106 140 114 148C126 161 146 171 162 175C188 163 217 158 249 158C305 158 357 176 391 205C434 242 460 297 460 354C460 390 449 426 426 454C436 474 459 486 484 486C491 486 504 485 510 483ZM375 352C375 283 325 226 254 226C193 226 148 262 148 326C148 391 195 450 268 450C328 450 375 416 375 352ZM352 -69C352 -94 343 -109 329 -123C298 -154 247 -163 188 -163C151 -163 100 -155 73 -127C60 -113 52 -96 52 -77C52 -26 89 2 137 10L265 -4C320 -10 352 -31 352 -69ZM151 605L193 559L302 653L375 561L427 601L336 720L281 720Z"/>
<glyph unicode="&#x11e;" horiz-adv-x="651" d="M612 491C612 545 589 610 543 654C510 686 450 722 366 722C286 722 218 690 168 642C70 548 35 384 35 253C35 172 61 99 112 51C153 12 210 -13 284 -13C352 -13 424 13 468 69L468 0L533 0L600 376L331 376L316 294L504 294C484 180 421 72 290 72C242 72 203 88 176 114C140 148 126 200 126 258C126 356 157 507 230 580C262 612 307 637 359 637C399 637 427 631 454 615C497 589 522 541 522 491ZM571 910L500 910C484 856 449 818 389 818C341 818 308 851 308 899L308 910L242 910C241 903 241 896 241 889C241 808 302 754 381 754C480 754 547 817 571 910Z"/>
<glyph unicode="&#x11f;" horiz-adv-x="516" d="M522 552C510 555 498 556 486 556C444 556 403 534 381 492C349 511 313 519 274 519C220 519 171 502 136 474C91 438 64 384 64 326C64 282 81 243 110 213C93 205 76 196 62 183C37 159 26 138 26 103C26 75 43 52 65 37C13 17 -25 -33 -25 -86C-25 -122 -10 -154 10 -175C53 -221 123 -235 183 -235C268 -235 344 -218 392 -171C419 -144 437 -110 437 -63C437 10 375 57 291 66L146 81C119 84 102 99 102 119C102 130 106 140 114 148C126 161 146 171 162 175C188 163 217 158 249 158C305 158 357 176 391 205C434 242 460 297 460 354C460 390 449 426 426 454C436 474 459 486 484 486C491 486 504 485 510 483ZM375 352C375 283 325 226 254 226C193 226 148 262 148 326C148 391 195 450 268 450C328 450 375 416 375 352ZM352 -69C352 -94 343 -109 329 -123C298 -154 247 -163 188 -163C151 -163 100 -155 73 -127C60 -113 52 -96 52 -77C52 -26 89 2 137 10L265 -4C320 -10 352 -31 352 -69ZM474 710L403 710C387 656 352 618 292 618C244 618 211 651 211 699L211 710L145 710C144 703 144 696 144 689C144 608 205 554 284 554C383 554 450 617 474 710Z"/>
<glyph unicode="&#x120;" horiz-adv-x="651" d="M612 491C612 545 589 610 543 654C510 686 450 722 366 722C286 722 218 690 168 642C70 548 35 384 35 253C35 172 61 99 112 51C153 12 210 -13 284 -13C352 -13 424 13 468 69L468 0L533 0L600 376L331 376L316 294L504 294C484 180 421 72 290 72C242 72 203 88 176 114C140 148 126 200 126 258C126 356 157 507 230 580C262 612 307 637 359 637C399 637 427 631 454 615C497 589 522 541 522 491ZM448 881L356 881L340 789L432 789Z"/>
<glyph unicode="&#x121;" horiz-adv-x="516" d="M522 552C510 555 498 556 486 556C444 556 403 534 381 492C349 511 313 519 274 519C220 519 171 502 136 474C91 438 64 384 64 326C64 282 81 243 110 213C93 205 76 196 62 183C37 159 26 138 26 103C26 75 43 52 65 37C13 17 -25 -33 -25 -86C-25 -122 -10 -154 10 -175C53 -221 123 -235 183 -235C268 -235 344 -218 392 -171C419 -144 437 -110 437 -63C437 10 375 57 291 66L146 81C119 84 102 99 102 119C102 130 106 140 114 148C126 161 146 171 162 175C188 163 217 158 249 158C305 158 357 176 391 205C434 242 460 297 460 354C460 390 449 426 426 454C436 474 459 486 484 486C491 486 504 485 510 483ZM375 352C375 283 325 226 254 226C193 226 148 262 148 326C148 391 195 450 268 450C328 450 375 416 375 352ZM352 -69C352 -94 343 -109 329 -123C298 -154 247 -163 188 -163C151 -163 100 -155 73 -127C60 -113 52 -96 52 -77C52 -26 89 2 137 10L265 -4C320 -10 352 -31 352 -69ZM352 691L260 691L244 599L336 599Z"/>
<glyph unicode="&#x122;" horiz-adv-x="651" d="M612 491C612 545 589 610 543 654C510 686 450 722 366 722C286 722 218 690 168 642C70 548 35 384 35 253C35 172 61 99 112 51C153 12 210 -13 284 -13C352 -13 424 13 468 69L468 0L533 0L600 376L331 376L316 294L504 294C484 180 421 72 290 72C242 72 203 88 176 114C140 148 126 200 126 258C126 356 157 507 230 580C262 612 307 637 359 637C399 637 427 631 454 615C497 589 522 541 522 491ZM309 -58L224 -58L209 -140L248 -140C243 -170 230 -181 202 -190L212 -220C264 -206 288 -177 295 -135Z"/>
<glyph unicode="&#x123;" horiz-adv-x="516" d="M243 557L328 557L343 639L304 639C309 669 322 680 350 689L340 719C288 705 264 676 257 634ZM522 552C510 555 498 556 486 556C444 556 403 534 381 492C349 511 313 519 274 519C220 519 171 502 136 474C91 438 64 384 64 326C64 282 81 243 110 213C93 205 76 196 62 183C37 159 26 138 26 103C26 75 43 52 65 37C13 17 -25 -33 -25 -86C-25 -122 -10 -154 10 -175C53 -221 123 -235 183 -235C268 -235 344 -218 392 -171C419 -144 437 -110 437 -63C437 10 375 57 291 66L146 81C119 84 102 99 102 119C102 130 106 140 114 148C126 161 146 171 162 175C188 163 217 158 249 158C305 158 357 176 391 205C434 242 460 297 460 354C460 390 449 426 426 454C436 474 459 486 484 486C491 486 504 485 510 483ZM375 352C375 283 325 226 254 226C193 226 148 262 148 326C148 391 195 450 268 450C328 450 375 416 375 352ZM352 -69C352 -94 343 -109 329 -123C298 -154 247 -163 188 -163C151 -163 100 -155 73 -127C60 -113 52 -96 52 -77C52 -26 89 2 137 10L265 -4C320 -10 352 -31 352 -69Z"/>
<glyph unicode="&#x124;" horiz-adv-x="706" d="M674 709L584 709L532 414L195 414L247 709L157 709L32 0L122 0L180 327L517 327L459 0L549 0ZM272 805L314 755L441 852L530 754L583 803L477 918L420 918Z"/>
<glyph unicode="&#x125;" horiz-adv-x="565" d="M491 382C491 418 483 452 456 479C430 505 392 519 345 519C286 519 223 490 186 443L235 722L150 722L23 0L108 0L152 247C159 289 173 332 197 368C223 407 270 444 319 444C351 444 371 435 385 421C400 406 404 387 404 360C404 349 399 315 397 304L343 0L428 0L483 310C486 329 491 362 491 382ZM84 782L126 736L235 830L308 738L360 778L269 897L214 897Z"/>
<glyph unicode="&#x126;" horiz-adv-x="706" d="M674 709L584 709L563 590L226 590L247 709L157 709L136 590L76 590L63 522L124 522L32 0L122 0L180 327L517 327L459 0L549 0L641 522L700 522L713 590L653 590ZM195 414L214 522L551 522L532 414Z"/>
<glyph unicode="&#x127;" horiz-adv-x="565" d="M491 382C491 418 483 452 456 479C430 505 392 519 345 519C286 519 223 490 186 443L206 560L368 560L379 623L217 623L235 722L150 722L132 623L73 623L62 560L121 560L23 0L108 0L152 247C159 289 173 332 197 368C223 407 270 444 319 444C351 444 371 435 385 421C400 406 404 387 404 360C404 349 399 315 397 304L343 0L428 0L483 310C486 329 491 362 491 382Z"/>
<glyph unicode="&#x12a;" horiz-adv-x="281" d="M249 709L157 709L32 0L124 0ZM355 842L77 842L65 774L343 774Z"/>
<glyph unicode="&#x12b;" horiz-adv-x="258" d="M201 506L113 506L23 0L111 0ZM324 656L46 656L34 588L312 588Z"/>
<glyph unicode="&#x12e;" horiz-adv-x="281" d="M-45 -118C-45 -162 -15 -194 39 -194L49 -194C73 -193 84 -189 92 -187L101 -129C101 -129 88 -130 71 -130C44 -130 33 -120 33 -97C33 -55 86 -14 124 0L249 709L157 709L32 0L42 0C-2 -21 -45 -77 -45 -118Z"/>
<glyph unicode="&#x12f;" horiz-adv-x="258" d="M-59 -118C-59 -162 -29 -194 25 -194L35 -194C59 -193 70 -189 78 -187L87 -129C87 -129 74 -130 57 -130C30 -130 19 -120 19 -97C19 -55 72 -14 110 0L200 506L113 506L23 0L28 0C-16 -21 -59 -77 -59 -118ZM244 722L145 722L127 622L226 622Z"/>
<glyph unicode="&#x130;" horiz-adv-x="281" d="M249 709L157 709L32 0L124 0ZM278 881L186 881L170 789L262 789Z"/>
<glyph unicode="&#x131;" horiz-adv-x="259" d="M201 506L113 506L23 0L111 0Z"/>
<glyph unicode="&#x134;" horiz-adv-x="497" d="M471 709L381 709L289 189C278 126 232 72 164 72C96 72 64 111 64 175C64 188 66 202 68 215L-20 215C-23 201 -25 181 -25 166C-25 111 -6 68 24 38C59 3 109 -13 157 -13C278 -13 358 67 378 181ZM263 805L305 755L432 852L521 754L574 803L468 918L411 918Z"/>
<glyph unicode="&#x135;" horiz-adv-x="269" d="M208 506L122 506L17 -87C10 -124 -16 -141 -46 -141C-65 -141 -94 -133 -111 -123L-123 -189C-93 -205 -63 -214 -29 -214C43 -214 89 -169 102 -94ZM19 605L61 559L170 653L243 561L295 601L204 720L149 720Z"/>
<glyph unicode="&#x136;" horiz-adv-x="652" d="M682 709L566 709L181 335L247 709L157 709L32 0L122 0L158 201L334 372L483 0L581 0L403 439ZM342 -58L257 -58L242 -140L281 -140C276 -170 263 -181 235 -190L245 -220C297 -206 321 -177 328 -135Z"/>
<glyph unicode="&#x137;" horiz-adv-x="528" d="M528 506L421 506L154 257L236 722L151 722L23 0L108 0L133 139L247 246L367 0L458 0L310 304C436 421 528 506 528 506ZM269 -58L184 -58L169 -140L208 -140C203 -170 190 -181 162 -190L172 -220C224 -206 248 -177 255 -135Z"/>
<glyph unicode="&#x139;" horiz-adv-x="526" d="M478 83L137 83L247 709L157 709L32 0L463 0ZM400 853L365 926L173 804L198 754Z"/>
<glyph unicode="&#x13a;" horiz-adv-x="277" d="M235 722L150 722L46 134C41 106 40 94 40 86C40 57 47 38 62 21C77 4 100 -6 132 -6C155 -6 175 -2 192 5L204 74C191 70 173 68 164 68C137 68 126 81 126 103C126 106 126 110 127 114ZM384 854L349 927L157 805L182 755Z"/>
<glyph unicode="&#x13b;" horiz-adv-x="526" d="M478 83L137 83L247 709L157 709L32 0L463 0ZM293 -58L208 -58L193 -140L232 -140C227 -170 214 -181 186 -190L196 -220C248 -206 272 -177 279 -135Z"/>
<glyph unicode="&#x13c;" horiz-adv-x="277" d="M235 722L150 722L46 134C41 106 40 94 40 86C40 57 47 38 62 21C77 4 100 -6 132 -6C155 -6 175 -2 192 5L204 74C191 70 173 68 164 68C137 68 126 81 126 103C126 106 126 110 127 114ZM132 -58L47 -58L32 -140L71 -140C66 -170 53 -181 25 -190L35 -220C87 -206 111 -177 118 -135Z"/>
<glyph unicode="&#x13d;" horiz-adv-x="526" d="M478 83L137 83L247 709L157 709L32 0L463 0ZM387 772L310 772L294 681L327 681L326 675C322 651 315 634 281 618L290 585C351 611 366 651 372 687Z"/>
<glyph unicode="&#x13e;" horiz-adv-x="277" d="M235 722L150 722L46 134C41 106 40 94 40 86C40 57 47 38 62 21C77 4 100 -6 132 -6C155 -6 175 -2 192 5L204 74C191 70 173 68 164 68C137 68 126 81 126 103C126 106 126 110 127 114ZM342 722L265 722L249 631L282 631L281 625C277 601 270 584 236 568L245 535C306 561 321 601 327 637Z"/>
<glyph unicode="&#x141;" horiz-adv-x="522" d="M476 83L135 83L182 351L360 450L336 503L195 424L245 709L155 709L95 368L-12 308L12 256L82 295L30 0L461 0Z"/>
<glyph unicode="&#x142;" horiz-adv-x="327" d="M327 466L303 519L214 469L258 722L173 722L119 416L20 360L44 308L107 343L66 112C55 52 81 -6 156 -6C179 -6 199 -2 216 5L228 75C215 71 197 69 188 69C159 69 147 88 152 115L201 396Z"/>
<glyph unicode="&#x143;" horiz-adv-x="724" d="M692 709L602 709L502 127L259 709L157 709L32 0L122 0L222 580L465 0L567 0ZM595 853L560 926L368 804L393 754Z"/>
<glyph unicode="&#x144;" horiz-adv-x="565" d="M491 382C491 418 483 452 456 479C430 505 392 519 345 519C284 519 217 487 181 436L181 506L112 506L23 0L108 0L152 247C159 289 173 332 197 368C223 407 270 444 319 444C351 444 371 435 385 421C400 406 404 387 404 360C404 349 399 315 397 304L343 0L428 0L483 310C486 329 491 362 491 382ZM486 650L451 723L259 601L284 551Z"/>
<glyph unicode="&#x145;" horiz-adv-x="724" d="M692 709L602 709L502 127L259 709L157 709L32 0L122 0L222 580L465 0L567 0ZM353 -58L268 -58L253 -140L292 -140C287 -170 274 -181 246 -190L256 -220C308 -206 332 -177 339 -135Z"/>
<glyph unicode="&#x146;" horiz-adv-x="565" d="M491 382C491 418 483 452 456 479C430 505 392 519 345 519C284 519 217 487 181 436L181 506L112 506L23 0L108 0L152 247C159 289 173 332 197 368C223 407 270 444 319 444C351 444 371 435 385 421C400 406 404 387 404 360C404 349 399 315 397 304L343 0L428 0L483 310C486 329 491 362 491 382ZM267 -58L182 -58L167 -140L206 -140C201 -170 188 -181 160 -190L170 -220C222 -206 246 -177 253 -135Z"/>
<glyph unicode="&#x147;" horiz-adv-x="724" d="M692 709L602 709L502 127L259 709L157 709L32 0L122 0L222 580L465 0L567 0ZM604 867L562 917L435 820L346 918L293 869L399 754L456 754Z"/>
<glyph unicode="&#x148;" horiz-adv-x="565" d="M491 382C491 418 483 452 456 479C430 505 392 519 345 519C284 519 217 487 181 436L181 506L112 506L23 0L108 0L152 247C159 289 173 332 197 368C223 407 270 444 319 444C351 444 371 435 385 421C400 406 404 387 404 360C404 349 399 315 397 304L343 0L428 0L483 310C486 329 491 362 491 382ZM486 672L444 718L335 624L266 716L211 676L301 557L356 557Z"/>
<glyph unicode="&#x14c;" horiz-adv-x="645" d="M608 456C608 604 520 722 361 722C281 722 220 691 170 643C74 550 35 381 35 253C35 103 128 -13 284 -13C364 -13 426 18 476 66C572 159 608 328 608 456ZM516 451C516 353 486 199 414 127C382 95 341 72 289 72C178 72 126 155 126 258C126 356 160 509 232 581C264 613 304 637 356 637C467 637 516 554 516 451ZM542 842L264 842L252 774L530 774Z"/>
<glyph unicode="&#x14d;" horiz-adv-x="532" d="M475 308C475 363 457 415 426 452C390 495 335 519 276 519C101 519 21 350 21 198C21 143 39 91 70 54C106 11 161 -13 220 -13C395 -13 475 156 475 308ZM388 306C388 209 347 60 227 60C144 60 108 126 108 200C108 297 149 446 269 446C352 446 388 380 388 306ZM451 656L173 656L161 588L439 588Z"/>
<glyph unicode="&#x150;" horiz-adv-x="645" d="M608 456C608 604 520 722 361 722C281 722 220 691 170 643C74 550 35 381 35 253C35 103 128 -13 284 -13C364 -13 426 18 476 66C572 159 608 328 608 456ZM516 451C516 353 486 199 414 127C382 95 341 72 289 72C178 72 126 155 126 258C126 356 160 509 232 581C264 613 304 637 356 637C467 637 516 554 516 451ZM664 858L627 930L434 801L458 754ZM481 858L444 930L251 801L275 754Z"/>
<glyph unicode="&#x151;" horiz-adv-x="532" d="M475 308C475 363 457 415 426 452C390 495 335 519 276 519C101 519 21 350 21 198C21 143 39 91 70 54C106 11 161 -13 220 -13C395 -13 475 156 475 308ZM388 306C388 209 347 60 227 60C144 60 108 126 108 200C108 297 149 446 269 446C352 446 388 380 388 306ZM558 657L521 729L328 600L352 553ZM375 657L338 729L145 600L169 553Z"/>
<glyph unicode="&#x152;" horiz-adv-x="1004" d="M1020 709L564 709L549 625C512 690 438 722 362 722C124 722 35 450 35 253C35 102 126 -13 283 -13C342 -13 407 8 449 52L440 0L901 0L914 82L544 82L588 327L899 327L914 411L601 411L640 627L1006 627ZM514 451C514 315 463 72 288 72C177 72 126 155 126 258C126 393 186 637 357 637C469 637 514 552 514 451Z"/>
<glyph unicode="&#x153;" horiz-adv-x="872" d="M821 308C821 363 805 420 767 461C730 501 682 519 627 519C571 519 534 503 501 480C475 462 452 438 436 413C421 448 394 477 360 496C334 510 304 519 273 519C205 519 156 496 116 457C51 394 21 293 21 198C21 143 38 92 69 55C105 12 154 -13 213 -13C257 -13 283 -7 321 14C356 34 380 61 402 98C429 28 500 -13 574 -13C674 -13 756 45 787 142L699 142C677 92 636 60 583 60C502 60 458 116 458 199C458 208 458 217 459 226L812 226C818 250 821 279 821 308ZM736 318C736 311 736 306 735 299L469 299C478 338 494 375 520 401C545 427 581 447 622 447C699 447 736 388 736 318ZM382 306C382 235 361 138 303 90C282 73 256 60 224 60C143 60 108 127 108 200C108 297 146 446 266 446C347 446 382 379 382 306Z"/>
<glyph unicode="&#x154;" horiz-adv-x="652" d="M630 521C630 629 548 709 424 709L157 709L32 0L122 0L174 297L372 297L464 0L558 0L461 309C502 320 537 338 565 364C601 397 630 454 630 521ZM536 521C536 428 475 377 373 377L189 377L233 628L411 628C491 628 536 586 536 521ZM530 853L495 926L303 804L328 754Z"/>
<glyph unicode="&#x155;" horiz-adv-x="373" d="M387 505C369 510 349 512 330 512C272 512 214 487 181 433L181 506L112 506L23 0L108 0L151 242C163 307 186 365 232 400C256 418 285 431 320 431C342 431 357 428 373 422ZM430 650L395 723L203 601L228 551Z"/>
<glyph unicode="&#x156;" horiz-adv-x="652" d="M630 521C630 629 548 709 424 709L157 709L32 0L122 0L174 297L372 297L464 0L558 0L461 309C502 320 537 338 565 364C601 397 630 454 630 521ZM536 521C536 428 475 377 373 377L189 377L233 628L411 628C491 628 536 586 536 521ZM331 -58L246 -58L231 -140L270 -140C265 -170 252 -181 224 -190L234 -220C286 -206 310 -177 317 -135Z"/>
<glyph unicode="&#x157;" horiz-adv-x="373" d="M387 505C369 510 349 512 330 512C272 512 214 487 181 433L181 506L112 506L23 0L108 0L151 242C163 307 186 365 232 400C256 418 285 431 320 431C342 431 357 428 373 422ZM102 -58L17 -58L2 -140L41 -140C36 -170 23 -181 -5 -190L5 -220C57 -206 81 -177 88 -135Z"/>
<glyph unicode="&#x158;" horiz-adv-x="652" d="M630 521C630 629 548 709 424 709L157 709L32 0L122 0L174 297L372 297L464 0L558 0L461 309C502 320 537 338 565 364C601 397 630 454 630 521ZM536 521C536 428 475 377 373 377L189 377L233 628L411 628C491 628 536 586 536 521ZM558 867L516 917L389 820L300 918L247 869L353 754L410 754Z"/>
<glyph unicode="&#x159;" horiz-adv-x="373" d="M387 505C369 510 349 512 330 512C272 512 214 487 181 433L181 506L112 506L23 0L108 0L151 242C163 307 186 365 232 400C256 418 285 431 320 431C342 431 357 428 373 422ZM422 672L380 718L271 624L202 716L147 676L237 557L292 557Z"/>
<glyph unicode="&#x15a;" horiz-adv-x="619" d="M590 496C590 544 575 595 547 632C499 696 422 721 349 721C274 721 223 702 179 670C124 630 92 573 92 506C92 407 160 352 249 330L357 303C427 285 457 242 457 196C457 161 443 134 422 114C390 83 343 69 296 69C243 69 184 81 145 127C118 159 109 196 109 236L16 236C16 174 32 123 69 77C121 14 202 -13 285 -13C364 -13 442 11 493 62C529 97 551 146 551 207C551 298 487 364 387 389L274 417C224 429 185 459 185 514C185 548 200 577 225 599C256 627 298 639 340 639C403 639 449 617 476 573C491 549 497 524 497 496ZM520 853L485 926L293 804L318 754Z"/>
<glyph unicode="&#x15b;" horiz-adv-x="501" d="M453 354C453 386 445 410 429 438C396 495 325 519 263 519C207 519 158 502 124 475C87 445 64 404 65 352C66 319 81 290 102 270C123 250 151 238 180 231L276 208C320 198 340 175 340 143C340 118 329 101 314 88C291 68 259 58 227 58C187 58 157 64 129 89C111 105 96 129 96 156C96 161 95 164 96 170L11 170C10 164 11 158 11 152C11 118 23 85 43 60C84 8 149 -13 222 -13C276 -13 330 2 368 33C405 63 426 106 426 154C426 217 382 262 321 278C269 292 230 301 203 307C179 313 149 330 149 366C149 386 156 402 169 416C192 441 222 449 255 449C290 449 325 439 347 411C362 392 367 374 367 354ZM439 650L404 723L212 601L237 551Z"/>
<glyph unicode="&#x15c;" horiz-adv-x="619" d="M590 496C590 544 575 595 547 632C499 696 422 721 349 721C274 721 223 702 179 670C124 630 92 573 92 506C92 407 160 352 249 330L357 303C427 285 457 242 457 196C457 161 443 134 422 114C390 83 343 69 296 69C243 69 184 81 145 127C118 159 109 196 109 236L16 236C16 174 32 123 69 77C121 14 202 -13 285 -13C364 -13 442 11 493 62C529 97 551 146 551 207C551 298 487 364 387 389L274 417C224 429 185 459 185 514C185 548 200 577 225 599C256 627 298 639 340 639C403 639 449 617 476 573C491 549 497 524 497 496ZM220 805L262 755L389 852L478 754L531 803L425 918L368 918Z"/>
<glyph unicode="&#x15d;" horiz-adv-x="501" d="M453 354C453 386 445 410 429 438C396 495 325 519 263 519C207 519 158 502 124 475C87 445 64 404 65 352C66 319 81 290 102 270C123 250 151 238 180 231L276 208C320 198 340 175 340 143C340 118 329 101 314 88C291 68 259 58 227 58C187 58 157 64 129 89C111 105 96 129 96 156C96 161 95 164 96 170L11 170C10 164 11 158 11 152C11 118 23 85 43 60C84 8 149 -13 222 -13C276 -13 330 2 368 33C405 63 426 106 426 154C426 217 382 262 321 278C269 292 230 301 203 307C179 313 149 330 149 366C149 386 156 402 169 416C192 441 222 449 255 449C290 449 325 439 347 411C362 392 367 374 367 354ZM153 605L195 559L304 653L377 561L429 601L338 720L283 720Z"/>
<glyph unicode="&#x15e;" horiz-adv-x="619" d="M590 496C590 544 575 595 547 632C499 696 422 721 349 721C274 721 223 702 179 670C124 630 92 573 92 506C92 407 160 352 249 330L357 303C427 285 457 242 457 196C457 161 443 134 422 114C390 83 343 69 296 69C243 69 184 81 145 127C118 159 109 196 109 236L16 236C16 174 32 123 69 77C121 14 202 -13 285 -13C364 -13 442 11 493 62C529 97 551 146 551 207C551 298 487 364 387 389L274 417C224 429 185 459 185 514C185 548 200 577 225 599C256 627 298 639 340 639C403 639 449 617 476 573C491 549 497 524 497 496ZM330 -59L252 -59L149 -194L230 -235Z"/>
<glyph unicode="&#x15f;" horiz-adv-x="501" d="M453 354C453 386 445 410 429 438C396 495 325 519 263 519C207 519 158 502 124 475C87 445 64 404 65 352C66 319 81 290 102 270C123 250 151 238 180 231L276 208C320 198 340 175 340 143C340 118 329 101 314 88C291 68 259 58 227 58C187 58 157 64 129 89C111 105 96 129 96 156C96 161 95 164 96 170L11 170C10 164 11 158 11 152C11 118 23 85 43 60C84 8 149 -13 222 -13C276 -13 330 2 368 33C405 63 426 106 426 154C426 217 382 262 321 278C269 292 230 301 203 307C179 313 149 330 149 366C149 386 156 402 169 416C192 441 222 449 255 449C290 449 325 439 347 411C362 392 367 374 367 354ZM251 -59L173 -59L70 -194L151 -235Z"/>
<glyph unicode="&#x160;" horiz-adv-x="619" d="M590 496C590 544 575 595 547 632C499 696 422 721 349 721C274 721 223 702 179 670C124 630 92 573 92 506C92 407 160 352 249 330L357 303C427 285 457 242 457 196C457 161 443 134 422 114C390 83 343 69 296 69C243 69 184 81 145 127C118 159 109 196 109 236L16 236C16 174 32 123 69 77C121 14 202 -13 285 -13C364 -13 442 11 493 62C529 97 551 146 551 207C551 298 487 364 387 389L274 417C224 429 185 459 185 514C185 548 200 577 225 599C256 627 298 639 340 639C403 639 449 617 476 573C491 549 497 524 497 496ZM553 867L511 917L384 820L295 918L242 869L348 754L405 754Z"/>
<glyph unicode="&#x161;" horiz-adv-x="501" d="M453 354C453 386 445 410 429 438C396 495 325 519 263 519C207 519 158 502 124 475C87 445 64 404 65 352C66 319 81 290 102 270C123 250 151 238 180 231L276 208C320 198 340 175 340 143C340 118 329 101 314 88C291 68 259 58 227 58C187 58 157 64 129 89C111 105 96 129 96 156C96 161 95 164 96 170L11 170C10 164 11 158 11 152C11 118 23 85 43 60C84 8 149 -13 222 -13C276 -13 330 2 368 33C405 63 426 106 426 154C426 217 382 262 321 278C269 292 230 301 203 307C179 313 149 330 149 366C149 386 156 402 169 416C192 441 222 449 255 449C290 449 325 439 347 411C362 392 367 374 367 354ZM430 672L388 718L279 624L210 716L155 676L245 557L300 557Z"/>
<glyph unicode="&#x162;" horiz-adv-x="526" d="M581 709L69 709L54 626L265 626L155 0L246 0L355 626L566 626ZM235 -58L150 -58L135 -140L174 -140C169 -170 156 -181 128 -190L138 -220C190 -206 214 -177 221 -135Z"/>
<glyph unicode="&#x163;" horiz-adv-x="373" d="M371 506L222 506L250 661L160 635L137 506L37 506L24 433L124 433L76 160C73 143 71 125 71 108C71 79 77 53 99 29C120 6 152 -7 190 -7C225 -7 260 -1 293 15L306 86C290 79 244 67 220 67C183 67 157 80 157 119C157 125 158 141 162 165L209 433L357 433ZM188 -58L103 -58L88 -140L127 -140C122 -170 109 -181 81 -190L91 -220C143 -206 167 -177 174 -135Z"/>
<glyph unicode="&#x164;" horiz-adv-x="526" d="M581 709L69 709L54 626L265 626L155 0L246 0L355 626L566 626ZM505 867L463 917L336 820L247 918L194 869L300 754L357 754Z"/>
<glyph unicode="&#x165;" horiz-adv-x="373" d="M371 506L222 506L250 661L160 635L137 506L37 506L24 433L124 433L76 160C73 143 71 125 71 108C71 79 77 53 99 29C120 6 152 -7 190 -7C225 -7 260 -1 293 15L306 86C290 79 244 67 220 67C183 67 157 80 157 119C157 125 158 141 162 165L209 433L357 433ZM406 732L329 732L313 641L346 641L345 635C341 611 334 594 300 578L309 545C370 571 385 611 391 647Z"/>
<glyph unicode="&#x16a;" horiz-adv-x="682" d="M665 709L575 709L492 240C475 144 411 72 309 72C213 72 152 118 152 214C152 232 154 250 157 268L235 709L145 709L69 278C65 256 63 233 63 211C63 75 160 -13 304 -13C459 -13 556 91 582 238ZM565 842L287 842L275 774L553 774Z"/>
<glyph unicode="&#x16b;" horiz-adv-x="564" d="M504 506L419 506L375 259C365 203 348 147 310 105C287 81 259 62 222 62C191 62 170 71 155 87C140 103 131 125 131 157C131 169 132 182 134 195L189 506L104 506L48 190C45 172 44 156 44 140C44 88 61 49 91 23C117 0 152 -13 196 -13C250 -13 312 14 345 65L345 0L415 0ZM471 656L193 656L181 588L459 588Z"/>
<glyph unicode="&#x16c;" horiz-adv-x="682" d="M665 709L575 709L492 240C475 144 411 72 309 72C213 72 152 118 152 214C152 232 154 250 157 268L235 709L145 709L69 278C65 256 63 233 63 211C63 75 160 -13 304 -13C459 -13 556 91 582 238ZM604 910L533 910C517 856 482 818 422 818C374 818 341 851 341 899L341 910L275 910C274 903 274 896 274 889C274 808 335 754 414 754C513 754 580 817 604 910Z"/>
<glyph unicode="&#x16d;" horiz-adv-x="564" d="M504 506L419 506L375 259C365 203 348 147 310 105C287 81 259 62 222 62C191 62 170 71 155 87C140 103 131 125 131 157C131 169 132 182 134 195L189 506L104 506L48 190C45 172 44 156 44 140C44 88 61 49 91 23C117 0 152 -13 196 -13C250 -13 312 14 345 65L345 0L415 0ZM499 710L428 710C412 656 377 618 317 618C269 618 236 651 236 699L236 710L170 710C169 703 169 696 169 689C169 608 230 554 309 554C408 554 475 617 499 710Z"/>
<glyph unicode="&#x16e;" horiz-adv-x="682" d="M665 709L575 709L492 240C475 144 411 72 309 72C213 72 152 118 152 214C152 232 154 250 157 268L235 709L145 709L69 278C65 256 63 233 63 211C63 75 160 -13 304 -13C459 -13 556 91 582 238ZM528 827C528 875 496 916 435 916C365 916 305 856 305 791C305 743 337 702 398 702C469 702 528 762 528 827ZM407 754C378 754 361 773 361 798C361 836 393 865 426 865C455 865 472 844 472 819C472 782 439 754 407 754Z"/>
<glyph unicode="&#x16f;" horiz-adv-x="564" d="M504 506L419 506L375 259C365 203 348 147 310 105C287 81 259 62 222 62C191 62 170 71 155 87C140 103 131 125 131 157C131 169 132 182 134 195L189 506L104 506L48 190C45 172 44 156 44 140C44 88 61 49 91 23C117 0 152 -13 196 -13C250 -13 312 14 345 65L345 0L415 0ZM445 678C445 726 413 767 352 767C280 767 222 706 222 640C222 593 254 553 315 553C386 553 445 613 445 678ZM324 605C295 605 278 624 278 649C278 687 310 716 343 716C372 716 389 695 389 670C389 633 356 605 324 605Z"/>
<glyph unicode="&#x170;" horiz-adv-x="682" d="M665 709L575 709L492 240C475 144 411 72 309 72C213 72 152 118 152 214C152 232 154 250 157 268L235 709L145 709L69 278C65 256 63 233 63 211C63 75 160 -13 304 -13C459 -13 556 91 582 238ZM672 858L635 930L442 801L466 754ZM489 858L452 930L259 801L283 754Z"/>
<glyph unicode="&#x171;" horiz-adv-x="564" d="M504 506L419 506L375 259C365 203 348 147 310 105C287 81 259 62 222 62C191 62 170 71 155 87C140 103 131 125 131 157C131 169 132 182 134 195L189 506L104 506L48 190C45 172 44 156 44 140C44 88 61 49 91 23C117 0 152 -13 196 -13C250 -13 312 14 345 65L345 0L415 0ZM563 657L526 729L333 600L357 553ZM380 657L343 729L150 600L174 553Z"/>
<glyph unicode="&#x172;" horiz-adv-x="682" d="M665 709L575 709L492 240C475 144 411 72 309 72C213 72 152 118 152 214C152 232 154 250 157 268L235 709L145 709L69 278C65 256 63 233 63 211C63 75 160 -13 304 -13C338 -13 369 -8 398 1C368 -31 345 -72 345 -118C345 -162 379 -194 433 -194L443 -194C467 -193 478 -189 486 -187L495 -129C495 -129 482 -130 465 -130C438 -130 423 -120 423 -97C423 -41 458 23 493 59C537 105 569 165 582 238Z"/>
<glyph unicode="&#x173;" horiz-adv-x="564" d="M246 -118C246 -162 276 -194 330 -194L340 -194C364 -193 375 -189 383 -187L392 -129C392 -129 379 -130 362 -130C335 -130 324 -120 324 -97C324 -55 377 -14 415 0L504 506L419 506L375 259C365 203 348 147 310 105C287 81 259 62 222 62C191 62 170 71 155 87C140 103 131 125 131 157C131 169 132 182 134 195L189 506L104 506L48 190C45 172 44 156 44 140C44 88 61 49 91 23C117 0 152 -13 196 -13C250 -13 312 14 345 65L345 5L333 0C289 -21 246 -77 246 -118Z"/>
<glyph unicode="&#x174;" horiz-adv-x="844" d="M881 709L796 709L586 137L518 699L438 699L177 134L166 709L82 709L100 0L199 0L458 572L524 0L615 0ZM336 805L378 755L505 852L594 754L647 803L541 918L484 918Z"/>
<glyph unicode="&#x175;" horiz-adv-x="750" d="M749 506L661 506L494 120L430 500L361 500L168 122L141 506L58 506L98 0L181 0L378 385L443 0L523 0ZM277 605L319 559L428 653L501 561L553 601L462 720L407 720Z"/>
<glyph unicode="&#x176;" horiz-adv-x="545" d="M613 709L512 709L268 372L141 709L50 709L211 287L159 0L250 0L300 287ZM187 805L229 755L356 852L445 754L498 803L392 918L335 918Z"/>
<glyph unicode="&#x177;" horiz-adv-x="487" d="M506 506L412 506L201 110L119 506L30 506L141 6L82 -101C69 -125 49 -141 17 -141C-13 -141 -39 -128 -57 -117L-69 -183C-45 -199 -11 -214 29 -214C88 -214 130 -180 159 -127ZM141 605L183 559L292 653L365 561L417 601L326 720L271 720Z"/>
<glyph unicode="&#x178;" horiz-adv-x="545" d="M479 870L387 870L371 778L463 778ZM303 870L211 870L195 778L287 778ZM611 709L510 709L266 372L139 709L48 709L209 287L157 0L248 0L298 287Z"/>
<glyph unicode="&#x179;" horiz-adv-x="602" d="M608 709L105 709L90 626L485 626L-8 89L-24 0L492 0L507 82L97 82L592 619ZM490 853L455 926L263 804L288 754Z"/>
<glyph unicode="&#x17a;" horiz-adv-x="482" d="M465 506L71 506L58 432L345 432L-5 75L-19 0L381 0L395 74L101 74L451 431ZM393 650L358 723L166 601L191 551Z"/>
<glyph unicode="&#x17b;" horiz-adv-x="602" d="M608 709L105 709L90 626L485 626L-8 89L-24 0L492 0L507 82L97 82L592 619ZM421 881L329 881L313 789L405 789Z"/>
<glyph unicode="&#x17c;" horiz-adv-x="482" d="M465 506L71 506L58 432L345 432L-5 75L-19 0L381 0L395 74L101 74L451 431ZM337 691L245 691L229 599L321 599Z"/>
<glyph unicode="&#x17d;" horiz-adv-x="602" d="M537 867L495 917L368 820L279 918L226 869L332 754L389 754ZM608 709L105 709L90 626L485 626L-8 89L-24 0L492 0L507 82L97 82L592 619Z"/>
<glyph unicode="&#x17e;" horiz-adv-x="482" d="M465 506L71 506L58 432L345 432L-5 75L-19 0L381 0L395 74L101 74L451 431ZM432 672L390 718L281 624L212 716L157 676L247 557L302 557Z"/>
<glyph unicode="&#x192;" horiz-adv-x="721" d="M290 -4C313 -4 334 7 347 25L678 501C687 513 691 526 691 540C691 575 663 608 623 608C601 608 582 598 570 580L274 157L135 254C124 262 110 266 96 266C62 266 30 238 30 199C30 178 41 157 61 142L251 8C264 0 276 -4 290 -4Z"/>
<glyph unicode="&#x218;" horiz-adv-x="619" d="M590 496C590 544 575 595 547 632C499 696 422 721 349 721C274 721 223 702 179 670C124 630 92 573 92 506C92 407 160 352 249 330L357 303C427 285 457 242 457 196C457 161 443 134 422 114C390 83 343 69 296 69C243 69 184 81 145 127C118 159 109 196 109 236L16 236C16 174 32 123 69 77C121 14 202 -13 285 -13C364 -13 442 11 493 62C529 97 551 146 551 207C551 298 487 364 387 389L274 417C224 429 185 459 185 514C185 548 200 577 225 599C256 627 298 639 340 639C403 639 449 617 476 573C491 549 497 524 497 496ZM313 -58L228 -58L213 -140L252 -140C247 -170 234 -181 206 -190L216 -220C268 -206 292 -177 299 -135Z"/>
<glyph unicode="&#x219;" horiz-adv-x="501" d="M453 354C453 386 445 410 429 438C396 495 325 519 263 519C207 519 158 502 124 475C87 445 64 404 65 352C66 319 81 290 102 270C123 250 151 238 180 231L276 208C320 198 340 175 340 143C340 118 329 101 314 88C291 68 259 58 227 58C187 58 157 64 129 89C111 105 96 129 96 156C96 161 95 164 96 170L11 170C10 164 11 158 11 152C11 118 23 85 43 60C84 8 149 -13 222 -13C276 -13 330 2 368 33C405 63 426 106 426 154C426 217 382 262 321 278C269 292 230 301 203 307C179 313 149 330 149 366C149 386 156 402 169 416C192 441 222 449 255 449C290 449 325 439 347 411C362 392 367 374 367 354ZM250 -58L165 -58L150 -140L189 -140C184 -170 171 -181 143 -190L153 -220C205 -206 229 -177 236 -135Z"/>
<glyph unicode="&#x21a;" horiz-adv-x="526" d="M581 709L69 709L54 626L265 626L155 0L246 0L355 626L566 626ZM235 -58L150 -58L135 -140L174 -140C169 -170 156 -181 128 -190L138 -220C190 -206 214 -177 221 -135Z"/>
<glyph unicode="&#x21b;" horiz-adv-x="373" d="M371 506L222 506L250 661L160 635L137 506L37 506L24 433L124 433L76 160C73 143 71 125 71 108C71 79 77 53 99 29C120 6 152 -7 190 -7C225 -7 260 -1 293 15L306 86C290 79 244 67 220 67C183 67 157 80 157 119C157 125 158 141 162 165L209 433L357 433ZM188 -58L103 -58L88 -140L127 -140C122 -170 109 -181 81 -190L91 -220C143 -206 167 -177 174 -135Z"/>
<glyph unicode="&#x2c6;" horiz-adv-x="341" d="M75 605L117 559L226 653L299 561L351 601L260 720L205 720Z"/>
<glyph unicode="&#x2c7;" horiz-adv-x="354" d="M388 672L346 718L237 624L168 716L113 676L203 557L258 557Z"/>
<glyph unicode="&#x2c9;" horiz-adv-x="282" d="M337 656L59 656L47 588L325 588Z"/>
<glyph unicode="&#x2d8;" horiz-adv-x="338" d="M394 710L323 710C307 656 272 618 212 618C164 618 131 651 131 699L131 710L65 710C64 703 64 696 64 689C64 608 125 554 204 554C303 554 370 617 394 710Z"/>
<glyph unicode="&#x2d9;" horiz-adv-x="261" d="M235 691L143 691L127 599L219 599Z"/>
<glyph unicode="&#x2da;" horiz-adv-x="206" d="M267 678C267 726 235 767 174 767C102 767 44 706 44 640C44 593 76 553 137 553C208 553 267 613 267 678ZM146 605C117 605 100 624 100 649C100 687 132 716 165 716C194 716 211 695 211 670C211 633 178 605 146 605Z"/>
<glyph unicode="&#x2db;" horiz-adv-x="160" d="M39 -118C39 -162 69 -194 123 -194L133 -194C157 -193 168 -189 176 -187L185 -129C185 -129 172 -130 155 -130C128 -130 117 -120 117 -97C117 -55 170 -14 208 0L173 34C164 15 146 10 126 0C82 -21 39 -77 39 -118Z"/>
<glyph unicode="&#x2dc;" horiz-adv-x="346" d="M391 647L361 689C343 672 319 659 293 659C247 659 224 703 169 703C124 703 90 679 58 649L90 607C110 624 129 635 156 635C199 635 220 593 280 593C324 593 361 616 391 647Z"/>
<glyph unicode="&#x2dd;" horiz-adv-x="445" d="M495 657L458 729L265 600L289 553ZM312 657L275 729L82 600L106 553Z"/>
<glyph unicode="&#x394;" horiz-adv-x="605" d="M545 0L418 709L314 709L-61 0ZM442 84L76 84L351 620Z"/>
<glyph unicode="&#x3a9;" horiz-adv-x="578" d="M534 364C534 417 495 457 441 457L378 457L378 519C378 573 339 613 285 613C231 613 192 573 192 519L192 448C176 459 157 465 137 465C83 465 44 425 44 371L44 123L293 123C347 123 386 162 386 216C386 235 380 255 369 270L441 270C495 270 534 310 534 364ZM517 364C517 319 486 287 441 287L209 287L209 519C209 564 240 596 285 596C330 596 362 564 362 519L362 440L441 440C486 440 517 409 517 364Z"/>
<glyph unicode="&#x3bc;" horiz-adv-x="576" d="M482 0L482 506L397 506L397 243C397 191 387 136 355 103C333 80 305 65 271 65C191 65 163 110 163 186L163 506L78 506L78 -200L163 -200L163 14C181 0 217 -12 251 -12C310 -12 375 19 401 77L408 0Z"/>
<glyph unicode="&#x3c0;" horiz-adv-x="626" d="M555 4L555 71C550 69 538 66 510 66C473 66 464 92 464 128L464 438L541 438L541 506L50 506L50 438L128 438L128 -1L212 -1L212 438L379 438L379 118C379 55 407 -7 488 -7C529 -7 550 2 555 4Z"/>
<glyph unicode="&#x1e80;" horiz-adv-x="844" d="M881 709L796 709L586 137L518 699L438 699L177 134L166 709L82 709L100 0L199 0L458 572L524 0L615 0ZM606 806L457 929L403 860L571 761Z"/>
<glyph unicode="&#x1e81;" horiz-adv-x="750" d="M749 506L661 506L494 120L430 500L361 500L168 122L141 506L58 506L98 0L181 0L378 385L443 0L523 0ZM516 598L367 721L313 652L481 553Z"/>
<glyph unicode="&#x2007;" horiz-adv-x="560" />
<glyph unicode="&#x2008;" horiz-adv-x="280" />
<glyph unicode="&#x200b;" horiz-adv-x="0" />
<glyph unicode="&#x2013;" horiz-adv-x="641" d="M576 341L61 341L47 262L562 262Z"/>
<glyph unicode="&#x2014;" horiz-adv-x="1111" d="M1046 341L61 341L47 262L1032 262Z"/>
<glyph unicode="&#x2018;" horiz-adv-x="261" d="M240 672L222 719C151 691 109 636 96 562L75 445L198 445L219 562L156 562C165 614 190 652 240 672Z"/>
<glyph unicode="&#x2019;" horiz-adv-x="251" d="M252 709L129 709L108 592L171 592C161 535 143 505 87 482L105 435C183 466 218 518 231 592Z"/>
<glyph unicode="&#x201a;" horiz-adv-x="265" d="M157 117L34 117L13 0L76 0C66 -57 48 -87 -8 -110L10 -157C88 -126 123 -74 136 0Z"/>
<glyph unicode="&#x201c;" horiz-adv-x="458" d="M439 672L421 719C350 691 308 636 295 562L274 445L397 445L418 562L355 562C364 614 389 652 439 672ZM242 672L224 719C153 691 111 636 98 562L77 445L200 445L221 562L158 562C167 614 192 652 242 672Z"/>
<glyph unicode="&#x201d;" horiz-adv-x="448" d="M448 709L325 709L304 592L367 592C357 535 339 505 283 482L301 435C379 466 414 518 427 592ZM251 709L128 709L107 592L170 592C160 535 142 505 86 482L104 435C182 466 217 518 230 592Z"/>
</font>
</defs>
</svg>
